<svg width="71" height="71" viewBox="0 0 71 71" fill="none" xmlns="http://www.w3.org/2000/svg">
<rect width="71" height="71" rx="10" fill="url(#paint0_linear_396_16905)"/>
<g clip-path="url(#clip0_396_16905)">
<path d="M29.4847 20.3705V14.7985C29.4847 14.7985 29.4847 13.1285 32.2655 13.6907C35.0463 14.2529 46.2024 18.7006 46.2024 18.7006C46.2024 18.7006 47.3114 18.7006 47.3114 20.9327V49.1564C47.3114 49.9997 46.9141 50.7933 46.2355 51.2893C44.3155 52.7113 39.896 55.6378 33.3745 57.6715C33.3745 57.6715 29.4682 59.3415 29.4682 56.5637C29.4682 53.786 29.4682 33.7466 29.4682 33.7466L25.5619 31.5145V56.911C25.5619 59.2753 27.5978 61.1437 29.9482 60.8957C30.4779 60.8295 31.0572 60.6973 31.7027 60.4658C35.758 58.9447 45.3748 53.7199 47.0631 52.8105C47.3114 52.6782 47.5431 52.4963 47.7583 52.2979C48.2549 51.8019 48.9832 50.8099 48.9832 49.3383C48.9832 47.1062 48.9832 20.387 48.9832 20.387C48.9832 20.387 48.9832 18.1549 45.0769 16.485C41.9651 15.1292 35.6421 12.7317 33.2255 11.8224C32.3979 11.5082 31.5538 11.3263 30.6765 11.2767C28.9385 11.161 26.3067 11.3098 25.595 13.1285V18.1384H22.2515L29.4847 20.3705Z" fill="white"/>
<path d="M17.2364 19.2627L37.8603 25.3803C37.8603 25.3803 39.5321 25.3803 39.5321 28.7202C39.5321 32.0601 39.5321 34.2923 39.5321 34.2923C39.5321 34.2923 32.845 36.5244 32.2822 32.0601C32.2822 32.0601 25.0324 31.498 25.5952 26.4881C25.5952 26.4881 16.1108 25.3803 17.2364 19.2627Z" fill="white"/>
<path d="M37.2977 53.2073L42.313 50.9752C42.313 50.9752 43.9848 51.5374 42.313 52.6452C40.6412 53.753 37.8605 54.3151 37.8605 54.3151C37.8605 54.3151 36.7349 54.3317 37.2977 53.2073Z" fill="white"/>
</g>
<defs>
<linearGradient id="paint0_linear_396_16905" x1="0" y1="35.5" x2="71" y2="35.5" gradientUnits="userSpaceOnUse">
<stop stop-color="#FFD426"/>
<stop offset="1" stop-color="#3CAF47"/>
</linearGradient>
<clipPath id="clip0_396_16905">
<rect width="31.8629" height="49.6686" fill="white" transform="translate(17.1372 11.2437)"/>
</clipPath>
</defs>
</svg>
