<svg width="213" height="71" viewBox="0 0 213 71" fill="none" xmlns="http://www.w3.org/2000/svg">
<path d="M196.038 9.34209e-05H16.9716C16.3188 9.34209e-05 15.674 9.3421e-05 15.023 0.00364342C14.478 0.00719342 13.9374 0.0175062 13.3873 0.0261859C12.192 0.0402116 10.9996 0.145069 9.82034 0.339846C8.64275 0.538864 7.50204 0.914069 6.43681 1.45277C5.37288 1.99603 4.40073 2.70194 3.55564 3.54489C2.70611 4.38547 1.99797 5.35707 1.45843 6.42233C0.917404 7.48546 0.542255 8.62471 0.34594 9.80072C0.147758 10.9752 0.0411147 12.1633 0.0269667 13.3543C0.0104485 13.8985 0.00870412 14.4445 0 14.9888V56.0166C0.00870412 56.5677 0.0104485 57.1017 0.0269667 57.653C0.0411191 58.8439 0.147762 60.0319 0.34594 61.2063C0.541713 62.383 0.916884 63.523 1.45843 64.5865C1.99772 65.6483 2.70597 66.616 3.55564 67.4519C4.39753 68.2986 5.3703 69.005 6.43681 69.5441C7.50204 70.0842 8.64262 70.4616 9.82034 70.6637C10.9998 70.8569 12.1921 70.9618 13.3873 70.9776C13.9374 70.9896 14.478 70.9965 15.023 70.9965C15.6739 71.0001 16.3189 71.0001 16.9716 71.0001H196.038C196.678 71.0001 197.328 71.0001 197.967 70.9965C198.51 70.9965 199.066 70.9896 199.608 70.9776C200.801 70.9627 201.991 70.8578 203.168 70.6637C204.35 70.4602 205.495 70.0829 206.565 69.5441C207.631 69.0046 208.602 68.2983 209.444 67.4519C210.291 66.6127 211.001 65.6457 211.547 64.5865C212.084 63.5222 212.456 62.3824 212.649 61.2063C212.847 60.0317 212.958 58.844 212.979 57.653C212.986 57.1017 212.986 56.5677 212.986 56.0166C213 55.3717 213 54.7304 213 54.0751V16.9267C213 16.2767 213 15.6319 212.986 14.9888C212.986 14.4445 212.986 13.8985 212.979 13.3542C212.958 12.1631 212.847 10.9753 212.649 9.80065C212.455 8.62532 212.084 7.48616 211.547 6.42226C210.448 4.28707 208.706 2.54904 206.565 1.45261C205.495 0.915225 204.35 0.54012 203.168 0.339686C201.992 0.144051 200.801 0.0391572 199.608 0.0259374C199.066 0.0172754 198.51 0.00687392 197.967 0.00341267C197.328 -0.000137329 196.678 -0.000137329 196.038 -0.000137329V9.34209e-05Z" fill="#A6A6A6"/>
<path d="M15.0319 69.4469C14.4896 69.4469 13.9604 69.4399 13.4223 69.4279C12.3076 69.4134 11.1956 69.3166 10.0953 69.1384C9.06925 68.9622 8.07533 68.6344 7.14628 68.1659C6.22575 67.7012 5.38615 67.0919 4.65965 66.3614C3.92263 65.6395 3.30903 64.8021 2.84316 63.8826C2.37215 62.9571 2.04619 61.9651 1.87663 60.9411C1.69351 59.8408 1.59443 58.7282 1.58026 57.6129C1.56897 57.2386 1.5542 55.9922 1.5542 55.9922V14.9887C1.5542 14.9887 1.56993 13.7614 1.58035 13.4009C1.59392 12.2874 1.69242 11.1766 1.87499 10.078C2.04487 9.05116 2.37108 8.05627 2.84234 7.12773C3.30649 6.20884 3.91669 5.37089 4.64927 4.64637C5.38103 3.91497 6.22331 3.30256 7.14541 2.83149C8.07233 2.36446 9.06437 2.03899 10.0883 1.866C11.1922 1.68595 12.3081 1.58861 13.4267 1.57479L15.0328 1.55312H197.959L199.584 1.57566C200.693 1.58879 201.798 1.68526 202.892 1.86426C203.927 2.03942 204.929 2.36716 205.866 2.83669C207.714 3.78604 209.217 5.28801 210.165 7.13207C210.629 8.05419 210.95 9.04097 211.118 10.0589C211.302 11.1665 211.406 12.2861 211.427 13.4087C211.432 13.9114 211.432 14.4513 211.432 14.9887C211.446 15.6543 211.446 16.2879 211.446 16.9266V54.075C211.446 54.7199 211.446 55.3491 211.432 55.9835C211.432 56.5607 211.432 57.0895 211.425 57.6337C211.405 58.7363 211.303 59.8359 211.121 60.9237C210.955 61.9551 210.631 62.9548 210.16 63.8879C209.691 64.7975 209.081 65.6275 208.352 66.3475C207.625 67.082 206.784 67.6948 205.861 68.1625C204.926 68.6346 203.925 68.9636 202.892 69.1384C201.792 69.3176 200.68 69.4144 199.565 69.4279C199.044 69.4399 198.498 69.4469 197.968 69.4469L196.038 69.4504L15.0319 69.4469Z" fill="black"/>
<path d="M44.0885 36.0337C44.1076 34.5521 44.5022 33.0995 45.2356 31.811C45.969 30.5224 47.0174 29.4397 48.2831 28.6638C47.479 27.5186 46.4183 26.5762 45.185 25.9114C43.9518 25.2465 42.5801 24.8776 41.1789 24.8339C38.1899 24.521 35.2922 26.6175 33.769 26.6175C32.2164 26.6175 29.8713 24.8649 27.346 24.9168C25.7125 24.9694 24.1206 25.443 22.7253 26.2916C21.33 27.1402 20.1789 28.3347 19.3842 29.7587C15.9417 35.7022 18.5095 44.437 21.8071 49.2413C23.457 51.5938 25.3852 54.2216 27.9083 54.1284C30.3772 54.0263 31.2993 52.5584 34.2795 52.5584C37.2321 52.5584 38.0972 54.1284 40.6715 54.0691C43.3208 54.0262 44.9899 51.7062 46.5819 49.3314C47.7673 47.6552 48.6795 45.8025 49.2847 43.8422C47.7455 43.193 46.432 42.1064 45.508 40.7178C44.584 39.3293 44.0903 37.7002 44.0885 36.0337Z" fill="white"/>
<path d="M39.2266 21.6743C40.6711 19.9451 41.3827 17.7225 41.2104 15.4785C39.0035 15.7096 36.965 16.7614 35.501 18.4243C34.7852 19.2366 34.2369 20.1817 33.8876 21.2055C33.5383 22.2292 33.3948 23.3116 33.4652 24.3907C34.569 24.4021 35.661 24.1635 36.659 23.693C37.657 23.2224 38.5349 22.5322 39.2266 21.6743Z" fill="white"/>
<path d="M75.2971 48.1728H66.8718L64.8484 54.1305H61.2798L69.2602 32.0886H72.9679L80.9482 54.1305H77.3187L75.2971 48.1728ZM67.7444 45.4237H74.4229L71.1306 35.7548H71.0385L67.7444 45.4237Z" fill="white"/>
<path d="M98.1832 46.0963C98.1832 51.0902 95.5028 54.2987 91.4579 54.2987C90.4332 54.3521 89.4142 54.1168 88.5175 53.6195C87.6207 53.1223 86.8825 52.3833 86.3874 51.4871H86.3108V59.4469H83.0029V38.0602H86.2049V40.7331H86.2657C86.7836 39.8412 87.5343 39.106 88.4378 38.6058C89.3414 38.1055 90.3641 37.8588 91.3971 37.8921C95.4871 37.8921 98.1832 41.1162 98.1832 46.0963ZM94.7832 46.0963C94.7832 42.8427 93.0971 40.7036 90.5244 40.7036C87.997 40.7036 86.297 42.8877 86.297 46.0963C86.297 49.3342 87.997 51.5027 90.5244 51.5027C93.0971 51.5027 94.7832 49.3793 94.7832 46.0963Z" fill="white"/>
<path d="M115.921 46.0962C115.921 51.0902 113.24 54.2987 109.195 54.2987C108.171 54.3521 107.152 54.1167 106.255 53.6195C105.358 53.1223 104.62 52.3832 104.125 51.4871H104.048V59.4468H100.74V38.0602H103.942V40.7331H104.003C104.521 39.8412 105.272 39.106 106.175 38.6058C107.079 38.1055 108.101 37.8588 109.134 37.8921C113.225 37.8921 115.921 41.1162 115.921 46.0962ZM112.521 46.0962C112.521 42.8427 110.834 40.7036 108.262 40.7036C105.734 40.7036 104.034 42.8877 104.034 46.0962C104.034 49.3342 105.734 51.5027 108.262 51.5027C110.834 51.5027 112.521 49.3793 112.521 46.0962H112.521Z" fill="white"/>
<path d="M127.643 47.9891C127.888 50.1749 130.018 51.6101 132.927 51.6101C135.716 51.6101 137.721 50.1749 137.721 48.204C137.721 46.4931 136.512 45.4687 133.647 44.7666L130.782 44.0785C126.724 43.1008 124.839 41.208 124.839 38.1364C124.839 34.3333 128.163 31.7211 132.882 31.7211C137.553 31.7211 140.755 34.3333 140.863 38.1364H137.523C137.323 35.9367 135.5 34.6089 132.835 34.6089C130.17 34.6089 128.347 35.9523 128.347 37.9076C128.347 39.4659 129.512 40.3829 132.361 41.0848L134.796 41.6811C139.331 42.7506 141.215 44.5673 141.215 47.7914C141.215 51.9151 137.921 54.4979 132.682 54.4979C127.78 54.4979 124.471 51.9758 124.257 47.9889L127.643 47.9891Z" fill="white"/>
<path d="M148.355 34.2571V38.0602H151.42V40.6724H148.355V49.5318C148.355 50.9081 148.969 51.5495 150.316 51.5495C150.68 51.5432 151.043 51.5177 151.404 51.4732V54.0698C150.798 54.1827 150.183 54.2338 149.567 54.2223C146.304 54.2223 145.032 53.0003 145.032 49.8836V40.6724H142.688V38.0602H145.032V34.2571H148.355Z" fill="white"/>
<path d="M153.194 46.0962C153.194 41.0399 156.18 37.8626 160.837 37.8626C165.509 37.8626 168.482 41.0399 168.482 46.0962C168.482 51.1664 165.525 54.3299 160.837 54.3299C156.151 54.3299 153.194 51.1664 153.194 46.0962ZM165.111 46.0962C165.111 42.6277 163.517 40.5806 160.837 40.5806C158.157 40.5806 156.564 42.6433 156.564 46.0962C156.564 49.5786 158.157 51.6102 160.837 51.6102C163.517 51.6102 165.111 49.5786 165.111 46.0962H165.111Z" fill="white"/>
<path d="M171.209 38.0602H174.364V40.7955H174.441C174.654 39.9412 175.156 39.1862 175.862 38.6575C176.568 38.1287 177.435 37.8585 178.317 37.892C178.699 37.8907 179.079 37.932 179.451 38.0151V41.1006C178.969 40.9539 178.467 40.8866 177.964 40.9012C177.484 40.8818 177.005 40.9663 176.56 41.1489C176.115 41.3315 175.715 41.608 175.388 41.9592C175.061 42.3105 174.813 42.7282 174.663 43.1838C174.513 43.6394 174.463 44.122 174.517 44.5986V54.1305H171.209L171.209 38.0602Z" fill="white"/>
<path d="M194.702 49.4105C194.257 52.3278 191.408 54.3299 187.763 54.3299C183.074 54.3299 180.165 51.1976 180.165 46.1725C180.165 41.1318 183.09 37.8626 187.623 37.8626C192.082 37.8626 194.886 40.9168 194.886 45.7894V46.9196H183.504V47.1189C183.451 47.7104 183.525 48.3062 183.722 48.8668C183.918 49.4274 184.231 49.94 184.641 50.3705C185.051 50.801 185.548 51.1396 186.1 51.3638C186.651 51.588 187.244 51.6927 187.839 51.6708C188.621 51.7439 189.405 51.5633 190.076 51.1561C190.746 50.7488 191.267 50.1366 191.561 49.4105L194.702 49.4105ZM183.519 44.6142H191.576C191.606 44.0824 191.525 43.5502 191.339 43.0511C191.152 42.5519 190.865 42.0966 190.494 41.7136C190.122 41.3306 189.676 41.0283 189.182 40.8255C188.688 40.6228 188.157 40.524 187.623 40.5355C187.085 40.5323 186.551 40.6355 186.052 40.8391C185.554 41.0428 185.101 41.3429 184.719 41.7221C184.338 42.1013 184.035 42.5521 183.829 43.0485C183.623 43.5449 183.518 44.077 183.519 44.6142V44.6142Z" fill="white"/>
<path d="M67.3305 15.4975C68.024 15.4479 68.7199 15.5523 69.368 15.8034C70.0161 16.0544 70.6003 16.4458 71.0784 16.9492C71.5564 17.4526 71.9165 18.0556 72.1326 18.7146C72.3487 19.3736 72.4154 20.0722 72.328 20.7601C72.328 24.1437 70.4941 26.0886 67.3305 26.0886H63.4941V15.4975H67.3305ZM65.1437 24.5908H67.1462C67.6418 24.6204 68.1377 24.5393 68.5979 24.3536C69.0581 24.1679 69.471 23.8823 69.8065 23.5174C70.142 23.1525 70.3917 22.7176 70.5374 22.2444C70.6831 21.7711 70.7212 21.2714 70.6488 20.7817C70.7159 20.2938 70.674 19.7972 70.5261 19.3275C70.3781 18.8577 70.1278 18.4264 69.7931 18.0644C69.4583 17.7024 69.0474 17.4187 68.5898 17.2337C68.1322 17.0487 67.6392 16.9669 67.1462 16.9942H65.1437V24.5908Z" fill="white"/>
<path d="M74.1912 22.0887C74.1408 21.5634 74.2011 21.0334 74.3681 20.5328C74.5352 20.0321 74.8053 19.5718 75.1612 19.1813C75.5171 18.7908 75.9509 18.4788 76.4348 18.2654C76.9187 18.0519 77.4419 17.9416 77.9711 17.9416C78.5002 17.9416 79.0235 18.0519 79.5074 18.2654C79.9913 18.4788 80.4251 18.7908 80.781 19.1813C81.1369 19.5718 81.407 20.0321 81.574 20.5328C81.7411 21.0334 81.8013 21.5634 81.7509 22.0887C81.8023 22.6145 81.7427 23.1451 81.5762 23.6466C81.4096 24.1481 81.1396 24.6093 80.7836 25.0005C80.4276 25.3918 79.9935 25.7044 79.5091 25.9183C79.0248 26.1323 78.5008 26.2428 77.9711 26.2428C77.4413 26.2428 76.9174 26.1323 76.433 25.9183C75.9487 25.7044 75.5145 25.3918 75.1585 25.0005C74.8026 24.6093 74.5326 24.1481 74.366 23.6466C74.1994 23.1451 74.1399 22.6145 74.1912 22.0887ZM80.1239 22.0887C80.1239 20.3561 79.3434 19.343 77.9737 19.343C76.5987 19.343 75.8252 20.3561 75.8252 22.0887C75.8252 23.8351 76.5988 24.8404 77.9737 24.8404C79.3435 24.8404 80.1239 23.8281 80.1239 22.0887H80.1239Z" fill="white"/>
<path d="M91.8004 26.0885H90.1595L88.5029 20.2018H88.3778L86.7282 26.0885H85.1029L82.8936 18.0958H84.498L85.9338 24.1947H86.052L87.6999 18.0958H89.2174L90.8652 24.1947H90.9904L92.4192 18.0958H94.0011L91.8004 26.0885Z" fill="white"/>
<path d="M95.8594 18.0958H97.3821V19.3655H97.5003C97.7008 18.9095 98.039 18.5272 98.4678 18.2719C98.8965 18.0167 99.3945 17.9011 99.8922 17.9415C100.282 17.9123 100.674 17.9709 101.038 18.1131C101.402 18.2552 101.73 18.4773 101.996 18.7628C102.262 19.0483 102.461 19.3899 102.577 19.7623C102.693 20.1348 102.724 20.5285 102.666 20.9143V26.0884H101.085V21.3104C101.085 20.0259 100.525 19.3872 99.355 19.3872C99.0902 19.3749 98.8259 19.4198 98.5802 19.5189C98.3344 19.618 98.1131 19.7689 97.9313 19.9613C97.7495 20.1537 97.6116 20.383 97.527 20.6335C97.4424 20.884 97.4131 21.1498 97.4412 21.4126V26.0885H95.8594L95.8594 18.0958Z" fill="white"/>
<path d="M105.187 14.9756H106.769V26.0885H105.187V14.9756Z" fill="white"/>
<path d="M108.967 22.0887C108.917 21.5634 108.977 21.0334 109.144 20.5327C109.311 20.032 109.581 19.5717 109.937 19.1812C110.293 18.7907 110.727 18.4787 111.211 18.2652C111.695 18.0517 112.218 17.9415 112.747 17.9415C113.277 17.9415 113.8 18.0517 114.284 18.2652C114.768 18.4787 115.202 18.7907 115.557 19.1812C115.913 19.5717 116.184 20.032 116.351 20.5327C116.518 21.0334 116.578 21.5634 116.528 22.0887C116.579 22.6145 116.519 23.1452 116.353 23.6467C116.186 24.1482 115.916 24.6093 115.56 25.0006C115.204 25.3918 114.77 25.7044 114.285 25.9183C113.801 26.1323 113.277 26.2428 112.747 26.2428C112.218 26.2428 111.694 26.1323 111.209 25.9183C110.725 25.7044 110.291 25.3918 109.935 25.0006C109.579 24.6093 109.309 24.1482 109.142 23.6467C108.975 23.1452 108.916 22.6145 108.967 22.0887ZM114.9 22.0887C114.9 20.3562 114.119 19.343 112.75 19.343C111.375 19.343 110.601 20.3562 110.601 22.0887C110.601 23.8351 111.375 24.8405 112.75 24.8405C114.119 24.8405 114.9 23.8282 114.9 22.0887H114.9Z" fill="white"/>
<path d="M118.193 23.8281C118.193 22.3894 119.267 21.56 121.174 21.4421L123.345 21.3173V20.6274C123.345 19.7833 122.785 19.3066 121.704 19.3066C120.821 19.3066 120.209 19.6299 120.034 20.1949H118.502C118.664 18.8221 119.959 17.9415 121.777 17.9415C123.787 17.9415 124.92 18.9391 124.92 20.6274V26.0885H123.397V24.9653H123.272C123.018 25.3682 122.661 25.6966 122.238 25.9171C121.815 26.1376 121.341 26.2422 120.865 26.2202C120.528 26.2551 120.188 26.2193 119.866 26.1151C119.545 26.0109 119.248 25.8406 118.997 25.6153C118.745 25.3899 118.543 25.1144 118.405 24.8066C118.266 24.4988 118.194 24.1655 118.193 23.8281ZM123.345 23.1452V22.477L121.388 22.6018C120.284 22.6754 119.783 23.0498 119.783 23.7545C119.783 24.4738 120.409 24.8924 121.27 24.8924C121.522 24.9179 121.776 24.8925 122.019 24.8178C122.261 24.7431 122.485 24.6206 122.679 24.4575C122.872 24.2945 123.031 24.0943 123.146 23.8689C123.26 23.6434 123.328 23.3973 123.345 23.1452Z" fill="white"/>
<path d="M126.999 22.0887C126.999 19.5631 128.301 17.9632 130.326 17.9632C130.827 17.9402 131.324 18.0598 131.759 18.3081C132.195 18.5564 132.55 18.9232 132.784 19.3654H132.902V14.9756H134.484V26.0885H132.968V24.8257H132.843C132.591 25.265 132.223 25.6271 131.78 25.8729C131.336 26.1187 130.833 26.2388 130.326 26.2202C128.287 26.2203 126.999 24.6203 126.999 22.0887ZM128.633 22.0887C128.633 23.7839 129.434 24.8041 130.775 24.8041C132.108 24.8041 132.932 23.7692 132.932 22.0956C132.932 20.4298 132.099 19.3802 130.775 19.3802C129.443 19.3802 128.633 20.4073 128.633 22.0887H128.633Z" fill="white"/>
<path d="M141.028 22.0887C140.978 21.5634 141.038 21.0334 141.205 20.5328C141.372 20.0321 141.642 19.5718 141.998 19.1813C142.354 18.7908 142.788 18.4788 143.272 18.2654C143.756 18.0519 144.279 17.9416 144.808 17.9416C145.337 17.9416 145.86 18.0519 146.344 18.2654C146.828 18.4788 147.262 18.7908 147.618 19.1813C147.974 19.5718 148.244 20.0321 148.411 20.5328C148.578 21.0334 148.638 21.5634 148.588 22.0887C148.639 22.6145 148.58 23.1451 148.413 23.6466C148.246 24.1481 147.977 24.6093 147.621 25.0005C147.265 25.3918 146.83 25.7044 146.346 25.9183C145.862 26.1323 145.338 26.2428 144.808 26.2428C144.278 26.2428 143.754 26.1323 143.27 25.9183C142.786 25.7044 142.351 25.3918 141.995 25.0005C141.639 24.6093 141.37 24.1481 141.203 23.6466C141.036 23.1451 140.977 22.6145 141.028 22.0887ZM146.961 22.0887C146.961 20.3561 146.18 19.343 144.811 19.343C143.436 19.343 142.662 20.3561 142.662 22.0887C142.662 23.8351 143.436 24.8404 144.811 24.8404C146.18 24.8404 146.961 23.8281 146.961 22.0887Z" fill="white"/>
<path d="M150.71 18.0958H152.233V19.3655H152.351C152.552 18.9095 152.89 18.5272 153.319 18.2719C153.748 18.0167 154.246 17.9011 154.743 17.9415C155.133 17.9123 155.525 17.9709 155.889 18.1131C156.253 18.2552 156.581 18.4773 156.847 18.7628C157.113 19.0483 157.312 19.3899 157.428 19.7623C157.544 20.1348 157.575 20.5285 157.517 20.9143V26.0884H155.936V21.3104C155.936 20.0259 155.376 19.3872 154.206 19.3872C153.941 19.3749 153.677 19.4198 153.431 19.5189C153.186 19.618 152.964 19.7689 152.782 19.9613C152.601 20.1537 152.463 20.383 152.378 20.6335C152.293 20.884 152.264 21.1498 152.292 21.4126V26.0885H150.71V18.0958Z" fill="white"/>
<path d="M166.456 16.1058V18.1322H168.193V19.4608H166.456V23.5707C166.456 24.408 166.802 24.7746 167.589 24.7746C167.791 24.7739 167.992 24.7618 168.193 24.7382V26.0521C167.909 26.1027 167.621 26.1297 167.332 26.1327C165.573 26.1327 164.873 25.5156 164.873 23.9746V19.4608H163.6V18.1321H164.873V16.1058H166.456Z" fill="white"/>
<path d="M170.353 14.9756H171.921V19.3802H172.046C172.256 18.9199 172.604 18.5355 173.041 18.2793C173.479 18.023 173.984 17.9075 174.49 17.9484C174.878 17.9274 175.266 17.992 175.626 18.1376C175.986 18.2832 176.309 18.5063 176.573 18.7909C176.837 19.0755 177.034 19.4146 177.151 19.784C177.268 20.1535 177.302 20.5441 177.25 20.9281V26.0885H175.667V21.3173C175.667 20.0406 175.071 19.3941 173.953 19.3941C173.681 19.3718 173.408 19.4091 173.152 19.5033C172.896 19.5974 172.664 19.7462 172.471 19.9392C172.279 20.1323 172.132 20.3648 172.039 20.6207C171.946 20.8765 171.911 21.1495 171.935 21.4204V26.0884H170.353L170.353 14.9756Z" fill="white"/>
<path d="M186.473 23.9304C186.259 24.6609 185.793 25.2927 185.158 25.7155C184.523 26.1382 183.759 26.3248 183 26.2427C182.472 26.2566 181.948 26.1558 181.462 25.9472C180.977 25.7386 180.544 25.4272 180.191 25.0347C179.839 24.6421 179.577 24.1779 179.422 23.6741C179.268 23.1703 179.226 22.6391 179.298 22.1173C179.228 21.5938 179.271 21.0615 179.425 20.5562C179.579 20.0509 179.84 19.5845 180.19 19.1885C180.541 18.7926 180.972 18.4763 181.456 18.2612C181.939 18.046 182.464 17.937 182.993 17.9415C185.224 17.9415 186.569 19.4609 186.569 21.9708V22.5212H180.909V22.6096C180.884 22.9029 180.921 23.1981 181.018 23.4763C181.114 23.7546 181.268 24.0097 181.469 24.2252C181.67 24.4408 181.914 24.6122 182.185 24.7282C182.456 24.8443 182.749 24.9026 183.044 24.8993C183.422 24.9446 183.806 24.8767 184.145 24.7041C184.485 24.5316 184.765 24.2622 184.951 23.9303L186.473 23.9304ZM180.909 21.3546H184.958C184.978 21.0863 184.941 20.8169 184.85 20.5635C184.76 20.3102 184.617 20.0786 184.431 19.8836C184.245 19.6886 184.02 19.5345 183.771 19.4313C183.522 19.328 183.254 19.2779 182.985 19.284C182.711 19.2806 182.44 19.3318 182.186 19.4347C181.933 19.5375 181.703 19.6899 181.509 19.8829C181.316 20.0759 181.163 20.3055 181.06 20.5582C180.957 20.811 180.906 21.0818 180.909 21.3546H180.909Z" fill="white"/>
</svg>
