<svg width="30" height="30" viewBox="0 0 30 30" fill="none" xmlns="http://www.w3.org/2000/svg">
<path d="M15 0.375C12.1075 0.375 9.27986 1.23274 6.87479 2.83976C4.46972 4.44677 2.5952 6.73089 1.48827 9.40325C0.381337 12.0756 0.091713 15.0162 0.656022 17.8532C1.22033 20.6902 2.61323 23.2961 4.65857 25.3414C6.70391 27.3868 9.30984 28.7797 12.1468 29.344C14.9838 29.9083 17.9244 29.6187 20.5968 28.5117C23.2691 27.4048 25.5532 25.5303 27.1602 23.1252C28.7673 20.7201 29.625 17.8926 29.625 15C29.6176 11.1235 28.0743 7.40788 25.3332 4.66677C22.5921 1.92566 18.8765 0.382433 15 0.375ZM20.8922 14.0719L15.8297 19.6969C15.7243 19.812 15.5961 19.9039 15.4533 19.9668C15.3104 20.0296 15.1561 20.0621 15 20.0621C14.8439 20.0621 14.6896 20.0296 14.5467 19.9668C14.4039 19.9039 14.2757 19.812 14.1703 19.6969L9.10782 14.0719C8.91397 13.8506 8.81447 13.5623 8.83066 13.2686C8.84684 12.9749 8.97741 12.6992 9.1944 12.5006C9.41138 12.302 9.69753 12.1963 9.99151 12.2061C10.2855 12.2159 10.5639 12.3405 10.7672 12.5531L15 17.25L19.2328 12.5531C19.3315 12.4405 19.4517 12.3487 19.5864 12.2831C19.7211 12.2175 19.8675 12.1795 20.0171 12.1712C20.1666 12.163 20.3163 12.1847 20.4574 12.2351C20.5984 12.2855 20.728 12.3635 20.8385 12.4647C20.949 12.5658 21.0382 12.688 21.1008 12.824C21.1635 12.9601 21.1983 13.1073 21.2033 13.257C21.2083 13.4067 21.1834 13.5559 21.13 13.6958C21.0765 13.8357 20.9957 13.9636 20.8922 14.0719Z" fill="url(#paint0_linear_1079_332)"/>
<defs>
<linearGradient id="paint0_linear_1079_332" x1="1.24554" y1="15" x2="28.5804" y2="15" gradientUnits="userSpaceOnUse">
<stop stop-color="#FFD426"/>
<stop offset="1" stop-color="#3CAF47"/>
</linearGradient>
</defs>
</svg>
