<svg width="30" height="30" viewBox="0 0 30 30" fill="none" xmlns="http://www.w3.org/2000/svg">
<path d="M15 0.375C12.1075 0.375 9.27986 1.23274 6.87479 2.83976C4.46972 4.44677 2.5952 6.73089 1.48827 9.40325C0.381337 12.0756 0.091713 15.0162 0.656022 17.8532C1.22033 20.6902 2.61323 23.2961 4.65857 25.3414C6.70391 27.3868 9.30984 28.7797 12.1468 29.344C14.9838 29.9083 17.9244 29.6187 20.5968 28.5117C23.2691 27.4048 25.5532 25.5303 27.1602 23.1252C28.7673 20.7201 29.625 17.8926 29.625 15C29.6176 11.1235 28.0743 7.40788 25.3332 4.66677C22.5921 1.92566 18.8765 0.382433 15 0.375ZM20.8219 18.0797C20.6131 18.2673 20.3431 18.3722 20.0625 18.375C19.9063 18.3758 19.7516 18.3437 19.6087 18.2807C19.4657 18.2177 19.3376 18.1252 19.2328 18.0094L15 13.3125L10.7672 18.0094C10.5639 18.222 10.2855 18.3466 9.99151 18.3564C9.69753 18.3662 9.41138 18.2605 9.1944 18.0619C8.97741 17.8633 8.84684 17.5876 8.83066 17.2939C8.81447 17.0002 8.91397 16.7119 9.10782 16.4906L14.1703 10.8656C14.2789 10.7559 14.4081 10.6688 14.5505 10.6094C14.6929 10.55 14.8457 10.5194 15 10.5194C15.1543 10.5194 15.3071 10.55 15.4495 10.6094C15.5919 10.6688 15.7212 10.7559 15.8297 10.8656L20.8922 16.4906C21.0935 16.7107 21.1992 17.0017 21.186 17.2997C21.1728 17.5977 21.0419 17.8783 20.8219 18.0797Z" fill="url(#paint0_linear_1079_349)"/>
<defs>
<linearGradient id="paint0_linear_1079_349" x1="1.24554" y1="15" x2="28.5804" y2="15" gradientUnits="userSpaceOnUse">
<stop stop-color="#FFD426"/>
<stop offset="1" stop-color="#3CAF47"/>
</linearGradient>
</defs>
</svg>
