<svg width="240" height="72" viewBox="0 0 240 72" fill="none" xmlns="http://www.w3.org/2000/svg">
<g clip-path="url(#clip0_396_16849)">
<path d="M231.111 0H8.88889C3.97969 0 0 3.97969 0 8.88889V62.2222C0 67.1314 3.97969 71.1111 8.88889 71.1111H231.111C236.02 71.1111 240 67.1314 240 62.2222V8.88889C240 3.97969 236.02 0 231.111 0Z" fill="black"/>
<path d="M231.111 1.42222C233.091 1.42222 234.991 2.20889 236.391 3.60916C237.791 5.00943 238.578 6.90861 238.578 8.88889V62.2222C238.578 64.2025 237.791 66.1017 236.391 67.502C234.991 68.9022 233.091 69.6889 231.111 69.6889H8.88889C6.90861 69.6889 5.00943 68.9022 3.60916 67.502C2.20889 66.1017 1.42222 64.2025 1.42222 62.2222V8.88889C1.42222 6.90861 2.20889 5.00943 3.60916 3.60916C5.00943 2.20889 6.90861 1.42222 8.88889 1.42222H231.111ZM231.111 0H8.88889C6.53141 0 4.27049 0.936505 2.6035 2.6035C0.936505 4.27049 0 6.53141 0 8.88889V62.2222C0 64.5797 0.936505 66.8406 2.6035 68.5076C4.27049 70.1746 6.53141 71.1111 8.88889 71.1111H231.111C233.469 71.1111 235.73 70.1746 237.397 68.5076C239.064 66.8406 240 64.5797 240 62.2222V8.88889C240 6.53141 239.064 4.27049 237.397 2.6035C235.73 0.936505 233.469 0 231.111 0Z" fill="#A6A6A6"/>
<path d="M84.3019 18.2044C84.3311 18.8564 84.228 19.5075 83.9989 20.1186C83.7697 20.7296 83.4193 21.288 82.9686 21.76C82.4636 22.2814 81.8541 22.6903 81.1801 22.9599C80.5061 23.2295 79.7828 23.3537 79.0575 23.3244C78.328 23.3407 77.6029 23.2071 76.9271 22.9319C76.2513 22.6567 75.6392 22.2457 75.1286 21.7244C74.0927 20.6648 73.5127 19.2418 73.5127 17.76C73.5127 16.2781 74.0927 14.8551 75.1286 13.7955C75.9206 13.0216 76.9237 12.4991 78.0117 12.2935C79.0998 12.0879 80.2244 12.2084 81.2442 12.64C81.8852 12.9035 82.457 13.3111 82.9153 13.8311L81.9731 14.7733C81.62 14.348 81.1727 14.0109 80.6666 13.7887C80.1605 13.5665 79.6095 13.4654 79.0575 13.4933C78.3606 13.4981 77.6756 13.6736 77.0622 14.0043C76.4488 14.335 75.9257 14.8109 75.5387 15.3904C75.1517 15.97 74.9126 16.6355 74.8422 17.3288C74.7718 18.0221 74.8722 18.722 75.1348 19.3675C75.3974 20.0131 75.8141 20.5844 76.3485 21.0317C76.8828 21.479 77.5186 21.7886 78.2003 21.9334C78.8819 22.0782 79.5887 22.0539 80.2588 21.8625C80.9288 21.6711 81.5418 21.3185 82.0442 20.8355C82.5872 20.2402 82.9021 19.4719 82.9331 18.6666H79.0575V17.3866H84.2308C84.2713 17.6575 84.2951 17.9306 84.3019 18.2044Z" fill="white" stroke="white" stroke-width="0.411304" stroke-miterlimit="10"/>
<path d="M92.444 13.76H87.644V17.1378H92.0173V18.4178H87.644V21.7956H92.444V23.1111H86.2573V12.4444H92.444V13.76Z" fill="white" stroke="white" stroke-width="0.411304" stroke-miterlimit="10"/>
<path d="M98.276 23.1111H96.9071V13.76H93.9204V12.4444H101.334V13.76H98.276V23.1111Z" fill="white" stroke="white" stroke-width="0.411304" stroke-miterlimit="10"/>
<path d="M106.56 23.1111V12.4444H107.928V23.1111H106.56Z" fill="white" stroke="white" stroke-width="0.411304" stroke-miterlimit="10"/>
<path d="M114.009 23.1111H112.64V13.76H109.653V12.4444H116.978V13.76H114.009V23.1111Z" fill="white" stroke="white" stroke-width="0.411304" stroke-miterlimit="10"/>
<path d="M130.862 21.7245C130.349 22.2383 129.739 22.646 129.068 22.9241C128.397 23.2023 127.678 23.3454 126.951 23.3454C126.225 23.3454 125.506 23.2023 124.834 22.9241C124.163 22.646 123.554 22.2383 123.04 21.7245C122.035 20.6561 121.476 19.2446 121.476 17.7778C121.476 16.311 122.035 14.8995 123.04 13.8311C123.543 13.3028 124.15 12.8858 124.824 12.6071C125.498 12.3284 126.222 12.1943 126.951 12.2133C127.679 12.2018 128.402 12.3394 129.074 12.6177C129.747 12.8959 130.355 13.3088 130.862 13.8311C131.374 14.3511 131.775 14.9682 132.044 15.6461C132.313 16.324 132.443 17.0488 132.427 17.7778C132.45 18.5077 132.323 19.2346 132.054 19.9135C131.785 20.5924 131.379 21.2088 130.862 21.7245ZM124.054 20.8356C124.432 21.2193 124.883 21.5241 125.381 21.7321C125.878 21.9401 126.412 22.0472 126.951 22.0472C127.49 22.0472 128.024 21.9401 128.522 21.7321C129.019 21.5241 129.47 21.2193 129.849 20.8356C130.616 20.002 131.042 18.9106 131.042 17.7778C131.042 16.645 130.616 15.5536 129.849 14.72C129.47 14.3362 129.019 14.0315 128.522 13.8235C128.024 13.6155 127.49 13.5084 126.951 13.5084C126.412 13.5084 125.878 13.6155 125.381 13.8235C124.883 14.0315 124.432 14.3362 124.054 14.72C123.286 15.5536 122.861 16.645 122.861 17.7778C122.861 18.9106 123.286 20.002 124.054 20.8356Z" fill="white" stroke="white" stroke-width="0.411304" stroke-miterlimit="10"/>
<path d="M134.365 23.1111V12.4444H136.018L141.209 20.7467V18.6844V12.4444H142.578V23.1111H141.156L135.734 14.4178V16.4622V23.1111H134.365Z" fill="white" stroke="white" stroke-width="0.411304" stroke-miterlimit="10"/>
<path d="M121.138 38.6667C119.64 38.6702 118.177 39.1178 116.933 39.9529C115.69 40.788 114.722 41.973 114.152 43.3582C113.582 44.7434 113.436 46.2665 113.731 47.7349C114.027 49.2033 114.751 50.551 115.813 51.6077C116.875 52.6644 118.226 53.3825 119.696 53.6712C121.165 53.96 122.688 53.8065 124.07 53.23C125.453 52.6536 126.633 51.6801 127.462 50.4327C128.292 49.1853 128.732 47.7201 128.729 46.2222C128.743 45.223 128.557 44.2311 128.18 43.3055C127.803 42.3799 127.244 41.5396 126.536 40.8347C125.827 40.1297 124.984 39.5745 124.057 39.202C123.13 38.8295 122.137 38.6475 121.138 38.6667ZM121.138 50.8089C120.22 50.8731 119.304 50.6596 118.508 50.1962C117.713 49.7329 117.076 49.041 116.679 48.2106C116.282 47.3801 116.145 46.4496 116.284 45.5398C116.423 44.6301 116.833 43.7832 117.46 43.1094C118.086 42.4356 118.901 41.9659 119.799 41.7614C120.696 41.5569 121.634 41.6271 122.491 41.9628C123.348 42.2985 124.084 42.8843 124.604 43.6439C125.123 44.4035 125.402 45.3019 125.405 46.2222C125.433 46.8054 125.345 47.3883 125.144 47.9367C124.944 48.4852 124.636 48.9879 124.239 49.4154C123.841 49.8429 123.362 50.1864 122.829 50.4258C122.297 50.6651 121.722 50.7954 121.138 50.8089ZM104.569 38.6667C103.071 38.6702 101.608 39.1178 100.364 39.9529C99.121 40.788 98.1531 41.973 97.5831 43.3582C97.0132 44.7434 96.8668 46.2665 97.1624 47.7349C97.4581 49.2033 98.1826 50.551 99.2442 51.6077C100.306 52.6644 101.657 53.3825 103.127 53.6712C104.596 53.96 106.119 53.8065 107.501 53.23C108.884 52.6536 110.064 51.6801 110.894 50.4327C111.723 49.1853 112.164 47.7201 112.16 46.2222C112.175 45.223 111.988 44.2311 111.611 43.3055C111.234 42.3799 110.675 41.5396 109.967 40.8347C109.258 40.1297 108.416 39.5745 107.488 39.202C106.561 38.8295 105.568 38.6475 104.569 38.6667ZM104.569 50.8089C103.651 50.8731 102.735 50.6596 101.94 50.1962C101.144 49.7329 100.507 49.041 100.11 48.2106C99.7136 47.3801 99.5759 46.4496 99.715 45.5398C99.8542 44.6301 100.264 43.7832 100.891 43.1094C101.518 42.4356 102.333 41.9659 103.23 41.7614C104.127 41.5569 105.065 41.6271 105.922 41.9628C106.779 42.2985 107.515 42.8843 108.035 43.6439C108.554 44.4035 108.833 45.3019 108.836 46.2222C108.864 46.8054 108.776 47.3883 108.576 47.9367C108.375 48.4852 108.067 48.9879 107.67 49.4154C107.272 49.8429 106.793 50.1864 106.26 50.4258C105.728 50.6651 105.153 50.7954 104.569 50.8089ZM84.8712 40.9956V44.1956H92.5512C92.4308 45.7028 91.8042 47.125 90.7734 48.2311C90.003 49.016 89.0764 49.6305 88.0536 50.0347C87.0308 50.4389 85.9345 50.6239 84.8356 50.5778C82.5724 50.5778 80.402 49.6787 78.8016 48.0784C77.2013 46.4781 76.3023 44.3076 76.3023 42.0444C76.3023 39.7813 77.2013 37.6108 78.8016 36.0105C80.402 34.4102 82.5724 33.5111 84.8356 33.5111C87.0053 33.4788 89.1003 34.3028 90.6667 35.8044L92.9245 33.5467C91.8649 32.4987 90.6069 31.6727 89.224 31.1171C87.8411 30.5615 86.3613 30.2875 84.8712 30.3111C83.2907 30.2496 81.7141 30.5078 80.2358 31.0702C78.7576 31.6326 77.408 32.4876 76.2681 33.584C75.1281 34.6804 74.2213 35.9957 73.6018 37.451C72.9824 38.9063 72.6631 40.4717 72.6631 42.0533C72.6631 43.635 72.9824 45.2003 73.6018 46.6556C74.2213 48.1109 75.1281 49.4262 76.2681 50.5226C77.408 51.6191 78.7576 52.4741 80.2358 53.0365C81.7141 53.5989 83.2907 53.8571 84.8712 53.7956C86.3919 53.8563 87.9083 53.5947 89.3208 53.0278C90.7333 52.461 92.0098 51.6018 93.0667 50.5067C94.9336 48.4558 95.9284 45.7585 95.8401 42.9867C95.8464 42.3195 95.7929 41.6531 95.6801 40.9956H84.8712ZM165.422 43.4844C164.959 42.1204 164.092 40.9294 162.936 40.0691C161.781 39.2087 160.391 38.7197 158.951 38.6667C157.979 38.6648 157.016 38.8623 156.123 39.2472C155.23 39.632 154.425 40.1959 153.759 40.9041C153.092 41.6122 152.578 42.4495 152.248 43.3642C151.918 44.279 151.779 45.2517 151.84 46.2222C151.825 47.8451 152.335 49.4293 153.295 50.7382C154.254 52.0472 155.611 53.0107 157.163 53.4847C158.715 53.9587 160.379 53.9179 161.906 53.3684C163.433 52.8188 164.742 51.79 165.636 50.4356L163.058 48.6578C162.674 49.2983 162.129 49.8272 161.477 50.192C160.825 50.5569 160.089 50.745 159.342 50.7378C158.572 50.7696 157.81 50.5676 157.156 50.1583C156.502 49.749 155.988 49.1515 155.68 48.4444L165.796 44.2667L165.422 43.4844ZM155.111 46.0089C155.075 45.4567 155.15 44.9028 155.33 44.3798C155.511 43.8567 155.794 43.3749 156.163 42.9627C156.533 42.5505 156.98 42.216 157.48 41.979C157.98 41.742 158.523 41.6071 159.076 41.5822C159.648 41.5473 160.219 41.6821 160.715 41.9699C161.212 42.2577 161.612 42.6856 161.867 43.2L155.111 46.0089ZM146.898 53.3333H150.222V31.1111H146.898V53.3333ZM141.458 40.3556H141.333C140.837 39.79 140.224 39.3383 139.537 39.0315C138.849 38.7247 138.104 38.5699 137.351 38.5778C135.408 38.672 133.576 39.5101 132.235 40.9184C130.893 42.3267 130.145 44.1972 130.145 46.1422C130.145 48.0873 130.893 49.9578 132.235 51.3661C133.576 52.7744 135.408 53.6125 137.351 53.7067C138.105 53.7218 138.853 53.5703 139.541 53.263C140.229 52.9556 140.841 52.5001 141.333 51.9289H141.458V53.0133C141.458 55.9111 139.911 57.4578 137.422 57.4578C136.591 57.4395 135.784 57.1746 135.103 56.6966C134.423 56.2186 133.899 55.5492 133.6 54.7733L130.72 55.9644C131.253 57.3018 132.178 58.446 133.375 59.2459C134.572 60.0459 135.983 60.4638 137.422 60.4444C141.316 60.4444 144.533 58.1511 144.533 52.5689V39.1111H141.458V40.3556ZM137.636 50.8089C136.471 50.7363 135.378 50.2224 134.578 49.3718C133.779 48.5213 133.334 47.3982 133.334 46.2311C133.334 45.0641 133.779 43.9409 134.578 43.0904C135.378 42.2399 136.471 41.726 137.636 41.6533C138.205 41.6779 138.763 41.8167 139.278 42.0616C139.793 42.3064 140.253 42.6523 140.631 43.0785C141.009 43.5048 141.298 44.0028 141.479 44.5429C141.661 45.0829 141.732 45.654 141.689 46.2222C141.737 46.7923 141.67 47.3664 141.49 47.9096C141.31 48.4528 141.022 48.954 140.644 49.3827C140.265 49.8115 139.803 50.1589 139.286 50.4041C138.769 50.6492 138.207 50.7869 137.636 50.8089ZM180.996 31.1111H173.031V53.3333H176.356V44.9067H180.996C181.943 44.9747 182.894 44.8469 183.79 44.5311C184.686 44.2153 185.507 43.7183 186.203 43.0711C186.898 42.4239 187.453 41.6404 187.832 40.7695C188.211 39.8985 188.407 38.9588 188.407 38.0089C188.407 37.059 188.211 36.1192 187.832 35.2483C187.453 34.3773 186.898 33.5939 186.203 32.9467C185.507 32.2995 184.686 31.8025 183.79 31.4867C182.894 31.1709 181.943 31.043 180.996 31.1111ZM180.996 41.7778H176.356V34.2044H181.067C181.566 34.2044 182.061 34.3028 182.523 34.494C182.984 34.6852 183.404 34.9655 183.757 35.3187C184.11 35.672 184.39 36.0914 184.582 36.553C184.773 37.0146 184.871 37.5093 184.871 38.0089C184.871 38.5085 184.773 39.0032 184.582 39.4648C184.39 39.9264 184.11 40.3458 183.757 40.699C183.404 41.0523 182.984 41.3325 182.523 41.5237C182.061 41.7149 181.566 41.8133 181.067 41.8133L180.996 41.7778ZM201.511 38.5955C200.301 38.5209 199.095 38.8028 198.042 39.4062C196.99 40.0097 196.138 40.9084 195.591 41.9911L198.525 43.2178C198.821 42.6834 199.266 42.2462 199.805 41.9592C200.345 41.6721 200.956 41.5473 201.565 41.6C201.987 41.5507 202.414 41.586 202.822 41.7037C203.231 41.8214 203.611 42.0193 203.942 42.2857C204.273 42.5521 204.548 42.8818 204.75 43.2555C204.952 43.6292 205.078 44.0394 205.12 44.4622V44.6756C204.051 44.1136 202.861 43.8207 201.653 43.8222C198.489 43.8222 195.253 45.6 195.253 48.8356C195.285 49.5233 195.454 50.1977 195.751 50.8188C196.048 51.4398 196.467 51.9948 196.983 52.4509C197.498 52.9069 198.1 53.2546 198.753 53.4734C199.406 53.6922 200.096 53.7776 200.782 53.7244C201.617 53.7706 202.448 53.594 203.192 53.2129C203.935 52.8318 204.564 52.2598 205.013 51.5556H205.12V53.3333H208.32V44.7822C208.32 40.8889 205.369 38.6311 201.582 38.6311L201.511 38.5955ZM201.102 50.7733C200.018 50.7733 198.507 50.2222 198.507 48.8889C198.507 47.1111 200.391 46.5067 202.062 46.5067C203.118 46.4806 204.162 46.7385 205.085 47.2533C204.973 48.2188 204.515 49.1111 203.796 49.7648C203.077 50.4186 202.145 50.7895 201.173 50.8089L201.102 50.7733ZM219.982 39.1111L216.178 48.7467H216.071L212.125 39.1111H208.569L214.489 52.5867L211.111 60.0711H214.578L223.68 39.1111H219.982ZM190.116 53.3333H193.422V31.1111H190.116V53.3333Z" fill="white"/>
<path d="M18.5595 13.4044C17.9737 14.0971 17.6748 14.9875 17.724 15.8933V55.2178C17.6635 56.1251 17.9638 57.0196 18.5595 57.7067L18.684 57.8489L40.7106 35.8222V35.2889L18.684 13.28L18.5595 13.4044Z" fill="url(#paint0_linear_396_16849)"/>
<path d="M47.9998 43.1645L40.7109 35.8222V35.2889L47.9998 27.9467L48.1598 28.0534L56.8887 32.9956C59.3776 34.4 59.3776 36.7111 56.8887 38.1334L48.1954 43.0756L47.9998 43.1645Z" fill="url(#paint1_linear_396_16849)"/>
<path d="M48.2134 43.0578L40.7112 35.5555L18.5601 57.7067C19.0624 58.1538 19.7054 58.4111 20.3776 58.4338C21.0497 58.4565 21.7086 58.2433 22.2401 57.8311L48.2134 43.0578Z" fill="url(#paint2_linear_396_16849)"/>
<path d="M48.2134 28.0533L22.2401 13.2978C21.7121 12.8798 21.0537 12.6614 20.3806 12.6809C19.7076 12.7004 19.0629 12.9566 18.5601 13.4044L40.7112 35.5555L48.2134 28.0533Z" fill="url(#paint3_linear_396_16849)"/>
<path opacity="0.2" d="M48.0001 42.8978L22.2401 57.5645C21.728 57.951 21.1039 58.16 20.4623 58.16C19.8207 58.16 19.1966 57.951 18.6845 57.5645L18.5601 57.6889L18.6845 57.8311C19.1966 58.2176 19.8207 58.4267 20.4623 58.4267C21.1039 58.4267 21.728 58.2176 22.2401 57.8311L48.2134 43.0578L48.0001 42.8978Z" fill="black"/>
<path opacity="0.12" d="M18.56 57.4578C17.989 56.7527 17.7091 55.8559 17.7778 54.9511V55.2178C17.7173 56.1252 18.0176 57.0197 18.6133 57.7067L18.7378 57.5823L18.56 57.4578Z" fill="black"/>
<path opacity="0.12" d="M56.8889 37.8667L48 42.8978L48.16 43.0578L56.8889 38.1155C57.4041 37.8977 57.8511 37.5449 58.1827 37.0944C58.5144 36.6439 58.7184 36.1123 58.7733 35.5555C58.6622 36.0614 58.4337 36.5342 58.1064 36.9356C57.7791 37.337 57.3621 37.6559 56.8889 37.8667Z" fill="black"/>
<path opacity="0.25" d="M22.2402 13.5467L56.8891 33.2444C57.3622 33.4552 57.7793 33.7741 58.1066 34.1755C58.4339 34.577 58.6624 35.0497 58.7735 35.5556C58.7186 34.9988 58.5145 34.4672 58.1829 34.0167C57.8513 33.5662 57.4043 33.2134 56.8891 32.9956L22.2402 13.2978C19.7691 11.8756 17.7246 13.0489 17.7246 15.8933V16.16C17.7779 13.3156 19.7691 12.1422 22.2402 13.5467Z" fill="white"/>
</g>
<defs>
<linearGradient id="paint0_linear_396_16849" x1="38.7551" y1="15.4844" x2="8.92395" y2="45.3156" gradientUnits="userSpaceOnUse">
<stop stop-color="#00A0FF"/>
<stop offset="0.01" stop-color="#00A1FF"/>
<stop offset="0.26" stop-color="#00BEFF"/>
<stop offset="0.51" stop-color="#00D2FF"/>
<stop offset="0.76" stop-color="#00DFFF"/>
<stop offset="1" stop-color="#00E3FF"/>
</linearGradient>
<linearGradient id="paint1_linear_396_16849" x1="60.142" y1="35.5556" x2="17.1376" y2="35.5556" gradientUnits="userSpaceOnUse">
<stop stop-color="#FFE000"/>
<stop offset="0.41" stop-color="#FFBD00"/>
<stop offset="0.78" stop-color="#FFA500"/>
<stop offset="1" stop-color="#FF9C00"/>
</linearGradient>
<linearGradient id="paint2_linear_396_16849" x1="44.1423" y1="39.6444" x2="3.68004" y2="80.0889" gradientUnits="userSpaceOnUse">
<stop stop-color="#FF3A44"/>
<stop offset="1" stop-color="#C31162"/>
</linearGradient>
<linearGradient id="paint3_linear_396_16849" x1="12.9778" y1="0.31999" x2="31.0401" y2="18.3822" gradientUnits="userSpaceOnUse">
<stop stop-color="#32A071"/>
<stop offset="0.07" stop-color="#2DA771"/>
<stop offset="0.48" stop-color="#15CF74"/>
<stop offset="0.8" stop-color="#06E775"/>
<stop offset="1" stop-color="#00F076"/>
</linearGradient>
<clipPath id="clip0_396_16849">
<rect width="240" height="71.1111" fill="white"/>
</clipPath>
</defs>
</svg>
