<svg width="286" height="80" viewBox="0 0 286 80" fill="none" xmlns="http://www.w3.org/2000/svg">
<path d="M89.4525 34.41C87.9902 34.41 86.5552 34.2255 85.1475 33.8565C83.7398 33.4875 82.4552 32.934 81.2935 32.196C80.1318 31.458 79.1683 30.5355 78.403 29.4285C77.6513 28.3215 77.2003 27.0232 77.05 25.5335H83.1795C83.3845 26.4355 83.774 27.194 84.348 27.809C84.922 28.424 85.6463 28.8955 86.521 29.2235C87.3957 29.5515 88.366 29.7155 89.432 29.7155C90.5253 29.7155 91.523 29.5788 92.425 29.3055C93.327 29.0322 94.0513 28.6222 94.598 28.0755C95.1447 27.5152 95.418 26.8182 95.418 25.9845C95.418 25.2328 95.1925 24.6178 94.7415 24.1395C94.3042 23.6612 93.7097 23.2717 92.958 22.971C92.2063 22.6703 91.3522 22.4243 90.3955 22.233L85.2705 21.1875C83.0292 20.7638 81.2525 19.8755 79.9405 18.5225C78.6285 17.1558 77.952 15.3382 77.911 13.0695C77.8973 11.2108 78.3893 9.605 79.387 8.252C80.3983 6.88533 81.765 5.833 83.487 5.095C85.2227 4.357 87.1633 3.988 89.309 3.988C91.8647 3.988 94.0103 4.39116 95.746 5.1975C97.4953 5.99016 98.821 7.06983 99.723 8.4365C100.639 9.7895 101.11 11.2997 101.138 12.967H95.131C95.0217 11.9283 94.7073 11.1015 94.188 10.4865C93.6687 9.8715 92.999 9.42733 92.179 9.154C91.3727 8.88067 90.4502 8.744 89.4115 8.744C88.6188 8.744 87.8945 8.83283 87.2385 9.0105C86.5962 9.18816 86.0495 9.441 85.5985 9.769C85.1475 10.0833 84.799 10.4592 84.553 10.8965C84.307 11.3338 84.184 11.8258 84.184 12.3725C84.184 13.2335 84.471 13.9305 85.045 14.4635C85.619 14.9965 86.6918 15.4338 88.2635 15.7755L93.3475 16.821C95.1652 17.1763 96.607 17.7025 97.673 18.3995C98.7527 19.0965 99.559 19.8823 100.092 20.757C100.639 21.6317 100.994 22.5268 101.158 23.4425C101.336 24.3445 101.425 25.1782 101.425 25.9435C101.425 27.5425 100.919 28.9843 99.9075 30.269C98.9098 31.54 97.5158 32.5513 95.7255 33.303C93.9352 34.041 91.8442 34.41 89.4525 34.41ZM110.67 24.775C110.656 25.8547 110.827 26.7977 111.183 27.604C111.538 28.3967 112.05 29.0117 112.72 29.449C113.403 29.8727 114.223 30.0845 115.18 30.0845C116.205 30.0845 117.1 29.8658 117.866 29.4285C118.645 28.9912 119.184 28.2737 119.485 27.276H124.877C124.644 28.7793 124.043 30.064 123.073 31.13C122.116 32.196 120.954 33.0092 119.588 33.5695C118.221 34.1298 116.8 34.41 115.324 34.41C113.233 34.41 111.388 33.9727 109.789 33.098C108.203 32.2097 106.966 30.9592 106.078 29.3465C105.19 27.7338 104.746 25.8342 104.746 23.6475C104.746 21.5292 105.149 19.6227 105.955 17.928C106.761 16.2197 107.93 14.8735 109.461 13.8895C111.005 12.8918 112.857 12.393 115.016 12.393C117.175 12.393 118.986 12.8508 120.449 13.7665C121.925 14.6685 123.032 15.9327 123.77 17.559C124.521 19.1717 124.897 21.0372 124.897 23.1555V24.775H110.67ZM110.65 21.208H119.301C119.301 20.3607 119.143 19.5817 118.829 18.871C118.515 18.1603 118.036 17.6 117.394 17.19C116.765 16.78 115.973 16.575 115.016 16.575C114.087 16.575 113.294 16.8005 112.638 17.2515C111.996 17.6888 111.504 18.2628 111.162 18.9735C110.82 19.6842 110.65 20.429 110.65 21.208ZM135.818 34.369C134.26 34.369 133.023 34.1845 132.107 33.8155C131.192 33.4465 130.515 32.9613 130.078 32.36C129.64 31.745 129.36 31.0685 129.237 30.3305C129.114 29.5788 129.053 28.8203 129.053 28.055V3.537H134.916V27.317C134.916 28.096 135.08 28.7315 135.408 29.2235C135.749 29.7018 136.385 29.9957 137.314 30.105L138.319 30.1665V33.8565C137.909 33.9932 137.492 34.1093 137.068 34.205C136.645 34.3143 136.228 34.369 135.818 34.369ZM148.55 34.369C146.992 34.369 145.755 34.1845 144.84 33.8155C143.924 33.4465 143.247 32.9613 142.81 32.36C142.373 31.745 142.093 31.0685 141.97 30.3305C141.847 29.5788 141.785 28.8203 141.785 28.055V3.537H147.648V27.317C147.648 28.096 147.812 28.7315 148.14 29.2235C148.482 29.7018 149.117 29.9957 150.047 30.105L151.051 30.1665V33.8565C150.641 33.9932 150.224 34.1093 149.801 34.205C149.377 34.3143 148.96 34.369 148.55 34.369ZM164.565 34V4.357H175.471C177.63 4.357 179.564 4.73283 181.273 5.4845C182.981 6.2225 184.327 7.31583 185.311 8.7645C186.309 10.2132 186.808 11.983 186.808 14.074C186.808 16.042 186.37 17.723 185.496 19.117C184.621 20.511 183.391 21.577 181.806 22.315C180.234 23.053 178.382 23.422 176.25 23.422H170.592V34H164.565ZM170.531 18.789H176.086C177.589 18.789 178.819 18.3107 179.776 17.354C180.733 16.3837 181.211 15.1878 181.211 13.7665C181.211 12.2905 180.705 11.122 179.694 10.261C178.683 9.38633 177.453 8.949 176.004 8.949H170.531V18.789ZM190.553 34V3.537H196.498V15.8575C196.839 15.3655 197.27 14.8803 197.789 14.402C198.309 13.91 198.958 13.5 199.737 13.172C200.516 12.844 201.466 12.68 202.586 12.68C203.939 12.68 205.169 12.9465 206.276 13.4795C207.397 13.9988 208.292 14.7573 208.962 15.755C209.645 16.7527 209.987 17.969 209.987 19.404V34H203.98V20.2855C203.98 19.3288 203.632 18.5977 202.935 18.092C202.251 17.5727 201.418 17.313 200.434 17.313C199.791 17.313 199.17 17.4292 198.568 17.6615C197.967 17.8938 197.475 18.2492 197.092 18.7275C196.723 19.1922 196.539 19.773 196.539 20.47V34H190.553ZM223.958 34.41C221.881 34.41 220.07 33.9658 218.526 33.0775C216.995 32.1892 215.806 30.9318 214.959 29.3055C214.125 27.6792 213.708 25.7522 213.708 23.5245C213.708 21.2968 214.125 19.3493 214.959 17.682C215.806 16.0147 216.995 14.7163 218.526 13.787C220.07 12.8577 221.888 12.393 223.979 12.393C226.07 12.393 227.881 12.8508 229.411 13.7665C230.942 14.6685 232.124 15.9532 232.958 17.6205C233.792 19.2878 234.208 21.2558 234.208 23.5245C234.208 25.6565 233.798 27.5425 232.978 29.1825C232.172 30.8088 231.004 32.0867 229.473 33.016C227.956 33.9453 226.118 34.41 223.958 34.41ZM223.979 29.9615C225.031 29.9615 225.879 29.654 226.521 29.039C227.163 28.424 227.628 27.6177 227.915 26.62C228.216 25.6087 228.366 24.5085 228.366 23.3195C228.366 22.1988 228.229 21.1397 227.956 20.142C227.696 19.1443 227.245 18.338 226.603 17.723C225.961 17.108 225.086 16.8005 223.979 16.8005C222.927 16.8005 222.072 17.0943 221.416 17.682C220.774 18.256 220.303 19.0418 220.002 20.0395C219.701 21.0235 219.551 22.1168 219.551 23.3195C219.551 24.4265 219.688 25.4925 219.961 26.5175C220.234 27.5288 220.692 28.3557 221.334 28.998C221.977 29.6403 222.858 29.9615 223.979 29.9615ZM238.199 34V12.803H244.083V15.796C244.411 15.2767 244.834 14.7778 245.354 14.2995C245.887 13.8075 246.556 13.4043 247.363 13.09C248.169 12.7757 249.126 12.6185 250.233 12.6185C251.531 12.6185 252.741 12.8713 253.861 13.377C254.996 13.8827 255.911 14.6822 256.608 15.7755C257.305 16.8552 257.654 18.2697 257.654 20.019V34H251.668V20.757C251.668 19.609 251.326 18.748 250.643 18.174C249.959 17.6 249.126 17.313 248.142 17.313C247.486 17.313 246.85 17.4292 246.235 17.6615C245.634 17.8938 245.142 18.2423 244.759 18.707C244.377 19.1717 244.185 19.7457 244.185 20.429V34H238.199ZM267.423 24.775C267.409 25.8547 267.58 26.7977 267.935 27.604C268.291 28.3967 268.803 29.0117 269.473 29.449C270.156 29.8727 270.976 30.0845 271.933 30.0845C272.958 30.0845 273.853 29.8658 274.618 29.4285C275.397 28.9912 275.937 28.2737 276.238 27.276H281.629C281.397 28.7793 280.796 30.064 279.825 31.13C278.869 32.196 277.707 33.0092 276.34 33.5695C274.974 34.1298 273.552 34.41 272.076 34.41C269.985 34.41 268.14 33.9727 266.541 33.098C264.956 32.2097 263.719 30.9592 262.831 29.3465C261.943 27.7338 261.498 25.8342 261.498 23.6475C261.498 21.5292 261.902 19.6227 262.708 17.928C263.514 16.2197 264.683 14.8735 266.213 13.8895C267.758 12.8918 269.61 12.393 271.769 12.393C273.928 12.393 275.739 12.8508 277.201 13.7665C278.677 14.6685 279.784 15.9327 280.522 17.559C281.274 19.1717 281.65 21.0372 281.65 23.1555V24.775H267.423ZM267.402 21.208H276.053C276.053 20.3607 275.896 19.5817 275.582 18.871C275.268 18.1603 274.789 17.6 274.147 17.19C273.518 16.78 272.726 16.575 271.769 16.575C270.84 16.575 270.047 16.8005 269.391 17.2515C268.749 17.6888 268.257 18.2628 267.915 18.9735C267.573 19.6842 267.402 20.429 267.402 21.208Z" fill="#212B36"/>
<g clip-path="url(#clip0_396_16462)">
<path d="M19.3765 14.7004V5.72569C19.3765 5.72569 19.3765 3.03594 23.7402 3.9414C28.1038 4.84686 45.6103 12.0106 45.6103 12.0106C45.6103 12.0106 47.3506 12.0106 47.3506 15.6058V61.0652C47.3506 62.4234 46.7272 63.7017 45.6622 64.5007C42.6493 66.7909 35.7142 71.5046 25.4804 74.7803C25.4804 74.7803 19.3506 77.47 19.3506 72.996C19.3506 68.522 19.3506 36.245 19.3506 36.245L13.2207 32.6498V73.5553C13.2207 77.3635 16.4155 80.3728 20.1038 79.9734C20.935 79.8668 21.8441 79.6538 22.857 79.2809C29.2207 76.8309 44.3116 68.4154 46.9609 66.9507C47.3506 66.7377 47.7142 66.4447 48.0519 66.1252C48.8311 65.3262 49.9739 63.7284 49.9739 61.3582C49.9739 57.763 49.9739 14.727 49.9739 14.727C49.9739 14.727 49.9739 11.1318 43.8441 8.44207C38.9609 6.25831 29.0389 2.39679 25.2467 0.932079C23.948 0.426087 22.6233 0.133144 21.2467 0.0532506C18.5194 -0.133167 14.3895 0.106513 13.2726 3.03594V11.1052H8.02588L19.3765 14.7004Z" fill="url(#paint0_linear_396_16462)"/>
<path d="M0.155882 12.9161L32.5195 22.7696C32.5195 22.7696 35.1429 22.7696 35.1429 28.1491C35.1429 33.5286 35.1429 37.1238 35.1429 37.1238C35.1429 37.1238 24.6494 40.719 23.7663 33.5286C23.7663 33.5286 12.3896 32.6232 13.2728 24.5539C13.2728 24.5539 -1.61035 22.7696 0.155882 12.9161Z" fill="url(#paint1_linear_396_16462)"/>
<path d="M31.6364 67.5899L39.5066 63.9947C39.5066 63.9947 42.1299 64.9001 39.5066 66.6844C36.8832 68.4687 32.5195 69.3742 32.5195 69.3742C32.5195 69.3742 30.7533 69.4008 31.6364 67.5899Z" fill="url(#paint2_linear_396_16462)"/>
</g>
<path d="M86.56 62.33H78.76V69H76.91V54.54H78.76V60.7H86.56V54.54H88.41V69H86.56V62.33ZM95.6425 69.2C95.1025 69.1933 94.5925 69.1167 94.1125 68.97C93.6392 68.8167 93.2192 68.5933 92.8525 68.3C92.4858 68.0067 92.1958 67.6433 91.9825 67.21C91.7758 66.77 91.6725 66.26 91.6725 65.68V58.66H93.5225V65.49C93.5225 66.1633 93.7292 66.71 94.1425 67.13C94.5625 67.55 95.1925 67.76 96.0325 67.76C96.7925 67.76 97.4025 67.5633 97.8625 67.17C98.3292 66.77 98.5625 66.1767 98.5625 65.39V58.66H100.403V69H98.9325L98.7425 67.02C98.6158 67.54 98.3992 67.96 98.0925 68.28C97.7925 68.6 97.4292 68.8367 97.0025 68.99C96.5825 69.1367 96.1292 69.2067 95.6425 69.2ZM108.515 69.2C107.908 69.2 107.395 69.12 106.975 68.96C106.562 68.8 106.222 68.5967 105.955 68.35C105.688 68.0967 105.482 67.84 105.335 67.58C105.188 67.3133 105.082 67.08 105.015 66.88L104.815 69H103.405V54.14H105.265V60.3C105.352 60.1267 105.482 59.9367 105.655 59.73C105.835 59.5233 106.065 59.3233 106.345 59.13C106.625 58.9367 106.955 58.7767 107.335 58.65C107.722 58.5233 108.162 58.46 108.655 58.46C109.948 58.46 110.975 58.91 111.735 59.81C112.502 60.71 112.885 62.0367 112.885 63.79C112.885 64.8767 112.722 65.8267 112.395 66.64C112.068 67.4467 111.582 68.0767 110.935 68.53C110.288 68.9767 109.482 69.2 108.515 69.2ZM108.185 67.78C109.025 67.78 109.708 67.4567 110.235 66.81C110.762 66.1567 111.025 65.12 111.025 63.7C111.025 62.4933 110.778 61.56 110.285 60.9C109.798 60.2333 109.085 59.9 108.145 59.9C107.458 59.9 106.905 60.05 106.485 60.35C106.072 60.6433 105.765 61.0733 105.565 61.64C105.372 62.2067 105.272 62.8933 105.265 63.7C105.265 65.1467 105.488 66.19 105.935 66.83C106.388 67.4633 107.138 67.78 108.185 67.78ZM123.648 69.2C122.694 69.2 121.861 68.9967 121.148 68.59C120.434 68.1767 119.881 67.5733 119.488 66.78C119.094 65.9867 118.898 65.0167 118.898 63.87C118.898 62.79 119.081 61.8433 119.448 61.03C119.814 60.2167 120.351 59.5867 121.058 59.14C121.771 58.6867 122.634 58.46 123.648 58.46C124.601 58.46 125.428 58.67 126.128 59.09C126.834 59.5033 127.381 60.1133 127.768 60.92C128.154 61.7267 128.348 62.71 128.348 63.87C128.348 64.9233 128.168 65.85 127.808 66.65C127.454 67.45 126.928 68.0767 126.228 68.53C125.534 68.9767 124.674 69.2 123.648 69.2ZM123.648 67.74C124.268 67.74 124.791 67.5833 125.218 67.27C125.644 66.9567 125.968 66.5067 126.188 65.92C126.408 65.3333 126.518 64.6367 126.518 63.83C126.518 63.09 126.421 62.4267 126.228 61.84C126.034 61.2467 125.724 60.7767 125.298 60.43C124.878 60.0833 124.328 59.91 123.648 59.91C123.021 59.91 122.491 60.0667 122.058 60.38C121.624 60.6867 121.294 61.1333 121.068 61.72C120.848 62.3067 120.738 63.01 120.738 63.83C120.738 64.5567 120.838 65.2167 121.038 65.81C121.238 66.4033 121.551 66.8733 121.978 67.22C122.404 67.5667 122.961 67.74 123.648 67.74ZM136.198 58.66V60.01H133.688V69H131.828V60.01H129.648V58.66H131.828V57.06C131.828 56.24 132.038 55.6167 132.458 55.19C132.878 54.7567 133.505 54.54 134.338 54.54H136.288L136.298 55.85H134.748C134.328 55.85 134.041 55.9633 133.888 56.19C133.735 56.4167 133.658 56.76 133.658 57.22V58.66H136.198ZM143.473 69V54.54H148.363C149.396 54.54 150.316 54.7133 151.123 55.06C151.929 55.4067 152.563 55.92 153.023 56.6C153.489 57.28 153.723 58.1167 153.723 59.11C153.723 60.07 153.506 60.89 153.073 61.57C152.646 62.25 152.049 62.7667 151.283 63.12C150.516 63.4733 149.626 63.65 148.613 63.65H145.373V69H143.473ZM145.363 62.09H148.573C149.566 62.09 150.373 61.8133 150.993 61.26C151.613 60.7067 151.923 59.9533 151.923 59C151.923 58.04 151.603 57.3133 150.963 56.82C150.323 56.3267 149.496 56.08 148.483 56.08H145.363V62.09ZM155.827 69V54.14H157.627V60.18C157.8 59.8933 158.034 59.6267 158.327 59.38C158.62 59.1267 158.977 58.9233 159.397 58.77C159.817 58.61 160.304 58.53 160.857 58.53C161.53 58.53 162.14 58.6567 162.687 58.91C163.234 59.1567 163.667 59.51 163.987 59.97C164.307 60.43 164.467 60.9767 164.467 61.61V69H162.617V61.98C162.617 61.36 162.404 60.8833 161.977 60.55C161.557 60.21 161.007 60.04 160.327 60.04C159.867 60.04 159.434 60.1167 159.027 60.27C158.62 60.4167 158.29 60.6433 158.037 60.95C157.79 61.25 157.667 61.6333 157.667 62.1V69H155.827ZM171.46 69.2C170.507 69.2 169.674 68.9967 168.96 68.59C168.247 68.1767 167.694 67.5733 167.3 66.78C166.907 65.9867 166.71 65.0167 166.71 63.87C166.71 62.79 166.894 61.8433 167.26 61.03C167.627 60.2167 168.164 59.5867 168.87 59.14C169.584 58.6867 170.447 58.46 171.46 58.46C172.414 58.46 173.24 58.67 173.94 59.09C174.647 59.5033 175.194 60.1133 175.58 60.92C175.967 61.7267 176.16 62.71 176.16 63.87C176.16 64.9233 175.98 65.85 175.62 66.65C175.267 67.45 174.74 68.0767 174.04 68.53C173.347 68.9767 172.487 69.2 171.46 69.2ZM171.46 67.74C172.08 67.74 172.604 67.5833 173.03 67.27C173.457 66.9567 173.78 66.5067 174 65.92C174.22 65.3333 174.33 64.6367 174.33 63.83C174.33 63.09 174.234 62.4267 174.04 61.84C173.847 61.2467 173.537 60.7767 173.11 60.43C172.69 60.0833 172.14 59.91 171.46 59.91C170.834 59.91 170.304 60.0667 169.87 60.38C169.437 60.6867 169.107 61.1333 168.88 61.72C168.66 62.3067 168.55 63.01 168.55 63.83C168.55 64.5567 168.65 65.2167 168.85 65.81C169.05 66.4033 169.364 66.8733 169.79 67.22C170.217 67.5667 170.774 67.74 171.46 67.74ZM178.581 69V58.66H180.371V60.16C180.537 59.8733 180.767 59.6033 181.061 59.35C181.361 59.0967 181.721 58.8933 182.141 58.74C182.567 58.5867 183.057 58.51 183.611 58.51C184.264 58.51 184.864 58.64 185.411 58.9C185.964 59.16 186.404 59.5667 186.731 60.12C187.064 60.6667 187.231 61.3733 187.231 62.24V69H185.381V62.42C185.381 61.6133 185.167 61.0167 184.741 60.63C184.321 60.2367 183.774 60.04 183.101 60.04C182.634 60.04 182.197 60.1167 181.791 60.27C181.384 60.4167 181.054 60.6433 180.801 60.95C180.547 61.25 180.421 61.63 180.421 62.09V69H178.581ZM191.444 64.26C191.444 64.9133 191.55 65.5067 191.764 66.04C191.984 66.5667 192.314 66.9867 192.754 67.3C193.2 67.6133 193.757 67.77 194.424 67.77C195.084 67.77 195.65 67.6167 196.124 67.31C196.604 67.0033 196.91 66.56 197.044 65.98H198.794C198.667 66.68 198.387 67.27 197.954 67.75C197.52 68.23 196.997 68.5933 196.384 68.84C195.77 69.08 195.13 69.2 194.464 69.2C193.497 69.2 192.647 68.99 191.914 68.57C191.18 68.15 190.607 67.5467 190.194 66.76C189.78 65.9733 189.574 65.03 189.574 63.93C189.574 62.8433 189.76 61.89 190.134 61.07C190.507 60.25 191.047 59.61 191.754 59.15C192.467 58.69 193.324 58.46 194.324 58.46C195.297 58.46 196.12 58.67 196.794 59.09C197.467 59.51 197.977 60.1033 198.324 60.87C198.677 61.63 198.854 62.5333 198.854 63.58V64.26H191.444ZM191.454 63.01H197.074C197.074 62.4167 196.974 61.8833 196.774 61.41C196.574 60.93 196.267 60.5533 195.854 60.28C195.447 60 194.934 59.86 194.314 59.86C193.667 59.86 193.13 60.0167 192.704 60.33C192.284 60.6367 191.967 61.0333 191.754 61.52C191.547 62 191.447 62.4967 191.454 63.01ZM206.265 54.54C206.312 54.54 206.452 54.5433 206.685 54.55C206.925 54.55 207.215 54.55 207.555 54.55C207.895 54.5433 208.249 54.5433 208.615 54.55C208.982 54.55 209.319 54.5533 209.625 54.56C211.399 54.5867 212.835 54.8767 213.935 55.43C215.042 55.9767 215.852 56.7733 216.365 57.82C216.885 58.8667 217.145 60.1533 217.145 61.68C217.145 63.28 216.865 64.6233 216.305 65.71C215.752 66.7967 214.905 67.6167 213.765 68.17C212.632 68.7233 211.189 69 209.435 69H206.265V54.54ZM208.165 56.13V67.41H209.435C210.629 67.41 211.655 67.2267 212.515 66.86C213.375 66.4867 214.035 65.8833 214.495 65.05C214.962 64.2167 215.195 63.1033 215.195 61.71C215.195 60.3167 214.969 59.2133 214.515 58.4C214.069 57.5867 213.422 57.0067 212.575 56.66C211.729 56.3067 210.709 56.13 209.515 56.13H208.165ZM221.073 64.26C221.073 64.9133 221.179 65.5067 221.393 66.04C221.613 66.5667 221.943 66.9867 222.383 67.3C222.829 67.6133 223.386 67.77 224.053 67.77C224.713 67.77 225.279 67.6167 225.753 67.31C226.233 67.0033 226.539 66.56 226.673 65.98H228.423C228.296 66.68 228.016 67.27 227.583 67.75C227.149 68.23 226.626 68.5933 226.013 68.84C225.399 69.08 224.759 69.2 224.093 69.2C223.126 69.2 222.276 68.99 221.543 68.57C220.809 68.15 220.236 67.5467 219.823 66.76C219.409 65.9733 219.203 65.03 219.203 63.93C219.203 62.8433 219.389 61.89 219.763 61.07C220.136 60.25 220.676 59.61 221.383 59.15C222.096 58.69 222.953 58.46 223.953 58.46C224.926 58.46 225.749 58.67 226.423 59.09C227.096 59.51 227.606 60.1033 227.953 60.87C228.306 61.63 228.483 62.5333 228.483 63.58V64.26H221.073ZM221.083 63.01H226.703C226.703 62.4167 226.603 61.8833 226.403 61.41C226.203 60.93 225.896 60.5533 225.483 60.28C225.076 60 224.563 59.86 223.943 59.86C223.296 59.86 222.759 60.0167 222.333 60.33C221.913 60.6367 221.596 61.0333 221.383 61.52C221.176 62 221.076 62.4967 221.083 63.01ZM233.765 69.2C233.098 69.2 232.508 69.0833 231.995 68.85C231.482 68.61 231.078 68.2667 230.785 67.82C230.498 67.3733 230.355 66.8333 230.355 66.2C230.355 65.0533 230.755 64.2 231.555 63.64C232.355 63.08 233.638 62.78 235.405 62.74L237.255 62.69V61.88C237.255 61.2467 237.065 60.7467 236.685 60.38C236.305 60.0067 235.715 59.82 234.915 59.82C234.322 59.8267 233.798 59.9667 233.345 60.24C232.898 60.5133 232.608 60.96 232.475 61.58H230.845C230.885 60.9067 231.075 60.34 231.415 59.88C231.755 59.4133 232.228 59.06 232.835 58.82C233.448 58.58 234.172 58.46 235.005 58.46C235.905 58.46 236.652 58.5867 237.245 58.84C237.845 59.0933 238.292 59.4667 238.585 59.96C238.885 60.4533 239.035 61.06 239.035 61.78V69H237.455L237.325 67.06C236.925 67.8667 236.415 68.4267 235.795 68.74C235.182 69.0467 234.505 69.2 233.765 69.2ZM234.325 67.87C234.672 67.87 235.015 67.8067 235.355 67.68C235.702 67.5533 236.018 67.3833 236.305 67.17C236.592 66.95 236.818 66.7067 236.985 66.44C237.158 66.1667 237.248 65.8867 237.255 65.6V63.83L235.715 63.86C234.928 63.8733 234.268 63.9533 233.735 64.1C233.208 64.2467 232.812 64.4767 232.545 64.79C232.285 65.1033 232.155 65.5133 232.155 66.02C232.155 66.6 232.355 67.0533 232.755 67.38C233.162 67.7067 233.685 67.87 234.325 67.87ZM244.804 69.13C244.244 69.13 243.791 69.0533 243.444 68.9C243.104 68.7467 242.841 68.54 242.654 68.28C242.474 68.02 242.351 67.7233 242.284 67.39C242.224 67.05 242.194 66.7 242.194 66.34V54.14H244.014V66.16C244.014 66.68 244.114 67.07 244.314 67.33C244.521 67.59 244.807 67.7333 245.174 67.76L245.734 67.77V68.97C245.581 69.0167 245.421 69.0533 245.254 69.08C245.087 69.1133 244.937 69.13 244.804 69.13ZM250.112 58.66V69H248.322V58.66H250.112ZM250.152 54.55V56.47H248.262V54.55H250.152ZM253.483 69V58.66H255.273V60.16C255.44 59.8733 255.67 59.6033 255.963 59.35C256.263 59.0967 256.623 58.8933 257.043 58.74C257.47 58.5867 257.96 58.51 258.513 58.51C259.166 58.51 259.766 58.64 260.313 58.9C260.866 59.16 261.306 59.5667 261.633 60.12C261.966 60.6667 262.133 61.3733 262.133 62.24V69H260.283V62.42C260.283 61.6133 260.07 61.0167 259.643 60.63C259.223 60.2367 258.676 60.04 258.003 60.04C257.536 60.04 257.1 60.1167 256.693 60.27C256.286 60.4167 255.956 60.6433 255.703 60.95C255.45 61.25 255.323 61.63 255.323 62.09V69H253.483ZM269.386 72.42C267.759 72.42 266.493 72.1833 265.586 71.71C264.686 71.2433 264.236 70.5733 264.236 69.7C264.236 69.3267 264.323 69.01 264.496 68.75C264.669 68.4833 264.876 68.2633 265.116 68.09C265.356 67.9167 265.579 67.78 265.786 67.68C265.993 67.5733 266.126 67.4967 266.186 67.45C266.073 67.3833 265.929 67.3 265.756 67.2C265.589 67.1 265.443 66.9667 265.316 66.8C265.189 66.6333 265.126 66.4167 265.126 66.15C265.126 65.8233 265.279 65.5233 265.586 65.25C265.893 64.9767 266.346 64.7733 266.946 64.64C266.339 64.3333 265.866 63.9267 265.526 63.42C265.186 62.9133 265.016 62.3633 265.016 61.77C265.016 61.1033 265.196 60.5233 265.556 60.03C265.923 59.5367 266.443 59.16 267.116 58.9C267.789 58.6333 268.589 58.5 269.516 58.5C270.189 58.5 270.756 58.58 271.216 58.74C271.676 58.8933 272.103 59.1133 272.496 59.4C272.603 59.3533 272.769 59.2833 272.996 59.19C273.229 59.09 273.486 58.9833 273.766 58.87C274.046 58.7567 274.306 58.65 274.546 58.55C274.793 58.4433 274.989 58.3633 275.136 58.31L275.126 60.02L273.316 60.36C273.416 60.5733 273.496 60.8067 273.556 61.06C273.623 61.3133 273.656 61.55 273.656 61.77C273.656 62.3767 273.496 62.9267 273.176 63.42C272.863 63.9133 272.386 64.3067 271.746 64.6C271.106 64.8933 270.306 65.04 269.346 65.04C269.266 65.04 269.163 65.04 269.036 65.04C268.916 65.0333 268.813 65.0267 268.726 65.02C268.019 65.04 267.533 65.12 267.266 65.26C266.999 65.3933 266.866 65.5433 266.866 65.71C266.866 65.9033 267.016 66.0367 267.316 66.11C267.616 66.1833 268.126 66.2467 268.846 66.3C269.106 66.3133 269.426 66.33 269.806 66.35C270.193 66.37 270.619 66.3967 271.086 66.43C272.173 66.4967 273.009 66.7733 273.596 67.26C274.183 67.7467 274.476 68.4033 274.476 69.23C274.476 70.17 274.056 70.9367 273.216 71.53C272.376 72.1233 271.099 72.42 269.386 72.42ZM269.716 71.23C270.669 71.23 271.399 71.0867 271.906 70.8C272.413 70.5133 272.666 70.08 272.666 69.5C272.666 69.0867 272.509 68.75 272.196 68.49C271.889 68.2233 271.419 68.07 270.786 68.03L267.886 67.84C267.626 67.8267 267.356 67.8933 267.076 68.04C266.796 68.18 266.556 68.3767 266.356 68.63C266.163 68.8833 266.066 69.17 266.066 69.49C266.066 70.0367 266.363 70.4633 266.956 70.77C267.556 71.0767 268.476 71.23 269.716 71.23ZM269.396 63.85C270.143 63.85 270.743 63.6767 271.196 63.33C271.656 62.9833 271.886 62.47 271.886 61.79C271.886 61.09 271.656 60.5567 271.196 60.19C270.743 59.8233 270.143 59.64 269.396 59.64C268.643 59.64 268.033 59.8267 267.566 60.2C267.106 60.5667 266.876 61.0967 266.876 61.79C266.876 62.4433 267.096 62.95 267.536 63.31C267.976 63.67 268.596 63.85 269.396 63.85ZM280.747 69.2C280.027 69.2 279.357 69.09 278.737 68.87C278.124 68.6433 277.614 68.2933 277.207 67.82C276.8 67.34 276.544 66.73 276.437 65.99H278.117C278.21 66.3967 278.377 66.7367 278.617 67.01C278.864 67.2767 279.17 67.48 279.537 67.62C279.904 67.7533 280.304 67.82 280.737 67.82C281.43 67.82 281.99 67.69 282.417 67.43C282.844 67.17 283.057 66.77 283.057 66.23C283.057 65.85 282.944 65.5467 282.717 65.32C282.497 65.0867 282.154 64.9167 281.687 64.81L279.547 64.28C278.714 64.08 278.047 63.7667 277.547 63.34C277.047 62.9133 276.797 62.3167 276.797 61.55C276.79 60.9433 276.934 60.41 277.227 59.95C277.52 59.49 277.96 59.1267 278.547 58.86C279.134 58.5933 279.864 58.46 280.737 58.46C281.857 58.46 282.76 58.7133 283.447 59.22C284.14 59.72 284.5 60.4567 284.527 61.43H282.897C282.83 60.9367 282.607 60.5467 282.227 60.26C281.854 59.9667 281.35 59.82 280.717 59.82C280.057 59.82 279.52 59.9533 279.107 60.22C278.694 60.48 278.487 60.8867 278.487 61.44C278.487 61.8067 278.634 62.0967 278.927 62.31C279.22 62.5167 279.654 62.69 280.227 62.83L282.297 63.35C282.777 63.4767 283.17 63.6433 283.477 63.85C283.79 64.0567 284.037 64.2867 284.217 64.54C284.404 64.7933 284.534 65.06 284.607 65.34C284.687 65.6133 284.727 65.8767 284.727 66.13C284.727 66.7633 284.567 67.31 284.247 67.77C283.934 68.2233 283.48 68.5767 282.887 68.83C282.3 69.0767 281.587 69.2 280.747 69.2Z" fill="#464646"/>
<defs>
<linearGradient id="paint0_linear_396_16462" x1="8.01352" y1="39.9975" x2="49.9898" y2="39.9975" gradientUnits="userSpaceOnUse">
<stop stop-color="#FFD426"/>
<stop offset="1" stop-color="#3CAF47"/>
</linearGradient>
<linearGradient id="paint1_linear_396_16462" x1="3.75452e-05" y1="25.4599" x2="35.1233" y2="25.4599" gradientUnits="userSpaceOnUse">
<stop stop-color="#FFD426"/>
<stop offset="1" stop-color="#3CAF47"/>
</linearGradient>
<linearGradient id="paint2_linear_396_16462" x1="31.3805" y1="66.7049" x2="40.6619" y2="66.7049" gradientUnits="userSpaceOnUse">
<stop stop-color="#FFD426"/>
<stop offset="1" stop-color="#3CAF47"/>
</linearGradient>
<clipPath id="clip0_396_16462">
<rect width="50" height="80" fill="white"/>
</clipPath>
</defs>
</svg>
