<svg width="419" height="419" viewBox="0 0 419 419" fill="none" xmlns="http://www.w3.org/2000/svg">
<path d="M157.944 324.603C148.019 340.73 128.361 364.969 95.5341 372.698L103.073 347.887C103.073 347.887 73.967 367.259 46.0068 372.698C51.4464 344.643 70.8187 315.632 70.8187 315.632L46.0068 323.171C53.736 290.344 77.975 270.686 94.1025 260.761L162.82 246.332L157.944 324.603Z" fill="#F2C94C"/>
<path d="M266.511 390.593C230.656 426.448 173.248 427.584 136.034 394.015C150.724 392.458 166.56 380.773 168.776 360.211C169.699 351.671 168.262 341.592 163.416 330.071L88.6326 255.287C77.1112 250.441 67.0329 249.005 58.4923 249.928C37.9303 252.143 26.2455 267.979 24.6889 282.669C-8.87917 245.456 -7.74501 188.048 28.111 152.191C49.3136 130.989 78.0705 121.931 105.725 125.021C118.405 126.439 130.85 130.398 142.232 136.928L281.774 276.47C288.305 287.852 292.27 300.303 293.681 312.977C296.772 340.631 287.713 369.39 266.511 390.593Z" fill="#EB5757"/>
<path d="M293.682 312.979C256.541 337.784 214.064 353.427 168.776 360.211C169.699 351.67 168.262 341.592 163.416 330.07L88.6325 255.287C77.1111 250.44 67.0327 249.004 58.4922 249.927C65.2759 204.638 80.9197 162.161 105.724 125.021C118.404 126.439 130.849 130.398 142.231 136.928L281.773 276.47C288.305 287.854 292.27 300.303 293.682 312.979Z" fill="#C40606"/>
<path d="M163.414 330.073C221.622 316.704 276.903 287.356 322.249 242.01C388.848 175.411 420.952 87.3849 418.581 0.122247C331.319 -2.24822 243.293 29.8548 176.693 96.4541C131.347 141.801 102 197.081 88.6309 255.289L163.414 330.073Z" fill="#E3E8EC"/>
<path d="M214.518 134.279C169.175 179.623 133.084 228.171 108.067 274.721L88.6338 255.287C101.995 197.083 131.351 141.8 176.695 96.4566C243.293 29.8565 331.319 -2.24488 418.582 0.127222C354.609 21.0455 281.118 67.6809 214.518 134.279Z" fill="#D5D8DB"/>
<path d="M399.118 121.213C379.618 109.499 360.281 94.4701 342.259 76.4494C333.556 67.747 325.558 58.7473 318.293 49.5743C310.5 39.7305 303.542 29.6824 297.471 19.5909C336.296 5.55854 377.235 -0.92939 418.009 0.109169C418.202 0.121425 418.395 0.121425 418.582 0.127145L418.577 0.132865C419.686 41.0885 413.211 82.2068 399.118 121.213Z" fill="#EB5757"/>
<path d="M405.794 281.065C405.788 281.059 405.794 281.052 405.788 281.045L405.794 281.065Z" fill="#EB5757"/>
<path d="M418.582 0.127145L418.576 0.132865C386.825 10.5078 352.725 27.2253 318.294 49.5743C310.501 39.7305 303.543 29.6824 297.472 19.5909C336.296 5.55854 377.235 -0.92939 418.009 0.109169C418.202 0.121425 418.395 0.121425 418.582 0.127145Z" fill="#C40606"/>
<path d="M272.321 207.883C306.284 207.883 333.817 180.35 333.817 146.387C333.817 112.423 306.284 84.8902 272.321 84.8902C238.357 84.8902 210.824 112.423 210.824 146.387C210.824 180.35 238.357 207.883 272.321 207.883Z" fill="#EB5757"/>
<path d="M272.321 187.799C295.192 187.799 313.733 169.258 313.733 146.387C313.733 123.515 295.192 104.974 272.321 104.974C249.449 104.974 230.908 123.515 230.908 146.387C230.908 169.258 249.449 187.799 272.321 187.799Z" fill="#A0D9F2"/>
</svg>
