<svg width="24" height="24" viewBox="0 0 24 24" fill="none" xmlns="http://www.w3.org/2000/svg">
<g clip-path="url(#clip0_1052_16649)">
<path d="M8.89153 21.118L8.88836 21.1158C8.36216 20.7423 7.9846 20.4824 7.56155 20.411L7.56001 20.4108C7.32384 20.3701 7.08454 20.3505 6.84491 20.352L6.84176 20.352C6.42064 20.352 6.08484 20.4149 5.82688 20.4671L5.81468 20.4695L5.81465 20.4694C5.79717 20.4725 5.77878 20.4758 5.75967 20.4793C5.62383 20.5038 5.4512 20.535 5.30376 20.535C5.20737 20.535 5.04344 20.5232 4.87841 20.4314C4.69721 20.3305 4.56801 20.1632 4.50525 19.9521C4.45144 19.779 4.41699 19.6152 4.38858 19.48C4.38662 19.4707 4.3847 19.4615 4.3828 19.4525C4.36347 19.3632 4.34636 19.2892 4.32984 19.2274C4.32645 19.2148 4.3232 19.203 4.32007 19.1921C3.64268 19.0807 3.07417 18.9415 2.63685 18.7741C2.39801 18.6826 2.18274 18.5769 2.00621 18.4521C1.83295 18.3297 1.66537 18.1664 1.57219 17.949L1.56264 17.9267L1.5553 17.9036C1.555 17.9027 1.55438 17.9008 1.55351 17.8981C1.5489 17.884 1.5372 17.8483 1.52961 17.8213C1.52135 17.7918 1.50431 17.7283 1.50124 17.651C1.47675 17.2411 1.78131 16.9467 2.11528 16.8853L2.12389 16.8837L2.1239 16.8837C3.17374 16.7095 4.13474 16.1507 4.96589 15.1916L4.96593 15.1915C5.28871 14.8191 5.52955 14.4518 5.69288 14.1683C5.77435 14.0269 5.83582 13.9075 5.87796 13.8205C5.90891 13.7565 5.92748 13.7141 5.93568 13.6948C5.94689 13.661 5.96218 13.6267 5.98242 13.593C5.98577 13.5874 5.9892 13.5819 5.99269 13.5766C6.10403 13.3261 6.08318 13.2003 6.05983 13.1448L6.05898 13.1427C6.02942 13.0715 5.94565 12.9784 5.75146 12.8771C5.56395 12.7793 5.34407 12.7094 5.12382 12.6411C5.02439 12.6137 4.92835 12.58 4.86444 12.5576C4.84651 12.5513 4.83111 12.5459 4.81887 12.5417L4.80639 12.5375L4.79415 12.5327C4.59401 12.4532 4.29401 12.3168 4.04664 12.1208C3.81819 11.9398 3.4882 11.5858 3.58232 11.0839L4.07376 11.176M8.89153 21.118L21.9998 17.61M8.89153 21.118C8.90451 21.127 8.91755 21.1361 8.93067 21.1453C9.62902 21.6332 10.5319 22.264 11.8708 22.264H12.1248C13.4411 22.264 14.3435 21.6463 15.0428 21.1676C15.0633 21.1536 15.0837 21.1396 15.1039 21.1258L15.1039 21.1259L15.1108 21.121C15.6404 20.7458 16.0195 20.4843 16.4361 20.4165L16.4371 20.4163C16.6785 20.3766 16.9233 20.356 17.1578 20.356L17.1591 20.356C17.4983 20.3551 17.8367 20.3903 18.1686 20.461L18.1686 20.4611L18.1762 20.4626C18.382 20.5031 18.5533 20.521 18.6958 20.521H18.7188C18.8845 20.521 19.0641 20.478 19.2195 20.3563C19.3719 20.2369 19.4533 20.0794 19.4958 19.9374L19.4958 19.9374L19.4981 19.9293C19.5437 19.7671 19.5836 19.6035 19.6179 19.4386M8.89153 21.118L19.6179 19.4386M4.07376 11.176L3.58218 11.0846C3.64646 10.7388 3.89091 10.5024 4.11079 10.3663C4.33707 10.2263 4.61562 10.141 4.88476 10.141C5.0173 10.141 5.18267 10.159 5.34416 10.2415C5.6797 10.3928 5.9458 10.453 6.14176 10.453C6.16568 10.453 6.18762 10.4521 6.20769 10.4506C6.20285 10.3715 6.19762 10.2924 6.19201 10.2134L6.19184 10.2109L6.19184 10.2109C6.14702 9.53105 6.09728 8.74456 6.11515 8.0032C6.13275 7.27348 6.21601 6.52449 6.47393 5.94476L6.4742 5.94414C7.89448 2.76329 10.9143 2.50911 11.794 2.508L12.1445 2.50013L12.1558 2.49987V2.5H12.2058C13.0759 2.5 16.1065 2.74177 17.5302 5.93483C17.7913 6.51563 17.8743 7.26671 17.8912 7.99652C17.9085 8.73856 17.8574 9.52532 17.8127 10.202L17.8118 10.2152L17.8102 10.2283L17.8041 10.2795C17.8008 10.3386 17.7975 10.3923 17.7943 10.4435C17.7978 10.4436 17.8014 10.4438 17.805 10.4439C17.9942 10.4365 18.2334 10.3717 18.5567 10.2254L18.5643 10.222L18.5643 10.2221C18.7242 10.153 18.8962 10.1166 19.0703 10.115L19.0748 10.115C19.2359 10.115 19.3857 10.1455 19.508 10.181H19.5313L19.6161 10.2128C19.992 10.3535 20.4296 10.6877 20.4357 11.21C20.4533 11.7524 20.0038 12.1884 19.2091 12.5096L19.1974 12.5143L19.1973 12.5142C19.1906 12.5167 19.1833 12.5194 19.1756 12.5223C19.1052 12.549 18.9958 12.5904 18.8687 12.6215C18.6593 12.6859 18.4426 12.757 18.257 12.8546C18.0614 12.9575 17.9699 13.0545 17.9361 13.131L17.9326 13.1389L17.9326 13.1389C17.9217 13.1623 17.9068 13.2233 17.9323 13.3379L18.0558 13.6502C18.0557 13.6501 18.0558 13.6504 18.0561 13.6509C18.0587 13.657 18.078 13.7024 18.1168 13.7814C18.1578 13.865 18.2181 13.9813 18.2983 14.1204C18.4591 14.3993 18.6973 14.7653 19.0167 15.1405C19.6588 15.8947 20.6006 16.6545 21.8768 16.8668L21.8779 16.867C22.0556 16.8969 22.2164 16.9902 22.3307 17.1296C22.4434 17.2669 22.5032 17.4399 22.4997 17.6173M4.07376 11.176C3.99276 11.608 4.60876 11.921 4.97876 12.068L6.72576 10.771C6.68176 10.815 6.50776 10.953 6.14176 10.953C5.84776 10.953 5.50476 10.864 5.12476 10.691C5.05876 10.655 4.97876 10.641 4.88476 10.641C4.54576 10.641 4.13176 10.864 4.07376 11.176ZM22.4997 17.6173C22.4997 17.6199 22.4996 17.6225 22.4995 17.6251L21.9998 17.61M22.4997 17.6173C22.4997 17.6149 22.4998 17.6124 22.4998 17.61H21.9998M22.4997 17.6173C22.4988 17.7186 22.4788 17.8376 22.4198 17.9553M21.9998 17.61C21.9998 17.654 21.9908 17.699 21.9688 17.739M22.4198 17.9553C22.423 17.9484 22.426 17.9414 22.429 17.9343L21.9688 17.739M22.4198 17.9553C22.3256 18.1631 22.1642 18.3205 21.9959 18.4398C21.8193 18.5649 21.6042 18.6701 21.3658 18.761C20.9292 18.9273 20.3605 19.0655 19.6805 19.1786M22.4198 17.9553C22.4157 17.9635 22.4114 17.9717 22.4069 17.98L21.9688 17.739M21.9688 17.739L19.6805 19.1786M19.6805 19.1786C19.618 19.189 19.5546 19.1991 19.4903 19.2091L19.4138 18.715L19.4925 19.2088C19.5964 19.1922 19.6643 19.1369 19.6957 19.1016C19.7086 19.0871 19.7154 19.0762 19.7174 19.0727C19.7164 19.0746 19.7143 19.0789 19.7113 19.0862C19.7033 19.1056 19.693 19.1352 19.6805 19.1786ZM19.6179 19.4386C19.618 19.438 19.6182 19.4373 19.6183 19.4367L19.1288 19.335L19.6175 19.4407C19.6176 19.44 19.6178 19.4393 19.6179 19.4386ZM6.38812 10.4033C6.38813 10.4033 6.38772 10.4036 6.38688 10.4042L6.38812 10.4033ZM4.28334 19.0869C4.28292 19.0862 4.28273 19.0858 4.28274 19.0858L4.28334 19.0869Z" fill="#FFFC00" stroke="black"/>
</g>
<defs>
<clipPath id="clip0_1052_16649">
<rect width="24" height="24" fill="white"/>
</clipPath>
</defs>
</svg>
