<svg width="60" height="74" viewBox="0 0 60 74" fill="none" xmlns="http://www.w3.org/2000/svg">
<path d="M50.1135 39.109C50.1499 36.2902 50.9008 33.5263 52.2962 31.0747C53.6916 28.623 55.6862 26.5631 58.0944 25.0867C56.5645 22.9079 54.5462 21.1148 52.1999 19.8499C49.8535 18.5849 47.2437 17.883 44.5777 17.7998C38.8907 17.2046 33.3773 21.1933 30.4793 21.1933C27.5253 21.1933 23.0633 17.8589 18.2586 17.9575C15.1507 18.0576 12.1219 18.9588 9.46713 20.5733C6.8124 22.1878 4.62232 24.4605 3.11029 27.17C-3.43952 38.4782 1.44604 55.0975 7.72021 64.2382C10.8593 68.7142 14.528 73.7139 19.3284 73.5366C24.0259 73.3424 25.7804 70.5496 31.4507 70.5496C37.0683 70.5496 38.7143 73.5366 43.6122 73.4239C48.6528 73.3423 51.8287 68.9281 54.8576 64.4097C57.1131 61.2205 58.8486 57.6956 60 53.9658C57.0715 52.7306 54.5724 50.6632 52.8144 48.0212C51.0563 45.3793 50.1169 42.2797 50.1135 39.109Z" fill="#181818"/>
<path d="M40.8627 11.7885C43.611 8.49838 44.965 4.26954 44.6372 0C40.4383 0.439778 36.5597 2.44096 33.7742 5.6048C32.4123 7.15042 31.3692 8.94856 30.7046 10.8964C30.0399 12.8443 29.7668 14.9037 29.9008 16.9568C32.001 16.9784 34.0788 16.5245 35.9775 15.6292C37.8763 14.734 39.5466 13.4207 40.8627 11.7885Z" fill="#181818"/>
</svg>
