<svg width="41" height="41" viewBox="0 0 41 41" fill="none" xmlns="http://www.w3.org/2000/svg">
<circle cx="20.499" cy="20.5" r="19" fill="url(#paint0_linear_1506_20910)" stroke="white" stroke-width="3"/>
<path d="M26.624 15.6875H25.504L25.224 14.8125C25.0425 14.2991 24.7058 13.8548 24.2606 13.5413C23.8153 13.2277 23.2836 13.0604 22.739 13.0625H18.259C17.7091 13.0635 17.1734 13.2372 16.7276 13.5591C16.2817 13.8809 15.9482 14.3347 15.774 14.8563L15.494 15.7313H14.374C13.6778 15.7313 13.0102 16.0078 12.5179 16.5001C12.0256 16.9924 11.749 17.6601 11.749 18.3563V25.3563C11.749 26.0525 12.0256 26.7201 12.5179 27.2124C13.0102 27.7047 13.6778 27.9813 14.374 27.9813H26.624C27.3202 27.9813 27.9879 27.7047 28.4802 27.2124C28.9725 26.7201 29.249 26.0525 29.249 25.3563V18.3563C29.2548 18.0079 29.1912 17.6618 29.0619 17.3383C28.9326 17.0147 28.7402 16.7202 28.4958 16.4718C28.2515 16.2234 27.9601 16.0261 27.6388 15.8914C27.3174 15.7568 26.9725 15.6875 26.624 15.6875ZM27.499 25.3125C27.499 25.5446 27.4068 25.7671 27.2427 25.9312C27.0786 26.0953 26.8561 26.1875 26.624 26.1875H14.374C14.142 26.1875 13.9194 26.0953 13.7553 25.9312C13.5912 25.7671 13.499 25.5446 13.499 25.3125V18.3125C13.499 18.0805 13.5912 17.8579 13.7553 17.6938C13.9194 17.5297 14.142 17.4375 14.374 17.4375H16.124C16.3148 17.4475 16.5037 17.3947 16.6617 17.2873C16.8197 17.1798 16.9381 17.0236 16.999 16.8425L17.4715 15.4075C17.5302 15.2337 17.6421 15.0828 17.7912 14.976C17.9404 14.8692 18.1193 14.812 18.3028 14.8125H22.7828C22.9662 14.812 23.1452 14.8692 23.2943 14.976C23.4435 15.0828 23.5553 15.2337 23.614 15.4075L24.0865 16.8425C24.1427 17.0094 24.2479 17.1555 24.3884 17.2617C24.5289 17.3678 24.6981 17.4291 24.874 17.4375H26.624C26.8561 17.4375 27.0786 17.5297 27.2427 17.6938C27.4068 17.8579 27.499 18.0805 27.499 18.3125V25.3125ZM20.499 17.4375C19.8068 17.4375 19.1301 17.6428 18.5545 18.0274C17.979 18.412 17.5304 18.9586 17.2654 19.5981C17.0005 20.2377 16.9312 20.9414 17.0663 21.6203C17.2013 22.2993 17.5347 22.9229 18.0241 23.4124C18.5136 23.9019 19.1373 24.2352 19.8162 24.3703C20.4951 24.5053 21.1989 24.436 21.8384 24.1711C22.478 23.9062 23.0246 23.4576 23.4092 22.882C23.7938 22.3064 23.999 21.6298 23.999 20.9375C23.999 20.0093 23.6303 19.119 22.9739 18.4626C22.3175 17.8063 21.4273 17.4375 20.499 17.4375ZM20.499 22.6875C20.1529 22.6875 19.8146 22.5849 19.5268 22.3926C19.239 22.2003 19.0147 21.927 18.8822 21.6072C18.7498 21.2874 18.7151 20.9356 18.7826 20.5961C18.8502 20.2566 19.0168 19.9448 19.2616 19.7001C19.5063 19.4553 19.8181 19.2887 20.1576 19.2211C20.4971 19.1536 20.8489 19.1883 21.1687 19.3207C21.4885 19.4532 21.7618 19.6775 21.9541 19.9653C22.1464 20.2531 22.249 20.5914 22.249 20.9375C22.249 21.4016 22.0646 21.8468 21.7365 22.175C21.4083 22.5031 20.9632 22.6875 20.499 22.6875Z" fill="white"/>
<defs>
<linearGradient id="paint0_linear_1506_20910" x1="2.99902" y1="20" x2="38.999" y2="20" gradientUnits="userSpaceOnUse">
<stop stop-color="#FFD426"/>
<stop offset="1" stop-color="#3CAF47"/>
</linearGradient>
</defs>
</svg>
