<svg width="12" height="12" viewBox="0 0 12 12" fill="none" xmlns="http://www.w3.org/2000/svg">
<path d="M10.958 4.944H9.27218C7.88968 4.944 6.76384 3.81817 6.76384 2.43567V0.749837C6.76384 0.429004 6.50134 0.166504 6.18051 0.166504H3.70717C1.91051 0.166504 0.458008 1.33317 0.458008 3.41567V8.584C0.458008 10.6665 1.91051 11.8332 3.70717 11.8332H8.29218C10.0888 11.8332 11.5413 10.6665 11.5413 8.584V5.52734C11.5413 5.2065 11.2788 4.944 10.958 4.944ZM5.72551 6.89234C5.63801 6.97984 5.52717 7.02067 5.41634 7.02067C5.30551 7.02067 5.19467 6.97984 5.10717 6.89234L4.68717 6.47234V8.9165C4.68717 9.15567 4.48884 9.354 4.24967 9.354C4.01051 9.354 3.81217 9.15567 3.81217 8.9165V6.47234L3.39217 6.89234C3.22301 7.0615 2.94301 7.0615 2.77384 6.89234C2.60467 6.72317 2.60467 6.44317 2.77384 6.274L3.94051 5.10734C3.98134 5.07234 4.02217 5.04317 4.06884 5.01984C4.08051 5.014 4.09801 5.00817 4.10967 5.00234C4.14467 4.99067 4.17967 4.98484 4.22051 4.979C4.23801 4.979 4.24967 4.979 4.26717 4.979C4.31384 4.979 4.36051 4.99067 4.40718 5.00817C4.41301 5.00817 4.41301 5.00817 4.41884 5.00817C4.46551 5.02567 4.51218 5.06067 4.54717 5.09567C4.55301 5.1015 4.55884 5.1015 4.55884 5.10734L5.72551 6.274C5.89467 6.44317 5.89467 6.72317 5.72551 6.89234Z" fill="#292D32"/>
</svg>
