<svg width="356" height="588" viewBox="0 0 356 588" fill="none" xmlns="http://www.w3.org/2000/svg">
<path d="M96.553 387L25.221 483.289L63.3891 513.192L131.498 423.962L96.553 387Z" fill="#EEBFAC"/>
<path d="M322.423 397.73L355.333 519.121C358.075 534.765 347.586 549.674 331.923 552.413C316.316 555.124 307.269 544.394 304.47 528.807L270.797 407.387L322.423 397.73V397.73Z" fill="#EEBFAC"/>
<rect x="178.254" y="129" width="12.7278" height="12.7278" transform="rotate(-45 178.254 129)" fill="#9F9F9F"/>
<g clip-path="url(#clip0_1588_18878)">
<path d="M280.214 0H94.5839C88.3265 0 83.2539 5.07261 83.2539 11.33V117.84C83.2539 124.097 88.3265 129.17 94.5839 129.17H280.214C286.471 129.17 291.544 124.097 291.544 117.84V11.33C291.544 5.07261 286.471 0 280.214 0Z" fill="#9F9F9F"/>
<path d="M192.306 74.2385C209.145 71.5324 220.601 55.6883 217.895 38.8498C215.189 22.0113 199.345 10.5548 182.506 13.2609C165.668 15.9671 154.211 31.8111 156.917 48.6496C159.624 65.4881 175.468 76.9446 192.306 74.2385Z" fill="#FF3A3A"/>
<path d="M246.273 106.8H128.533C123.563 106.8 119.523 102.77 119.523 97.79C119.523 92.82 123.553 88.78 128.533 88.78H246.273C251.243 88.78 255.283 92.81 255.283 97.79C255.283 102.76 251.253 106.8 246.273 106.8V106.8Z" fill="white"/>
<path d="M144.654 100.7C144.494 100.7 144.354 100.64 144.234 100.52C144.114 100.4 144.054 100.25 144.054 100.08C144.054 99.95 144.094 99.81 144.174 99.67L145.064 98.27L143.234 98.32C143.034 98.32 142.884 98.26 142.774 98.14C142.664 98.02 142.614 97.88 142.614 97.71C142.614 97.54 142.664 97.4 142.774 97.28C142.884 97.16 143.034 97.1 143.234 97.1L145.044 97.15L144.194 95.8C144.104 95.64 144.054 95.49 144.054 95.36C144.054 95.18 144.114 95.03 144.234 94.91C144.354 94.79 144.504 94.73 144.664 94.73C144.894 94.73 145.074 94.84 145.194 95.07L146.074 96.64L146.914 95.13C147.074 94.86 147.274 94.72 147.524 94.72C147.684 94.72 147.824 94.78 147.944 94.9C148.064 95.02 148.124 95.16 148.124 95.34C148.124 95.47 148.084 95.61 148.004 95.74L147.114 97.15L148.944 97.1C149.144 97.1 149.294 97.16 149.404 97.28C149.514 97.4 149.564 97.54 149.564 97.71C149.564 97.88 149.514 98.02 149.404 98.14C149.294 98.26 149.144 98.32 148.944 98.32L147.094 98.27L147.914 99.55C148.014 99.73 148.064 99.9 148.064 100.06C148.064 100.24 148.004 100.39 147.884 100.51C147.764 100.63 147.634 100.69 147.474 100.69C147.234 100.69 147.044 100.56 146.894 100.3L146.064 98.83L145.234 100.3C145.094 100.57 144.894 100.71 144.644 100.71L144.654 100.7Z" fill="black"/>
<path d="M153.845 100.7C153.685 100.7 153.545 100.64 153.425 100.52C153.305 100.4 153.245 100.25 153.245 100.08C153.245 99.95 153.285 99.81 153.365 99.67L154.255 98.27L152.425 98.32C152.225 98.32 152.075 98.26 151.965 98.14C151.855 98.02 151.805 97.88 151.805 97.71C151.805 97.54 151.855 97.4 151.965 97.28C152.075 97.16 152.225 97.1 152.425 97.1L154.235 97.15L153.385 95.8C153.295 95.64 153.245 95.49 153.245 95.36C153.245 95.18 153.305 95.03 153.435 94.91C153.555 94.79 153.705 94.73 153.865 94.73C154.095 94.73 154.275 94.84 154.395 95.07L155.275 96.64L156.115 95.13C156.275 94.86 156.475 94.72 156.715 94.72C156.875 94.72 157.015 94.78 157.135 94.9C157.255 95.02 157.315 95.16 157.315 95.34C157.315 95.47 157.275 95.61 157.195 95.74L156.315 97.15L158.145 97.1C158.345 97.1 158.495 97.16 158.605 97.28C158.715 97.4 158.765 97.54 158.765 97.71C158.765 97.88 158.715 98.02 158.605 98.14C158.495 98.26 158.345 98.32 158.145 98.32L156.295 98.27L157.115 99.55C157.215 99.73 157.265 99.9 157.265 100.06C157.265 100.24 157.205 100.39 157.085 100.51C156.965 100.63 156.835 100.69 156.675 100.69C156.435 100.69 156.245 100.56 156.095 100.3L155.265 98.83L154.435 100.3C154.285 100.57 154.095 100.71 153.845 100.71V100.7Z" fill="black"/>
<path d="M163.024 100.7C162.864 100.7 162.724 100.64 162.604 100.52C162.484 100.4 162.424 100.25 162.424 100.08C162.424 99.95 162.464 99.81 162.544 99.67L163.434 98.27L161.604 98.32C161.404 98.32 161.254 98.26 161.144 98.14C161.034 98.02 160.984 97.88 160.984 97.71C160.984 97.54 161.034 97.4 161.144 97.28C161.254 97.16 161.404 97.1 161.604 97.1L163.414 97.15L162.564 95.8C162.474 95.64 162.424 95.49 162.424 95.36C162.424 95.18 162.484 95.03 162.614 94.91C162.734 94.79 162.884 94.73 163.044 94.73C163.274 94.73 163.454 94.84 163.574 95.07L164.454 96.64L165.294 95.13C165.454 94.86 165.654 94.72 165.894 94.72C166.054 94.72 166.194 94.78 166.314 94.9C166.434 95.02 166.494 95.16 166.494 95.34C166.494 95.47 166.454 95.61 166.374 95.74L165.494 97.15L167.324 97.1C167.524 97.1 167.674 97.16 167.784 97.28C167.894 97.4 167.944 97.54 167.944 97.71C167.944 97.88 167.894 98.02 167.784 98.14C167.674 98.26 167.524 98.32 167.324 98.32L165.474 98.27L166.294 99.55C166.394 99.73 166.444 99.9 166.444 100.06C166.444 100.24 166.384 100.39 166.264 100.51C166.144 100.63 166.014 100.69 165.854 100.69C165.614 100.69 165.424 100.56 165.274 100.3L164.444 98.83L163.614 100.3C163.474 100.57 163.274 100.71 163.024 100.71V100.7Z" fill="black"/>
<path d="M172.194 100.7C172.034 100.7 171.894 100.64 171.774 100.52C171.654 100.4 171.594 100.25 171.594 100.08C171.594 99.95 171.634 99.81 171.714 99.67L172.604 98.27L170.774 98.32C170.574 98.32 170.424 98.26 170.314 98.14C170.204 98.02 170.154 97.88 170.154 97.71C170.154 97.54 170.204 97.4 170.314 97.28C170.424 97.16 170.574 97.1 170.774 97.1L172.584 97.15L171.734 95.8C171.644 95.64 171.594 95.49 171.594 95.36C171.594 95.18 171.654 95.03 171.774 94.91C171.894 94.79 172.044 94.73 172.204 94.73C172.434 94.73 172.614 94.84 172.734 95.07L173.614 96.64L174.454 95.13C174.614 94.86 174.814 94.72 175.064 94.72C175.224 94.72 175.364 94.78 175.484 94.9C175.604 95.02 175.664 95.16 175.664 95.34C175.664 95.47 175.624 95.61 175.544 95.74L174.654 97.15L176.484 97.1C176.684 97.1 176.834 97.16 176.944 97.28C177.054 97.4 177.104 97.54 177.104 97.71C177.104 97.88 177.054 98.02 176.944 98.14C176.834 98.26 176.684 98.32 176.484 98.32L174.634 98.27L175.454 99.55C175.554 99.73 175.604 99.9 175.604 100.06C175.604 100.24 175.544 100.39 175.424 100.51C175.304 100.63 175.174 100.69 175.014 100.69C174.774 100.69 174.584 100.56 174.434 100.3L173.604 98.83L172.774 100.3C172.634 100.57 172.434 100.71 172.184 100.71L172.194 100.7Z" fill="black"/>
<path d="M181.385 100.7C181.225 100.7 181.085 100.64 180.965 100.52C180.845 100.4 180.785 100.25 180.785 100.08C180.785 99.95 180.825 99.81 180.905 99.67L181.795 98.27L179.965 98.32C179.765 98.32 179.615 98.26 179.505 98.14C179.395 98.02 179.345 97.88 179.345 97.71C179.345 97.54 179.395 97.4 179.505 97.28C179.615 97.16 179.765 97.1 179.965 97.1L181.775 97.15L180.925 95.8C180.835 95.64 180.785 95.49 180.785 95.36C180.785 95.18 180.845 95.03 180.975 94.91C181.095 94.79 181.245 94.73 181.405 94.73C181.635 94.73 181.815 94.84 181.935 95.07L182.815 96.64L183.655 95.13C183.815 94.86 184.015 94.72 184.255 94.72C184.415 94.72 184.555 94.78 184.675 94.9C184.795 95.02 184.855 95.16 184.855 95.34C184.855 95.47 184.815 95.61 184.735 95.74L183.855 97.15L185.685 97.1C185.885 97.1 186.035 97.16 186.145 97.28C186.255 97.4 186.305 97.54 186.305 97.71C186.305 97.88 186.255 98.02 186.145 98.14C186.035 98.26 185.885 98.32 185.685 98.32L183.835 98.27L184.655 99.55C184.755 99.73 184.805 99.9 184.805 100.06C184.805 100.24 184.745 100.39 184.625 100.51C184.505 100.63 184.375 100.69 184.215 100.69C183.975 100.69 183.785 100.56 183.635 100.3L182.805 98.83L181.975 100.3C181.825 100.57 181.635 100.71 181.385 100.71V100.7Z" fill="black"/>
<path d="M190.564 100.7C190.404 100.7 190.264 100.64 190.144 100.52C190.024 100.4 189.964 100.25 189.964 100.08C189.964 99.95 190.004 99.81 190.084 99.67L190.974 98.27L189.144 98.32C188.944 98.32 188.794 98.26 188.684 98.14C188.574 98.02 188.524 97.88 188.524 97.71C188.524 97.54 188.574 97.4 188.684 97.28C188.794 97.16 188.944 97.1 189.144 97.1L190.944 97.15L190.094 95.8C190.004 95.64 189.964 95.49 189.964 95.36C189.964 95.18 190.024 95.03 190.144 94.91C190.264 94.79 190.414 94.73 190.574 94.73C190.804 94.73 190.984 94.84 191.104 95.07L191.984 96.64L192.824 95.13C192.984 94.86 193.184 94.72 193.424 94.72C193.584 94.72 193.724 94.78 193.844 94.9C193.964 95.02 194.024 95.16 194.024 95.34C194.024 95.47 193.984 95.61 193.904 95.74L193.024 97.15L194.854 97.1C195.054 97.1 195.204 97.16 195.314 97.28C195.424 97.4 195.474 97.54 195.474 97.71C195.474 97.88 195.424 98.02 195.314 98.14C195.204 98.26 195.054 98.32 194.854 98.32L193.004 98.27L193.824 99.55C193.924 99.73 193.974 99.9 193.974 100.06C193.974 100.24 193.914 100.39 193.794 100.51C193.674 100.63 193.544 100.69 193.384 100.69C193.144 100.69 192.954 100.56 192.804 100.3L191.974 98.83L191.144 100.3C191.004 100.57 190.804 100.71 190.554 100.71L190.564 100.7Z" fill="black"/>
<path d="M199.744 100.7C199.584 100.7 199.444 100.64 199.324 100.52C199.204 100.4 199.144 100.25 199.144 100.08C199.144 99.95 199.184 99.81 199.264 99.67L200.154 98.27L198.324 98.32C198.124 98.32 197.974 98.26 197.864 98.14C197.754 98.02 197.704 97.88 197.704 97.71C197.704 97.54 197.754 97.4 197.864 97.28C197.974 97.16 198.124 97.1 198.324 97.1L200.134 97.15L199.284 95.8C199.194 95.64 199.154 95.49 199.154 95.36C199.154 95.18 199.214 95.03 199.334 94.91C199.454 94.79 199.604 94.73 199.764 94.73C199.994 94.73 200.174 94.84 200.294 95.07L201.174 96.64L202.014 95.13C202.174 94.86 202.374 94.72 202.614 94.72C202.774 94.72 202.914 94.78 203.034 94.9C203.154 95.02 203.214 95.16 203.214 95.34C203.214 95.47 203.174 95.61 203.094 95.74L202.214 97.15L204.044 97.1C204.244 97.1 204.394 97.16 204.504 97.28C204.614 97.4 204.664 97.54 204.664 97.71C204.664 97.88 204.614 98.02 204.504 98.14C204.394 98.26 204.244 98.32 204.044 98.32L202.194 98.27L203.014 99.55C203.114 99.73 203.164 99.9 203.164 100.06C203.164 100.24 203.104 100.39 202.984 100.51C202.864 100.63 202.734 100.69 202.574 100.69C202.334 100.69 202.144 100.56 201.994 100.3L201.164 98.83L200.334 100.3C200.194 100.57 199.994 100.71 199.744 100.71V100.7Z" fill="black"/>
<path d="M208.924 100.7C208.764 100.7 208.624 100.64 208.504 100.52C208.384 100.4 208.324 100.25 208.324 100.08C208.324 99.95 208.364 99.81 208.444 99.67L209.334 98.27L207.504 98.32C207.304 98.32 207.154 98.26 207.044 98.14C206.934 98.02 206.884 97.88 206.884 97.71C206.884 97.54 206.934 97.4 207.044 97.28C207.154 97.16 207.304 97.1 207.504 97.1L209.314 97.15L208.464 95.8C208.374 95.64 208.334 95.49 208.334 95.36C208.334 95.18 208.394 95.03 208.514 94.91C208.634 94.79 208.784 94.73 208.944 94.73C209.174 94.73 209.354 94.84 209.474 95.07L210.354 96.64L211.194 95.13C211.354 94.86 211.554 94.72 211.794 94.72C211.954 94.72 212.094 94.78 212.214 94.9C212.334 95.02 212.394 95.16 212.394 95.34C212.394 95.47 212.354 95.61 212.274 95.74L211.394 97.15L213.224 97.1C213.424 97.1 213.574 97.16 213.684 97.28C213.794 97.4 213.844 97.54 213.844 97.71C213.844 97.88 213.794 98.02 213.684 98.14C213.574 98.26 213.424 98.32 213.224 98.32L211.374 98.27L212.194 99.55C212.294 99.73 212.344 99.9 212.344 100.06C212.344 100.24 212.284 100.39 212.164 100.51C212.044 100.63 211.914 100.69 211.754 100.69C211.514 100.69 211.324 100.56 211.174 100.3L210.344 98.83L209.514 100.3C209.374 100.57 209.174 100.71 208.924 100.71V100.7Z" fill="black"/>
<path d="M218.104 100.7C217.944 100.7 217.804 100.64 217.684 100.52C217.564 100.4 217.504 100.25 217.504 100.08C217.504 99.95 217.544 99.81 217.624 99.67L218.514 98.27L216.684 98.32C216.484 98.32 216.334 98.26 216.224 98.14C216.114 98.02 216.064 97.88 216.064 97.71C216.064 97.54 216.114 97.4 216.224 97.28C216.334 97.16 216.484 97.1 216.684 97.1L218.494 97.15L217.644 95.8C217.554 95.64 217.514 95.49 217.514 95.36C217.514 95.18 217.574 95.03 217.694 94.91C217.814 94.79 217.964 94.73 218.124 94.73C218.354 94.73 218.534 94.84 218.654 95.07L219.534 96.64L220.374 95.13C220.534 94.86 220.734 94.72 220.974 94.72C221.134 94.72 221.274 94.78 221.394 94.9C221.514 95.02 221.574 95.16 221.574 95.34C221.574 95.47 221.534 95.61 221.454 95.74L220.574 97.15L222.404 97.1C222.604 97.1 222.754 97.16 222.864 97.28C222.974 97.4 223.024 97.54 223.024 97.71C223.024 97.88 222.974 98.02 222.864 98.14C222.754 98.26 222.604 98.32 222.404 98.32L220.554 98.27L221.374 99.55C221.474 99.73 221.524 99.9 221.524 100.06C221.524 100.24 221.464 100.39 221.344 100.51C221.224 100.63 221.094 100.69 220.934 100.69C220.694 100.69 220.504 100.56 220.354 100.3L219.524 98.83L218.694 100.3C218.554 100.57 218.354 100.71 218.104 100.71V100.7Z" fill="black"/>
<path d="M227.284 100.7C227.124 100.7 226.984 100.64 226.864 100.52C226.744 100.4 226.684 100.25 226.684 100.08C226.684 99.95 226.724 99.81 226.804 99.67L227.694 98.27L225.864 98.32C225.664 98.32 225.514 98.26 225.404 98.14C225.294 98.02 225.244 97.88 225.244 97.71C225.244 97.54 225.294 97.4 225.404 97.28C225.514 97.16 225.664 97.1 225.864 97.1L227.674 97.15L226.824 95.8C226.734 95.64 226.694 95.49 226.694 95.36C226.694 95.18 226.754 95.03 226.874 94.91C226.994 94.79 227.144 94.73 227.304 94.73C227.534 94.73 227.714 94.84 227.834 95.07L228.714 96.64L229.554 95.13C229.714 94.86 229.914 94.72 230.154 94.72C230.314 94.72 230.454 94.78 230.574 94.9C230.694 95.02 230.754 95.16 230.754 95.34C230.754 95.47 230.714 95.61 230.634 95.74L229.754 97.15L231.584 97.1C231.784 97.1 231.934 97.16 232.044 97.28C232.154 97.4 232.204 97.54 232.204 97.71C232.204 97.88 232.154 98.02 232.044 98.14C231.934 98.26 231.784 98.32 231.584 98.32L229.734 98.27L230.554 99.55C230.654 99.73 230.704 99.9 230.704 100.06C230.704 100.24 230.644 100.39 230.524 100.51C230.404 100.63 230.274 100.69 230.114 100.69C229.874 100.69 229.684 100.56 229.534 100.3L228.704 98.83L227.874 100.3C227.734 100.57 227.534 100.71 227.284 100.71V100.7Z" fill="black"/>
<path d="M184.054 48.05C184.054 46.45 184.387 45.0667 185.054 43.9C185.754 42.7333 186.954 41.4 188.654 39.9C189.654 39 190.371 38.2167 190.804 37.55C191.271 36.8833 191.504 36.1167 191.504 35.25C191.504 34.2167 191.121 33.35 190.354 32.65C189.587 31.9167 188.571 31.55 187.304 31.55C185.971 31.55 184.871 31.95 184.004 32.75C183.171 33.5167 182.571 34.4833 182.204 35.65L176.454 33.25C177.087 31.1167 178.321 29.2833 180.154 27.75C182.021 26.1833 184.354 25.4 187.154 25.4C189.254 25.4 191.121 25.8167 192.754 26.65C194.387 27.4833 195.654 28.6333 196.554 30.1C197.487 31.5333 197.954 33.1333 197.954 34.9C197.954 36.6333 197.587 38.1167 196.854 39.35C196.121 40.5833 195.037 41.8833 193.604 43.25C192.471 44.3167 191.687 45.2333 191.254 46C190.854 46.7667 190.654 47.7333 190.654 48.9V49.7H184.054V48.05ZM187.304 62.3C186.104 62.3 185.071 61.8833 184.204 61.05C183.371 60.1833 182.954 59.15 182.954 57.95C182.954 56.75 183.371 55.7333 184.204 54.9C185.071 54.0667 186.104 53.65 187.304 53.65C188.504 53.65 189.521 54.0667 190.354 54.9C191.187 55.7333 191.604 56.75 191.604 57.95C191.604 59.15 191.187 60.1833 190.354 61.05C189.521 61.8833 188.504 62.3 187.304 62.3Z" fill="white"/>
</g>
<path d="M133.5 346.5C133.5 346.5 102.023 353.219 69.0005 402.041L123.567 459.899L133.5 346.5Z" fill="#3CAF47"/>
<path d="M268.237 343.38C314.778 353.852 331.144 421.657 342.064 451.52L264.343 480.595C256.5 457.178 185.314 355.919 268.237 343.38V343.38Z" fill="#3CAF47"/>
<path d="M265.351 343.081C209.824 332.882 178.888 332.202 137.385 344.713C97.2447 356.816 124.695 485.355 135.779 533.632H251.816L289.043 390.052C283.95 378.575 282.725 344.142 265.351 343.081V343.081Z" fill="#3CAF47"/>
<path d="M264.316 480.595L280.737 417.278" stroke="black" stroke-width="0.48" stroke-linecap="round" stroke-linejoin="round"/>
<path d="M117.369 425.41C117.369 425.41 114.809 399.49 115.708 389.264" stroke="black" stroke-width="0.48" stroke-linecap="round" stroke-linejoin="round"/>
<path d="M240.978 338.838C240.978 338.838 221.398 336.445 210.232 335.629L175.456 336.88C175.456 336.88 163.093 338.43 157.646 339.736L180.522 368.294L241.005 338.838H240.978Z" fill="#EEBFAC"/>
<path d="M251.817 533.604L258.135 554.792C258.135 554.792 200.756 582.969 125.894 562.38L135.779 533.604H251.817V533.604Z" fill="#1E0B02"/>
<path d="M233.925 270.598C239.072 289.528 258.598 300.706 277.524 295.566C296.478 290.425 307.671 270.924 302.524 252.021C297.377 233.092 277.851 221.913 258.924 227.054C239.971 232.194 228.778 251.695 233.925 270.598V270.598Z" fill="#DE8778"/>
<path d="M201.356 244.923C204.896 257.951 218.322 265.621 231.366 262.085C244.41 258.549 252.09 245.14 248.55 232.112C245.01 219.084 231.584 211.415 218.54 214.95C205.495 218.486 197.816 231.895 201.356 244.923V244.923Z" fill="white"/>
<path d="M127.254 201.215C127.254 201.215 133.409 214.27 153.343 208.314L143.893 189.194C143.893 189.194 131.448 191.342 127.254 201.215V201.215Z" fill="#DE8778"/>
<path d="M248.711 220.281C248.466 251.668 219.191 276.908 187.764 276.636C156.338 276.391 134.661 250.743 134.933 219.356C135.206 187.97 160.859 162.757 192.285 163.002C223.711 163.247 248.983 188.894 248.711 220.281V220.281Z" fill="#DE8778"/>
<path d="M122.435 253.082C122.898 262.139 131.885 270.081 142.451 270.843C153.045 271.577 161.242 264.859 160.752 255.802C160.289 246.745 151.302 238.803 140.736 238.042C130.142 237.307 121.945 244.025 122.435 253.082Z" fill="#DDA08E"/>
<path d="M175.266 287.923L175.457 346.046L219.601 344.033L206.502 259.8L175.266 287.923Z" fill="#EEBFAC"/>
<path d="M175.267 320.425L206.203 279.682L175.267 292.873V320.425Z" fill="#DDA08E"/>
<path d="M164.509 172.412C149.122 176.818 133.954 194.742 131.394 209.864C128.453 227.298 125.158 254.442 130.168 268.286C135.588 283.272 146.154 294.451 161.976 298.122C177.39 301.685 193.266 296.3 203.669 285.366C210.559 278.105 216.904 266.79 224.829 249.601C254.866 184.352 199.067 162.539 164.509 172.412Z" fill="#EEBFAC"/>
<path d="M138.503 244.569C137.958 246.527 135.861 247.697 133.791 247.18C131.722 246.663 130.496 244.678 131.041 242.72C131.586 240.761 133.682 239.592 135.752 240.109C137.822 240.625 139.047 242.611 138.503 244.569Z" fill="#221915"/>
<path d="M172.38 245.086C171.835 247.044 169.738 248.214 167.668 247.697C165.599 247.18 164.373 245.195 164.918 243.237C165.462 241.278 167.559 240.109 169.629 240.626C171.699 241.142 172.924 243.128 172.38 245.086Z" fill="#221915"/>
<path d="M144.466 247.316L141.579 258.984L148.333 260.943" stroke="black" stroke-width="0.47" stroke-linecap="round" stroke-linejoin="round"/>
<path d="M172.407 219.873C172.407 219.873 180.686 221.75 184.553 224.579C186.949 226.319 186.677 229.066 183.573 229.719C180.74 230.317 174.831 229.148 171.318 228.413C162.712 226.591 157.211 222.947 157.947 220.444C158.927 217.208 167.887 218.649 172.38 219.9L172.407 219.873Z" fill="black"/>
<path d="M133.301 219.003C133.301 219.003 129.107 219.356 125.893 221.26C123.906 222.43 123.742 224.742 125.893 225.612C127.881 226.428 130.251 226.401 132.919 226.156C139.455 225.585 142.478 223.409 142.287 221.26C142.015 218.486 136.759 218.459 133.301 218.976V219.003Z" fill="black"/>
<path d="M149.236 273.624C149.236 273.624 151.121 264.981 163.43 265.991" stroke="black" stroke-width="0.47" stroke-linecap="round" stroke-linejoin="round"/>
<path d="M208.382 206.546L207.973 258.658L240.298 242.23L240.598 206.546H208.382Z" fill="#DE8778"/>
<path d="M235.723 250.607C237.657 258.93 231.856 268.096 222.76 271.06C213.665 274.025 204.705 269.673 202.772 261.323C200.838 253.001 206.639 243.835 215.734 240.87C224.83 237.906 233.79 242.257 235.723 250.607V250.607Z" fill="#EEBFAC"/>
<path d="M195.554 163.029C195.554 163.029 134.989 160.581 127.255 201.215C127.255 201.215 153.343 193.029 166.687 170.155L195.554 163.029Z" fill="#DE8778"/>
<path d="M144.957 175.975C144.957 175.975 127.583 214.107 233.708 219.275L236.703 191.261L195.092 164.797C193.295 163.655 191.116 163.328 189.074 163.899L144.957 176.003V175.975Z" fill="#DE8778"/>
<path d="M308.74 548.488L201.897 476.85L202.802 450.703C202.802 450.703 283.831 477.782 333.902 495.289C342.836 498.424 345.155 533.551 340.688 541.909L335.768 548.262C331.584 556.084 316.571 552.667 308.74 548.488V548.488Z" fill="#EEBFAC"/>
<path d="M222.621 462.252C222.621 462.252 209.361 451.719 193.5 447.399C180.778 443.926 170.401 442.119 161.354 442.74C155.587 443.164 150.186 445.677 147.444 450.759L132.205 478.968C130.537 482.046 131.583 485.858 134.58 487.665C137.322 489.331 140.885 488.738 142.949 486.282L160.534 465.499C160.534 465.499 165.765 498.537 179.562 496.193C193.387 493.849 217.589 479.279 217.589 479.279L222.593 462.252H222.621Z" fill="#EEBFAC"/>
<path d="M44.7853 587.625H222.621C230.763 587.625 236.531 579.69 234.015 571.953L200.342 468.521C198.589 463.099 193.528 459.457 187.845 459.457L11.5366 459.598C3.78991 459.598 -1.75157 467.081 0.510251 474.479L32.2322 578.307C33.9286 583.841 39.0177 587.597 44.8136 587.597L44.7853 587.625Z" fill="#241A14"/>
<path d="M10.2645 502.207C10.2645 502.207 -3.78698 501.417 0.991104 521.804C5.76919 542.191 11.0562 556.479 27.7653 564.414C27.7653 564.414 43.1457 572.094 47.1038 562.55C47.1038 562.55 58.4977 567.04 59.8266 554.616C59.8266 554.616 64.8026 555.434 66.612 550.945C67.7429 548.121 66.6968 544.874 64.3502 542.897C59.9679 539.198 51.5144 532.393 24.1747 522.595C24.1747 522.595 62.4559 530.275 64.0392 526.576C65.6225 522.877 64.4916 518.839 49.7332 513.079C36.0775 507.77 10.2362 502.207 10.2362 502.207H10.2645Z" fill="#EEBFAC"/>
<path d="M95.9026 531.772C99.7194 539.057 108.032 542.248 114.478 538.888C120.924 535.527 123.073 526.887 119.284 519.602C115.467 512.316 107.155 509.126 100.709 512.486C94.2627 515.846 92.114 524.487 95.9026 531.772Z" fill="#3D3734"/>
<defs>
<clipPath id="clip0_1588_18878">
<rect width="208.29" height="129.17" fill="white" transform="translate(83.2539)"/>
</clipPath>
</defs>
</svg>
