<svg width="18" height="18" viewBox="0 0 18 18" fill="none" xmlns="http://www.w3.org/2000/svg">
<path d="M4.21875 9.00002C4.21875 8.10822 4.46446 7.2728 4.89132 6.55747V3.52321H1.85706C0.652781 5.08724 0 6.99338 0 9.00002C0 11.0067 0.652781 12.9128 1.85706 14.4768H4.89132V11.4426C4.46446 10.7273 4.21875 9.89183 4.21875 9.00002Z" fill="#FBBD00"/>
<path d="M9 13.7813L6.89062 15.8907L9 18.0001C11.0067 18.0001 12.9128 17.3473 14.4768 16.143V13.112H11.4458C10.7242 13.5404 9.88527 13.7813 9 13.7813Z" fill="#0F9D58"/>
<path d="M4.8912 11.4425L1.85693 14.4768C2.09536 14.7864 2.35499 15.083 2.63593 15.3639C4.3358 17.0638 6.59589 17.9999 8.99988 17.9999V13.7812C7.25528 13.7812 5.72623 12.8418 4.8912 11.4425Z" fill="#31AA52"/>
<path d="M18 9.00002C18 8.45246 17.9504 7.90389 17.8526 7.36958L17.7735 6.93719H9V11.1559H13.2698C12.8552 11.9807 12.2176 12.6537 11.4457 13.112L14.4768 16.143C14.7864 15.9046 15.083 15.6449 15.3639 15.364C17.0638 13.6641 18 11.404 18 9.00002Z" fill="#3C79E6"/>
<path d="M12.3809 5.61913L12.7537 5.992L15.7369 3.00892L15.364 2.63605C13.6641 0.936176 11.404 0 9 0L6.89062 2.10938L9 4.21875C10.2771 4.21875 11.4778 4.71607 12.3809 5.61913Z" fill="#CF2D48"/>
<path d="M8.99991 4.21875V0C6.59593 0 4.33584 0.936176 2.63593 2.63602C2.35499 2.91695 2.09536 3.21349 1.85693 3.52318L4.8912 6.55745C5.72627 5.15812 7.25532 4.21875 8.99991 4.21875Z" fill="#EB4132"/>
</svg>
