<svg width="150" height="33" viewBox="0 0 150 33" fill="none" xmlns="http://www.w3.org/2000/svg">
<path d="M55.1059 10.9023H51.6572V27.3669H55.1059V20.692H62.6707V27.3669H66.0081V10.9023H62.6707V17.5771H55.1059V10.9023ZM81.5828 20.3583C81.5828 23.0282 80.2478 24.4744 77.8003 24.4744C75.3529 24.4744 74.0179 23.0282 74.0179 20.247V10.9023H70.6805V20.3583C70.6805 25.0307 73.2392 27.7006 77.8003 27.7006C82.3615 27.7006 84.9202 25.0307 84.9202 20.247V10.9023H81.5828V20.3583ZM113.844 10.9023L110.062 22.2495L106.391 10.9023H102.831L108.616 27.3669H111.397L115.179 16.5759L118.851 27.3669H121.743L127.417 10.9023H123.968L120.297 22.2495L116.514 10.9023H113.844ZM139.543 17.2434H133.424V13.9059H142.324V10.9023H130.087V27.3669H142.658V24.3632H133.424V20.247H139.543V17.2434ZM146.662 10.9023H150V27.3669H146.662V10.9023ZM99.0486 23.9182L100.495 27.3669H104.055L96.8236 10.9023L96.7124 10.791H93.82L86.5889 27.3669H90.0376L91.4838 24.1407L91.595 23.9182H99.0486ZM95.2662 15.0184L97.6024 20.5808L97.7136 20.9145H92.5962L92.7075 20.5808L95.2662 15.0184Z" fill="#262729"/>
<path d="M18.7282 25.6981C18.7282 25.6981 18.8394 25.5869 18.7282 25.5869C13.6108 14.4622 6.60221 5.89611 6.60221 5.89611C6.60221 5.89611 2.8198 9.45602 3.04229 13.1272C3.15354 15.9084 5.26724 17.4658 5.26724 17.4658C8.60466 20.692 16.6145 24.8082 18.5057 25.6981H18.7282ZM17.3932 28.4793C17.3932 28.3681 17.1707 28.3681 17.1707 28.3681L3.82102 28.8131C5.26724 31.3717 7.71468 33.3742 10.2734 32.818C12.0533 32.373 16.0582 29.5918 17.2819 28.7018C17.5044 28.4793 17.3932 28.4793 17.3932 28.4793ZM17.6157 27.2556C17.7269 27.1443 17.6157 27.0331 17.6157 27.0331C11.7196 23.0282 0.372357 17.0208 0.372357 17.0208C-0.628869 20.247 0.706099 22.8057 0.706099 22.8057C2.15231 25.9206 4.9335 26.8106 4.9335 26.8106C6.15722 27.3668 7.49219 27.3668 7.49219 27.3668H17.5044C17.6157 27.3668 17.6157 27.2556 17.6157 27.2556ZM18.5057 0.111247C17.9494 0.111247 16.392 0.556237 16.392 0.556237C12.8321 1.44622 12.0533 4.67239 12.0533 4.67239C11.3858 6.67484 12.0533 8.89979 12.0533 8.89979C13.277 14.1284 19.0619 22.8057 20.2856 24.5857L20.3969 24.6969C20.5081 24.6969 20.5081 24.5857 20.5081 24.5857C22.5106 5.11738 18.5057 0.111247 18.5057 0.111247ZM22.9556 24.5857C23.0668 24.5857 23.1781 24.4744 23.1781 24.4744C24.513 22.5832 30.1866 14.0172 31.4104 8.78854C31.4104 8.78854 32.0778 6.22985 31.4104 4.56114C31.4104 4.56114 30.5204 1.33497 26.9605 0.444989C26.9605 0.444989 25.9592 0.222495 24.8468 0C24.8468 0 20.8419 5.11738 22.8443 24.3632C22.8443 24.5857 22.9556 24.5857 22.9556 24.5857ZM26.0705 28.3681C26.0705 28.3681 25.9592 28.3681 25.9592 28.4793V28.7018C27.2942 29.5918 31.0766 32.373 32.9678 32.818C32.9678 32.818 36.4165 34.0417 39.4202 28.8131L26.0705 28.3681ZM43.0913 16.9096C43.0913 16.9096 31.7441 23.0282 25.848 27.0331C25.848 27.0331 25.7367 27.1443 25.7367 27.2556C25.7367 27.2556 25.7367 27.3668 25.848 27.3668H36.0827C36.0827 27.3668 37.084 27.3668 38.4189 26.8106C38.4189 26.8106 41.2001 25.9206 42.7576 22.6945C42.7576 22.5832 44.0926 20.0245 43.0913 16.9096ZM24.7355 25.6981C24.7355 25.6981 24.8468 25.8094 24.958 25.6981C26.8492 24.6969 34.859 20.692 38.1964 17.4658C38.1964 17.4658 40.3102 15.7971 40.4214 13.1272C40.6439 9.34477 36.8615 5.89611 36.8615 5.89611C36.8615 5.89611 29.8529 14.2397 24.7355 25.4756C24.7355 25.4756 24.6243 25.5869 24.7355 25.6981Z" fill="#CF0A2C"/>
</svg>
