<svg width="130" height="58" viewBox="0 0 130 58" fill="none" xmlns="http://www.w3.org/2000/svg">
<path d="M28.527 57.0089C44.2688 57.0089 57.0539 44.2614 57.0539 28.5107C57.0539 12.7593 44.2688 0 28.527 0C12.7607 0 0 12.7593 0 28.5107C0 44.2614 12.7607 57.0089 28.527 57.0089Z" fill="#A50034"/>
<path d="M35.3307 41.0101V38.7612H29.671V15.9987H27.3793V41.0101H35.3307ZM19.4176 22.823C21.3093 22.823 22.8342 21.2848 22.8342 19.4064C22.8342 17.5265 21.3093 15.9824 19.4176 15.9824C17.5259 15.9824 16.001 17.5265 16.001 19.4064C16.001 21.2863 17.5259 22.823 19.4176 22.823Z" fill="white"/>
<path d="M29.67 4.65284C29.3718 4.63808 28.8049 4.61963 28.5341 4.61963C15.3666 4.61963 4.65039 15.3396 4.65039 28.4989C4.65039 34.8907 7.13404 40.8817 11.6327 45.387C16.1497 49.8819 22.1437 52.3656 28.5341 52.3656C34.9 52.3656 40.8925 49.8819 45.4015 45.387C49.9112 40.8817 52.4066 34.8907 52.4066 28.4989V27.4368H35.3525V29.6348H50.1319C50.1319 29.6828 50.1319 29.916 50.1215 29.9765C49.3702 41.2264 39.9744 50.1365 28.5341 50.1365C22.743 50.1365 17.313 47.8846 13.2262 43.7949C9.12613 39.7222 6.86686 34.2965 6.86686 28.4981C6.86686 22.733 9.12613 17.2792 13.2262 13.194C17.313 9.11235 22.743 6.86045 28.5341 6.86045C28.7835 6.86045 29.3902 6.86045 29.67 6.87521V4.65284Z" fill="white"/>
<path d="M78.5077 9.59671H69.9355V46.7061H96.2645V39.4825H78.5077V9.59671ZM115.122 32.5644H122.103V39.0529C120.816 39.543 118.306 40.0316 115.917 40.0316C108.202 40.0316 105.632 36.1131 105.632 28.1544C105.632 20.5646 108.08 16.0896 115.795 16.0896C120.082 16.0896 122.531 17.4374 124.549 20.0096L129.879 15.1095C126.633 10.4595 120.937 9.05127 115.612 9.05127C103.608 9.05127 97.3022 15.6025 97.3022 28.0924C97.3022 40.5217 102.997 47.2567 115.551 47.2567C121.306 47.2567 126.94 45.7879 130 43.6453V25.6434H115.122V32.5644Z" fill="#6B6B6B"/>
</svg>
