<svg width="20" height="20" viewBox="0 0 20 20" fill="none" xmlns="http://www.w3.org/2000/svg">
<circle cx="10" cy="10" r="10" fill="url(#paint0_linear_1326_19334)"/>
<path fill-rule="evenodd" clip-rule="evenodd" d="M12.0632 4.91122C12.4012 4.91122 12.7387 4.9589 13.0596 5.06658C15.037 5.70943 15.7495 7.87907 15.1543 9.7755C14.8168 10.7446 14.265 11.6291 13.5423 12.3518C12.5078 13.3535 11.3727 14.2428 10.1507 15.0089L10.0168 15.0898L9.87749 15.0035C8.65124 14.2428 7.50963 13.3535 6.46553 12.3464C5.74767 11.6237 5.19535 10.7446 4.85249 9.7755C4.24713 7.87907 4.95964 5.70943 6.95838 5.05533C7.11374 5.00175 7.27392 4.96425 7.43463 4.94336H7.49892C7.64946 4.9214 7.79892 4.91122 7.94892 4.91122H8.00785C8.34535 4.9214 8.67213 4.98033 8.98874 5.088H9.02035C9.04178 5.09818 9.05785 5.10943 9.06856 5.11961C9.18696 5.15765 9.29892 5.2005 9.40606 5.25943L9.60963 5.3505C9.65883 5.37674 9.71404 5.41683 9.76176 5.45147C9.79199 5.47342 9.81921 5.49319 9.83999 5.50586C9.84873 5.51102 9.85762 5.5162 9.86658 5.52143C9.91251 5.54825 9.96036 5.57618 10.0007 5.60711C10.5959 5.15229 11.3186 4.90586 12.0632 4.91122ZM13.4882 8.76836C13.7079 8.76247 13.8954 8.58622 13.9115 8.36068V8.29693C13.9275 7.5464 13.4727 6.86657 12.7811 6.60407C12.5615 6.52854 12.3204 6.64693 12.24 6.87193C12.165 7.09693 12.2829 7.34336 12.5079 7.42318C12.8513 7.55175 13.0811 7.88979 13.0811 8.26425V8.28086C13.0709 8.40354 13.1079 8.52193 13.1829 8.613C13.2579 8.70407 13.3704 8.75711 13.4882 8.76836Z" fill="white"/>
<defs>
<linearGradient id="paint0_linear_1326_19334" x1="0" y1="10" x2="20" y2="10" gradientUnits="userSpaceOnUse">
<stop stop-color="#FFD426"/>
<stop offset="1" stop-color="#3CAF47"/>
</linearGradient>
</defs>
</svg>
