<svg width="629" height="611" viewBox="0 0 629 611" fill="none" xmlns="http://www.w3.org/2000/svg">
<path d="M368.93 611C225.297 611 108.86 494.709 108.86 351.257C108.86 207.805 225.297 91.5146 368.93 91.5146C512.563 91.5146 629 207.805 629 351.257C629 494.709 512.563 611 368.93 611Z" fill="#F9FDF9"/>
<path d="M504.37 422.232H463.657V422.539H504.37V422.232Z" fill="#EBEBEB"/>
<path d="M358.484 425.575H347.802V425.883H358.484V425.575Z" fill="#EBEBEB"/>
<path d="M462.428 410.824H438.839V411.132H462.428V410.824Z" fill="#EBEBEB"/>
<path d="M244.385 347.629H7.01896C5.15742 347.629 3.37212 346.89 2.05581 345.573C0.739496 344.257 0 342.472 0 340.61V6.9575C0.0162079 5.10663 0.762852 3.33708 2.07741 2.03403C3.39197 0.730983 5.16802 -7.0959e-05 7.01896 5.16594e-09H244.385C245.307 5.16595e-09 246.22 0.181549 247.071 0.534285C247.923 0.887021 248.697 1.40404 249.348 2.05581C250 2.70758 250.517 3.48134 250.87 4.33292C251.223 5.1845 251.404 6.09722 251.404 7.01896V340.61C251.404 341.532 251.223 342.445 250.87 343.296C250.517 344.148 250 344.922 249.348 345.573C248.697 346.225 247.923 346.742 247.071 347.095C246.22 347.448 245.307 347.629 244.385 347.629ZM7.01896 0.245849C5.23992 0.249098 3.53467 0.957259 2.2767 2.21523C1.01872 3.47321 0.310559 5.17846 0.30731 6.9575V340.61C0.310559 342.389 1.01872 344.094 2.2767 345.352C3.53467 346.61 5.23992 347.319 7.01896 347.322H244.385C246.164 347.319 247.87 346.61 249.128 345.352C250.386 344.094 251.094 342.389 251.097 340.61V6.9575C251.094 5.17846 250.386 3.47321 249.128 2.21523C247.87 0.957259 246.164 0.249098 244.385 0.245849H7.01896Z" fill="#EBEBEB"/>
<path d="M510.27 347.629H272.904C271.042 347.629 269.257 346.89 267.941 345.573C266.624 344.257 265.885 342.472 265.885 340.61V6.9575C265.901 5.10663 266.648 3.33708 267.962 2.03403C269.277 0.730983 271.053 -7.0959e-05 272.904 5.16594e-09H510.27C512.132 5.16596e-09 513.917 0.739496 515.233 2.05581C516.549 3.37212 517.289 5.15742 517.289 7.01896V340.61C517.289 342.472 516.549 344.257 515.233 345.573C513.917 346.89 512.132 347.629 510.27 347.629ZM272.904 0.245849C271.125 0.249098 269.419 0.957259 268.161 2.21523C266.903 3.47321 266.195 5.17846 266.192 6.9575V340.61C266.195 342.389 266.903 344.094 268.161 345.352C269.419 346.61 271.125 347.319 272.904 347.322H510.27C512.049 347.319 513.754 346.61 515.012 345.352C516.27 344.094 516.978 342.389 516.982 340.61V6.9575C516.978 5.17846 516.27 3.47321 515.012 2.21523C513.754 0.957259 512.049 0.249098 510.27 0.245849H272.904Z" fill="#EBEBEB"/>
<path d="M98.0194 319.295C96.9869 307.421 84.8666 302.983 70.4967 304.237C56.1269 305.491 44.9777 311.969 45.9857 323.843L98.0194 319.295Z" fill="#DFDFDF"/>
<path d="M70.0296 298.816C76.6921 298.226 78.8187 292.596 78.2409 285.934C77.6632 279.271 74.5532 274.096 67.9153 274.674C61.2774 275.252 59.1263 280.894 59.704 287.556C60.2818 294.219 63.3671 299.394 70.0296 298.816Z" fill="#DFDFDF"/>
<path d="M369.398 66.379C369.515 67.6969 369.238 69.0197 368.602 70.1802C367.967 71.3406 367.001 72.2865 365.828 72.8981C364.655 73.5097 363.327 73.7596 362.012 73.6161C360.696 73.4726 359.453 72.9422 358.44 72.0921C357.426 71.2419 356.687 70.1101 356.317 68.84C355.947 67.5698 355.962 66.2184 356.36 64.9566C356.758 63.6949 357.521 62.5796 358.553 61.7519C359.585 60.9241 360.84 60.4211 362.158 60.3066C363.923 60.1531 365.677 60.7064 367.034 61.8449C368.392 62.9835 369.242 64.6142 369.398 66.379Z" fill="#F5F5F5"/>
<path d="M406.363 63.1092C406.477 64.4243 406.198 65.7438 405.563 66.9008C404.927 68.0577 403.962 69.0002 402.791 69.609C401.62 70.2178 400.294 70.4656 398.982 70.321C397.67 70.1765 396.43 69.6461 395.419 68.797C394.409 67.9478 393.672 66.818 393.304 65.5504C392.935 64.2828 392.95 62.9344 393.348 61.6756C393.746 60.4168 394.508 59.3042 395.538 58.4785C396.568 57.6528 397.82 57.1511 399.135 57.0367C400.898 56.8867 402.648 57.4415 404.003 58.5797C405.358 59.7179 406.206 61.3466 406.363 63.1092Z" fill="#F5F5F5"/>
<path d="M443.337 59.8762C443.454 61.1941 443.177 62.517 442.542 63.6774C441.906 64.8378 440.941 65.7837 439.768 66.3953C438.595 67.007 437.266 67.2568 435.951 67.1134C434.636 66.9699 433.393 66.4395 432.379 65.5893C431.365 64.7391 430.627 63.6073 430.256 62.3372C429.886 61.067 429.901 59.7156 430.299 58.4539C430.697 57.1922 431.46 56.0769 432.493 55.2491C433.525 54.4214 434.779 53.9184 436.097 53.8038C437.862 53.6503 439.616 54.2036 440.974 55.3422C442.331 56.4807 443.181 58.1114 443.337 59.8762Z" fill="#F5F5F5"/>
<path d="M372.693 104.018C372.809 105.336 372.533 106.659 371.897 107.819C371.262 108.98 370.296 109.926 369.123 110.537C367.95 111.149 366.622 111.399 365.307 111.255C363.991 111.112 362.748 110.582 361.735 109.731C360.721 108.881 359.982 107.749 359.612 106.479C359.242 105.209 359.257 103.858 359.655 102.596C360.053 101.334 360.816 100.219 361.848 99.3912C362.88 98.5635 364.135 98.0605 365.453 97.9459C367.218 97.7924 368.972 98.3457 370.329 99.4842C371.686 100.623 372.537 102.253 372.693 104.018Z" fill="#F5F5F5"/>
<path d="M409.657 100.798C409.771 102.113 409.492 103.432 408.857 104.589C408.221 105.746 407.256 106.689 406.085 107.297C404.914 107.906 403.588 108.154 402.276 108.01C400.964 107.865 399.724 107.335 398.713 106.485C397.702 105.636 396.966 104.506 396.598 103.239C396.229 101.971 396.244 100.623 396.642 99.3641C397.04 98.1053 397.802 96.9927 398.832 96.167C399.862 95.3413 401.113 94.8395 402.429 94.7252C403.302 94.6493 404.182 94.7461 405.018 95.0102C405.853 95.2743 406.629 95.7004 407.3 96.2643C407.972 96.8282 408.525 97.5188 408.929 98.2966C409.334 99.0745 409.581 99.9243 409.657 100.798Z" fill="#F5F5F5"/>
<path d="M446.631 97.5525C446.748 98.8704 446.471 100.193 445.836 101.354C445.2 102.514 444.235 103.46 443.062 104.072C441.889 104.683 440.56 104.933 439.245 104.79C437.93 104.646 436.687 104.116 435.673 103.266C434.659 102.415 433.921 101.284 433.55 100.013C433.18 98.7433 433.195 97.3919 433.593 96.1301C433.991 94.8684 434.754 93.7531 435.786 92.9254C436.819 92.0976 438.073 91.5946 439.391 91.48C441.156 91.3266 442.91 91.8799 444.267 93.0184C445.625 94.1569 446.475 95.7877 446.631 97.5525Z" fill="#F5F5F5"/>
<path d="M375.988 141.707C376.102 143.022 375.823 144.341 375.188 145.498C374.552 146.655 373.587 147.598 372.416 148.207C371.245 148.815 369.919 149.063 368.607 148.919C367.295 148.774 366.055 148.244 365.044 147.395C364.034 146.545 363.297 145.416 362.929 144.148C362.56 142.88 362.575 141.532 362.973 140.273C363.371 139.014 364.133 137.902 365.163 137.076C366.193 136.25 367.445 135.749 368.76 135.634C369.633 135.557 370.514 135.652 371.35 135.916C372.187 136.179 372.963 136.605 373.635 137.17C374.306 137.734 374.86 138.425 375.264 139.204C375.667 139.982 375.913 140.833 375.988 141.707Z" fill="#F5F5F5"/>
<path d="M412.963 138.462C413.08 139.78 412.803 141.102 412.168 142.263C411.532 143.423 410.567 144.369 409.394 144.981C408.221 145.592 406.892 145.842 405.577 145.699C404.262 145.555 403.019 145.025 402.005 144.175C400.991 143.325 400.253 142.193 399.882 140.923C399.512 139.652 399.527 138.301 399.925 137.039C400.323 135.778 401.086 134.662 402.119 133.835C403.151 133.007 404.405 132.504 405.723 132.389C407.488 132.236 409.242 132.789 410.6 133.928C411.957 135.066 412.807 136.697 412.963 138.462Z" fill="#F5F5F5"/>
<path d="M449.926 135.216C450.043 136.534 449.766 137.857 449.131 139.018C448.495 140.178 447.53 141.124 446.357 141.736C445.183 142.347 443.855 142.597 442.54 142.454C441.225 142.31 439.982 141.78 438.968 140.93C437.954 140.079 437.216 138.948 436.845 137.677C436.475 136.407 436.49 135.056 436.888 133.794C437.286 132.532 438.049 131.417 439.081 130.589C440.114 129.762 441.368 129.259 442.686 129.144C444.451 128.991 446.205 129.544 447.562 130.682C448.92 131.821 449.77 133.452 449.926 135.216Z" fill="#F5F5F5"/>
<path d="M441.936 137.404L365.994 144.042L433.332 62.2241L364.359 68.2597C364.166 68.2782 363.972 68.2581 363.788 68.2004C363.603 68.1427 363.432 68.0487 363.284 67.9238C363.136 67.799 363.015 67.6458 362.927 67.4734C362.839 67.301 362.787 67.1128 362.773 66.9198C362.739 66.5335 362.86 66.1495 363.109 65.8521C363.358 65.5548 363.715 65.3685 364.101 65.3341L440.056 58.6962L372.706 140.514L441.703 134.479C442.092 134.448 442.477 134.571 442.776 134.822C443.075 135.072 443.263 135.43 443.301 135.819C443.316 136.013 443.292 136.207 443.232 136.392C443.171 136.577 443.075 136.748 442.948 136.895C442.821 137.043 442.667 137.164 442.493 137.251C442.319 137.338 442.13 137.39 441.936 137.404Z" fill="#E6E6E6"/>
<path d="M443.103 283.475C442.986 283.117 442.766 282.802 442.471 282.568C442.176 282.334 441.819 282.192 441.443 282.16C438.141 282.008 435.015 280.627 432.679 278.288C429.643 275.227 427.86 270.593 427.565 265.086C427.537 264.589 427.321 264.122 426.96 263.779C426.599 263.436 426.121 263.244 425.623 263.242C425.354 263.243 425.088 263.299 424.841 263.406C424.595 263.513 424.372 263.669 424.187 263.864C424.002 264.059 423.859 264.29 423.765 264.542C423.672 264.794 423.631 265.063 423.644 265.332C423.988 271.797 426.176 277.329 429.901 281.054C432.818 283.975 436.687 285.751 440.804 286.057H441.087C441.41 286.081 441.734 286.026 442.031 285.895C442.328 285.764 442.587 285.562 442.787 285.306C442.986 285.051 443.119 284.75 443.175 284.43C443.23 284.111 443.205 283.783 443.103 283.475Z" fill="#DFDFDF"/>
<path d="M439.171 307.064C422.884 305.638 411.132 294.538 407.42 277.206C407.361 276.946 407.355 276.676 407.403 276.414C407.451 276.151 407.551 275.901 407.698 275.678C407.845 275.455 408.036 275.265 408.258 275.117C408.481 274.97 408.731 274.869 408.994 274.821C409.491 274.733 410.003 274.839 410.425 275.119C410.846 275.398 411.143 275.828 411.255 276.321C414.587 291.895 425.035 301.877 439.528 303.143C455.41 304.532 472.459 294.083 475.52 267.753C475.573 267.24 475.826 266.768 476.223 266.439C476.621 266.11 477.132 265.951 477.647 265.995C477.907 266.017 478.161 266.09 478.392 266.211C478.624 266.332 478.829 266.499 478.995 266.7C479.161 266.902 479.285 267.135 479.36 267.386C479.434 267.636 479.458 267.899 479.429 268.159C476.491 292.989 460.167 308.896 439.171 307.064Z" fill="#DFDFDF"/>
<path d="M408.44 259.935C408.179 259.914 407.926 259.84 407.694 259.719C407.463 259.598 407.258 259.432 407.092 259.23C406.925 259.028 406.801 258.795 406.727 258.545C406.652 258.294 406.629 258.031 406.657 257.772C409.583 232.941 425.907 217.022 446.89 218.866C465.329 220.477 477.683 234.244 479.613 254.981C479.633 255.242 479.601 255.503 479.519 255.751C479.437 255.999 479.306 256.228 479.134 256.425C478.963 256.622 478.753 256.782 478.519 256.898C478.285 257.013 478.03 257.08 477.769 257.096C477.256 257.12 476.754 256.943 476.368 256.604C475.983 256.264 475.745 255.788 475.704 255.276C473.921 236.592 462.895 224.213 446.559 222.788C430.738 221.398 413.615 231.835 410.566 258.14C410.545 258.398 410.473 258.649 410.354 258.878C410.235 259.108 410.073 259.312 409.875 259.479C409.678 259.645 409.449 259.771 409.203 259.85C408.957 259.928 408.697 259.957 408.44 259.935Z" fill="#DFDFDF"/>
<path d="M439.969 296.53C437.049 296.295 434.188 295.581 431.5 294.415C431.249 294.305 431.024 294.145 430.839 293.944C430.653 293.742 430.512 293.505 430.423 293.246C430.334 292.987 430.3 292.713 430.322 292.44C430.345 292.168 430.423 291.902 430.553 291.662C430.784 291.239 431.163 290.917 431.617 290.758C432.071 290.599 432.568 290.615 433.012 290.801C435.575 291.902 438.314 292.535 441.1 292.67C453.135 293.358 465.845 284.827 467.099 264.225C467.861 251.527 463.509 241.275 455.396 236.371C454.976 236.116 454.667 235.715 454.528 235.244C454.389 234.773 454.431 234.267 454.647 233.826C454.769 233.582 454.94 233.366 455.149 233.191C455.358 233.016 455.601 232.886 455.863 232.809C456.125 232.731 456.399 232.709 456.67 232.742C456.941 232.775 457.202 232.864 457.437 233.002C466.841 238.682 471.88 250.212 471.02 264.459C469.791 284.323 457.425 297.55 440.867 296.603L439.969 296.53Z" fill="#DFDFDF"/>
<path d="M422.464 284.274C422.238 284.427 421.982 284.532 421.714 284.582C421.445 284.633 421.169 284.627 420.903 284.566C420.636 284.505 420.385 284.389 420.165 284.227C419.945 284.065 419.761 283.859 419.624 283.623C415.981 276.848 414.38 269.162 415.015 261.496C416.17 242.48 427.565 229.536 443.041 229.315C443.314 229.309 443.585 229.36 443.837 229.464C444.089 229.568 444.316 229.723 444.506 229.919C444.695 230.116 444.842 230.349 444.937 230.604C445.032 230.86 445.073 231.132 445.057 231.405C445.027 231.896 444.813 232.358 444.458 232.7C444.103 233.041 443.632 233.237 443.14 233.248C431.659 233.47 420.128 242.148 418.948 261.73C418.352 268.649 419.778 275.593 423.054 281.717C423.3 282.142 423.377 282.645 423.267 283.124C423.158 283.603 422.871 284.023 422.464 284.299V284.274Z" fill="#DFDFDF"/>
<path d="M449.337 282.725C449.15 282.288 449.129 281.798 449.275 281.346C449.422 280.894 449.728 280.511 450.136 280.267C455.311 277.157 458.482 270.63 458.531 262.75C458.531 256.444 456.749 251.109 453.381 247.729C452.073 246.433 450.514 245.418 448.8 244.745C447.085 244.073 445.252 243.758 443.412 243.82C437.351 243.82 432.435 247.151 429.718 253.002C429.508 253.447 429.139 253.796 428.683 253.981C428.228 254.165 427.719 254.172 427.259 253.998C427.003 253.903 426.769 253.756 426.572 253.566C426.376 253.376 426.22 253.147 426.116 252.894C426.012 252.641 425.962 252.37 425.968 252.096C425.975 251.823 426.038 251.554 426.153 251.306C429.521 244.139 435.827 239.899 443.362 239.886C445.723 239.825 448.071 240.243 450.266 241.113C452.461 241.983 454.457 243.289 456.134 244.951C460.252 249.081 462.489 255.412 462.44 262.787C462.367 272.068 458.458 279.861 452.09 283.684C451.849 283.816 451.583 283.895 451.309 283.918C451.036 283.941 450.76 283.906 450.501 283.815C450.241 283.725 450.004 283.581 449.803 283.394C449.603 283.206 449.444 282.978 449.337 282.725Z" fill="#DFDFDF"/>
<path d="M435.176 268.208C434.913 268.315 434.631 268.364 434.348 268.352C434.064 268.339 433.787 268.266 433.535 268.136C433.283 268.006 433.062 267.824 432.887 267.601C432.711 267.378 432.587 267.119 432.521 266.844C432.386 266.315 432.287 265.762 432.201 265.196C431.083 257.821 435.041 251.441 441.396 250.298C442.876 249.976 444.41 250.005 445.877 250.383C447.343 250.761 448.701 251.477 449.841 252.474C450.055 252.664 450.223 252.9 450.333 253.164C450.443 253.428 450.493 253.714 450.477 254C450.462 254.285 450.382 254.564 450.244 254.815C450.107 255.066 449.914 255.282 449.681 255.448L449.558 255.535C449.19 255.791 448.744 255.912 448.296 255.879C447.848 255.845 447.426 255.659 447.1 255.35C446.41 254.768 445.595 254.354 444.718 254.141C443.842 253.927 442.927 253.921 442.048 254.121C437.204 254.994 435.36 260.034 436.049 264.557C436.123 265 436.196 265.43 436.307 265.786C436.426 266.249 436.373 266.74 436.158 267.167C435.943 267.594 435.582 267.929 435.139 268.11L435.176 268.208Z" fill="#DFDFDF"/>
<path d="M441.679 275.78C441.369 275.75 441.071 275.641 440.815 275.464C440.559 275.287 440.352 275.047 440.214 274.768C440.077 274.488 440.012 274.178 440.028 273.867C440.043 273.556 440.137 273.254 440.302 272.99L440.474 272.719C440.65 272.438 440.901 272.21 441.197 272.06C441.494 271.91 441.827 271.845 442.158 271.871C442.775 271.906 443.394 271.869 444.002 271.76C448.23 270.998 450.148 267.065 450.148 263.057C450.136 262.576 450.298 262.107 450.606 261.736C450.913 261.365 451.344 261.119 451.82 261.041C452.093 261 452.371 261.016 452.637 261.089C452.903 261.162 453.151 261.29 453.364 261.465C453.578 261.64 453.752 261.858 453.875 262.105C453.999 262.352 454.069 262.622 454.082 262.898C454.192 269.314 450.394 274.612 444.702 275.633C443.706 275.817 442.689 275.867 441.679 275.78Z" fill="#DFDFDF"/>
<path d="M442.552 268.515C441.559 268.432 440.617 268.039 439.859 267.393C439.101 266.748 438.563 265.88 438.323 264.914C438.254 264.641 438.25 264.355 438.314 264.081C438.377 263.807 438.504 263.552 438.686 263.336C438.867 263.121 439.097 262.953 439.357 262.844C439.617 262.736 439.899 262.691 440.179 262.713H440.634C440.978 262.749 441.304 262.885 441.573 263.103C441.841 263.321 442.04 263.613 442.146 263.942C442.189 264.114 442.284 264.268 442.419 264.382C442.553 264.497 442.72 264.566 442.896 264.582C443.842 264.668 444.002 263.352 444.027 263.033C444.084 262.554 443.994 262.07 443.769 261.644C443.429 261.234 443.254 260.713 443.277 260.181C443.308 259.79 443.455 259.418 443.699 259.112C443.943 258.805 444.274 258.579 444.647 258.461C445.021 258.344 445.422 258.34 445.797 258.452C446.173 258.563 446.507 258.784 446.756 259.087C447.715 260.299 448.157 261.841 447.985 263.377C447.665 266.61 445.391 268.761 442.552 268.515Z" fill="#DFDFDF"/>
<path d="M405.576 224.521C405.319 224.499 405.069 224.427 404.84 224.308C404.611 224.189 404.407 224.026 404.242 223.829C404.076 223.631 403.951 223.402 403.874 223.156C403.797 222.91 403.77 222.651 403.793 222.394L405.281 205.345L422.33 206.844C422.587 206.866 422.838 206.938 423.067 207.057C423.295 207.176 423.499 207.339 423.664 207.536C423.83 207.734 423.955 207.963 424.032 208.209C424.109 208.455 424.136 208.714 424.113 208.971C424.091 209.228 424.019 209.479 423.9 209.709C423.782 209.938 423.619 210.142 423.421 210.309C423.224 210.476 422.995 210.602 422.749 210.68C422.503 210.758 422.244 210.787 421.986 210.766L408.858 209.61L407.715 222.738C407.691 222.996 407.618 223.246 407.498 223.475C407.378 223.704 407.214 223.908 407.015 224.073C406.816 224.239 406.587 224.363 406.34 224.44C406.093 224.517 405.833 224.544 405.576 224.521Z" fill="#DFDFDF"/>
<path d="M486.619 231.613C486.362 231.592 486.111 231.52 485.882 231.401C485.654 231.282 485.45 231.119 485.285 230.921C485.119 230.724 484.994 230.495 484.917 230.249C484.84 230.003 484.813 229.744 484.836 229.487L485.979 216.359L472.851 215.215C472.594 215.192 472.343 215.118 472.114 214.998C471.885 214.878 471.682 214.714 471.516 214.516C471.351 214.317 471.226 214.088 471.149 213.841C471.072 213.594 471.045 213.334 471.069 213.076C471.09 212.819 471.163 212.569 471.282 212.34C471.4 212.111 471.563 211.908 471.761 211.742C471.959 211.577 472.187 211.452 472.433 211.375C472.68 211.298 472.939 211.27 473.195 211.294L490.245 212.781L488.758 229.868C488.702 230.381 488.446 230.852 488.046 231.179C487.646 231.506 487.133 231.662 486.619 231.613Z" fill="#DFDFDF"/>
<path d="M480.584 323.29L463.535 321.803C463.277 321.78 463.027 321.706 462.798 321.586C462.569 321.466 462.366 321.302 462.2 321.103C462.034 320.904 461.91 320.675 461.833 320.428C461.756 320.181 461.729 319.921 461.752 319.664C461.774 319.407 461.846 319.157 461.965 318.928C462.084 318.699 462.247 318.496 462.445 318.33C462.642 318.164 462.871 318.039 463.117 317.962C463.363 317.885 463.622 317.858 463.879 317.882L477.007 319.025L478.15 305.909C478.172 305.65 478.245 305.398 478.364 305.168C478.484 304.937 478.647 304.733 478.846 304.566C479.045 304.399 479.275 304.273 479.523 304.196C479.77 304.118 480.031 304.09 480.289 304.114C480.546 304.136 480.797 304.208 481.026 304.327C481.254 304.446 481.458 304.609 481.623 304.806C481.789 305.004 481.914 305.232 481.991 305.479C482.068 305.725 482.095 305.984 482.072 306.241L480.584 323.29Z" fill="#DFDFDF"/>
<path d="M412.669 317.316L395.619 315.816L397.107 298.779C397.157 298.259 397.409 297.78 397.809 297.444C398.209 297.108 398.725 296.943 399.245 296.984C399.503 297.008 399.753 297.081 399.982 297.201C400.212 297.321 400.415 297.486 400.58 297.684C400.746 297.883 400.871 298.112 400.947 298.359C401.024 298.606 401.051 298.866 401.028 299.123L399.885 312.227L413.001 313.383C413.258 313.404 413.509 313.476 413.738 313.595C413.968 313.714 414.172 313.876 414.339 314.074C414.505 314.271 414.631 314.5 414.71 314.746C414.788 314.992 414.817 315.252 414.795 315.509C414.751 316.03 414.503 316.513 414.105 316.851C413.706 317.19 413.19 317.357 412.669 317.316Z" fill="#DFDFDF"/>
<path d="M43.1951 280.427C42.8748 280.451 42.5578 280.348 42.312 280.141C42.0662 279.935 41.9111 279.64 41.8799 279.32L40.9702 268.847L51.4433 267.925C51.7637 267.901 52.0806 268.003 52.3265 268.21C52.5723 268.417 52.7274 268.712 52.7586 269.031C52.7793 269.35 52.6755 269.664 52.469 269.907C52.2626 270.15 51.9697 270.303 51.6523 270.334L43.5885 271.047L44.2892 279.111C44.3134 279.43 44.2127 279.745 44.0085 279.99C43.8043 280.236 43.5126 280.392 43.1951 280.427Z" fill="#E0E0E0"/>
<path d="M93.029 276.063C92.7106 276.087 92.3953 275.986 92.1498 275.782C91.9043 275.578 91.7479 275.286 91.7137 274.969L91.013 266.893L82.9369 267.606C82.6166 267.63 82.2996 267.527 82.0538 267.321C81.8079 267.114 81.6528 266.819 81.6216 266.499C81.5976 266.179 81.6999 265.862 81.9067 265.616C82.1135 265.37 82.4082 265.215 82.7279 265.184L93.2011 264.274L94.123 274.748C94.1472 275.066 94.0465 275.381 93.8423 275.627C93.6381 275.872 93.3464 276.029 93.029 276.063Z" fill="#E0E0E0"/>
<path d="M98.1918 321.188L87.7064 322.11C87.3861 322.134 87.0691 322.032 86.8233 321.825C86.5775 321.618 86.4224 321.324 86.3911 321.004C86.3671 320.684 86.4695 320.367 86.6762 320.121C86.883 319.875 87.1778 319.72 87.4974 319.689L95.5613 318.988L94.8606 310.924C94.8364 310.606 94.9371 310.29 95.1413 310.045C95.3454 309.799 95.6371 309.643 95.9546 309.609C96.273 309.585 96.5883 309.685 96.8338 309.889C97.0793 310.094 97.2357 310.385 97.2699 310.703L98.1918 321.188Z" fill="#E0E0E0"/>
<path d="M56.4218 324.839L45.9856 325.749L45.0636 315.263C45.043 314.945 45.1468 314.631 45.3532 314.388C45.5597 314.145 45.8525 313.991 46.1699 313.96C46.4863 313.939 46.7985 314.042 47.0413 314.245C47.2841 314.449 47.4387 314.739 47.4729 315.054L48.1859 323.13L56.2497 322.417C56.57 322.393 56.887 322.496 57.1328 322.702C57.3786 322.909 57.5338 323.204 57.565 323.524C57.5767 323.685 57.5564 323.847 57.5052 324.001C57.454 324.155 57.373 324.297 57.2668 324.419C57.1605 324.541 57.0312 324.641 56.8862 324.713C56.7412 324.785 56.5834 324.828 56.4218 324.839Z" fill="#E0E0E0"/>
<path d="M92.1807 105.715L52.132 109.157L51.3085 99.7774C51.2483 95.3012 52.8828 90.9677 55.8843 87.6462C58.8858 84.3248 63.0322 82.2611 67.4917 81.8691C71.9512 81.4771 76.394 82.7859 79.9288 85.5328C83.4637 88.2797 85.8292 92.2616 86.5508 96.6797L87.0179 102.138L92.8076 101.634L92.3282 96.1758C92.0586 93.0974 91.1853 90.1022 89.7582 87.3613C88.3311 84.6204 86.3781 82.1874 84.0107 80.2013C81.6434 78.2152 78.908 76.7148 75.9607 75.7858C73.0135 74.8568 69.9122 74.5174 66.8338 74.787C60.6167 75.3314 54.8705 78.3233 50.8593 83.1044C48.8732 85.4718 47.3728 88.2072 46.4438 91.1544C45.5148 94.1017 45.1754 97.203 45.445 100.281L46.2686 109.722C43.9881 110.168 41.9533 111.442 40.5554 113.298C39.1575 115.155 38.4954 117.462 38.6964 119.777L41.5606 152.524C41.6627 153.76 42.008 154.964 42.5767 156.066C43.1453 157.168 43.926 158.147 44.874 158.946C45.8221 159.746 46.9187 160.35 48.101 160.725C49.2832 161.099 50.5278 161.237 51.7633 161.129L96.6674 157.208C97.9034 157.105 99.107 156.76 100.209 156.191C101.311 155.623 102.29 154.842 103.09 153.894C103.889 152.946 104.494 151.849 104.868 150.667C105.243 149.485 105.38 148.24 105.272 147.005L102.408 114.258C102.298 113.025 101.947 111.826 101.373 110.729C100.8 109.632 100.015 108.659 99.0655 107.866C98.1157 107.072 97.0187 106.474 95.8373 106.105C94.6559 105.736 93.4134 105.603 92.1807 105.715ZM75.1434 130.951L76.1268 142.223C76.193 142.677 76.1659 143.139 76.0471 143.582C75.9283 144.025 75.7203 144.439 75.436 144.798C75.1516 145.158 74.7968 145.456 74.3933 145.673C73.9898 145.891 73.5462 146.024 73.0895 146.064C72.6328 146.105 72.1727 146.051 71.7373 145.907C71.302 145.764 70.9006 145.532 70.5578 145.228C70.2149 144.924 69.9379 144.552 69.7435 144.137C69.5491 143.722 69.4416 143.271 69.4275 142.813L68.4441 131.529C67.43 130.906 66.6382 129.979 66.1815 128.88C65.7249 127.781 65.6265 126.566 65.9006 125.408C66.1746 124.25 66.807 123.208 67.7077 122.43C68.6085 121.653 69.7316 121.179 70.9173 121.077C72.1029 120.974 73.2906 121.249 74.3112 121.861C75.3318 122.473 76.1333 123.391 76.6015 124.485C77.0698 125.579 77.1809 126.793 76.9191 127.954C76.6573 129.115 76.0359 130.164 75.1434 130.951Z" fill="#EBEBEB"/>
<path d="M160.846 124.633L156.802 118.007C154.763 118.297 152.694 118.297 150.656 118.007L146.599 124.608L145.825 124.399C143.196 123.707 140.673 122.66 138.326 121.289L137.638 120.896L139.347 113.717C139.38 113.578 139.44 113.446 139.524 113.331C139.609 113.215 139.715 113.117 139.837 113.043C139.96 112.968 140.095 112.919 140.237 112.898C140.379 112.876 140.523 112.883 140.662 112.918C140.94 112.985 141.181 113.16 141.331 113.404C141.481 113.648 141.527 113.942 141.461 114.221L140.109 119.814C141.855 120.766 143.697 121.532 145.603 122.1L149.562 115.635L150.287 115.758C152.583 116.126 154.923 116.126 157.22 115.758L157.933 115.635L161.891 122.1C163.799 121.536 165.641 120.77 167.385 119.814L165.628 112.439L166.218 112.008C167.819 110.854 169.254 109.484 170.483 107.94C170.654 107.717 170.905 107.569 171.182 107.528C171.46 107.487 171.742 107.555 171.971 107.718C172.09 107.801 172.191 107.908 172.268 108.031C172.345 108.155 172.396 108.292 172.418 108.436C172.44 108.58 172.432 108.727 172.396 108.868C172.359 109.008 172.294 109.14 172.204 109.255C170.996 110.78 169.605 112.151 168.062 113.336L169.869 120.871L169.168 121.265C166.824 122.634 164.306 123.68 161.682 124.374L160.846 124.633ZM135.991 110.201C135.659 109.82 135.327 109.415 135.007 108.972L127.472 110.779L127.066 110.091C125.705 107.739 124.66 105.217 123.956 102.592L123.76 101.818L130.361 97.7614C130.07 95.723 130.07 93.6537 130.361 91.6152L123.76 87.571L123.956 86.7843C124.66 84.1632 125.705 81.6462 127.066 79.2983L127.472 78.5976L135.007 80.4046C136.265 78.7582 137.737 77.2866 139.383 76.0285L138.019 70.3248C137.952 70.0461 137.999 69.7523 138.149 69.508C138.299 69.2637 138.539 69.0889 138.818 69.0218C138.955 68.989 139.098 68.9836 139.237 69.0061C139.376 69.0285 139.51 69.0783 139.63 69.1526C139.75 69.2269 139.854 69.3242 139.936 69.4388C140.018 69.5535 140.077 69.6833 140.109 69.8208L141.817 76.9258L141.227 77.3438C139.333 78.7064 137.673 80.3669 136.31 82.2607L135.88 82.8508L128.505 81.0929C127.549 82.8377 126.782 84.6798 126.218 86.5877L132.672 90.5458L132.561 91.2588C132.151 93.5515 132.151 95.8989 132.561 98.1917L132.672 98.9169L126.218 102.875C126.784 104.778 127.551 106.616 128.505 108.357L135.88 106.6L136.31 107.19C136.692 107.747 137.103 108.285 137.54 108.8C137.729 108.999 137.835 109.263 137.835 109.538C137.835 109.812 137.729 110.076 137.54 110.275C137.435 110.375 137.311 110.453 137.175 110.504C137.039 110.555 136.894 110.578 136.749 110.571C136.604 110.564 136.462 110.527 136.332 110.464C136.202 110.4 136.085 110.311 135.991 110.201ZM179.924 110.804L177.146 110.14C176.867 110.073 176.626 109.898 176.477 109.654C176.327 109.409 176.28 109.116 176.347 108.837C176.414 108.558 176.589 108.318 176.833 108.168C177.077 108.018 177.371 107.971 177.65 108.038L178.879 108.321C179.829 106.579 180.591 104.741 181.153 102.838L174.699 98.8801L174.822 98.1548C175.233 95.8621 175.233 93.5146 174.822 91.2219L174.699 90.5089L181.153 86.5508C180.593 84.6433 179.831 82.8012 178.879 81.0561L171.503 82.8139L171.086 82.2238C169.72 80.3328 168.06 78.6728 166.169 77.3069L165.579 76.8889L167.336 69.5135C165.591 68.5615 163.749 67.7991 161.842 67.2394L157.847 73.7544L157.134 73.6315C154.837 73.2626 152.497 73.2626 150.201 73.6315L149.475 73.7544L145.554 67.264L144.817 67.4853C144.554 67.5718 144.268 67.5521 144.02 67.4303C143.772 67.3085 143.581 67.0944 143.489 66.8338C143.438 66.6991 143.415 66.5556 143.42 66.4118C143.426 66.268 143.46 66.1267 143.52 65.9962C143.581 65.8657 143.667 65.7486 143.774 65.6518C143.88 65.555 144.005 65.4804 144.141 65.4324C144.681 65.2603 145.235 65.1005 145.775 64.953L146.55 64.744L150.606 71.3574C152.644 71.0544 154.715 71.0544 156.753 71.3574L160.797 64.744L161.583 64.953C164.206 65.6532 166.723 66.699 169.07 68.063L169.77 68.4686L167.963 76.0039C169.612 77.2592 171.084 78.7312 172.339 80.38L179.875 78.573L180.28 79.2737C181.646 81.6191 182.692 84.1368 183.39 86.7597L183.599 87.5465L176.986 91.5907C177.292 93.6279 177.292 95.6996 176.986 97.7369L183.599 101.793L183.39 102.568C182.692 105.195 181.646 107.716 180.28 110.066L179.924 110.804ZM153.397 105.223C150.718 105.117 148.178 104.005 146.283 102.11C144.387 100.214 143.276 97.6742 143.169 94.9957C143.096 92.3612 144.012 89.7947 145.737 87.8018C147.461 85.8088 149.869 84.5337 152.487 84.2275C152.641 84.2084 152.797 84.2221 152.944 84.2676C153.092 84.3132 153.229 84.3896 153.345 84.4918C153.461 84.5941 153.554 84.7198 153.618 84.8607C153.682 85.0016 153.716 85.1545 153.716 85.3092C153.715 85.5707 153.618 85.8226 153.444 86.0174C153.269 86.2122 153.03 86.3363 152.77 86.3664C150.948 86.5741 149.245 87.3741 147.922 88.6435C146.6 89.9128 145.73 91.5814 145.447 93.3928C145.165 95.2042 145.484 97.0584 146.358 98.6705C147.231 100.283 148.609 101.563 150.281 102.316C151.952 103.069 153.825 103.252 155.611 102.838C157.397 102.424 158.997 101.434 160.166 100.022C161.335 98.61 162.009 96.853 162.083 95.0211C162.157 93.1893 161.627 91.3838 160.576 89.882C160.424 89.6692 160.357 89.4073 160.389 89.1479C160.421 88.8885 160.549 88.6504 160.748 88.4807C160.862 88.3788 160.997 88.3025 161.144 88.2568C161.29 88.2111 161.445 88.1971 161.597 88.2157C161.749 88.2343 161.896 88.2851 162.027 88.3647C162.158 88.4443 162.271 88.5509 162.358 88.6774C163.476 90.2771 164.127 92.1563 164.239 94.1049C164.35 96.0535 163.917 97.9947 162.989 99.7115C162.06 101.428 160.673 102.853 158.981 103.826C157.289 104.8 155.36 105.283 153.409 105.223H153.397Z" fill="#DFDFDF"/>
<path d="M84.4735 214.613L81.8552 210.348C80.5308 210.544 79.1846 210.544 77.8602 210.348L75.2419 214.613L74.7379 214.478C73.041 214.03 71.412 213.356 69.8947 212.474L69.4522 212.216L70.5585 207.569C70.6023 207.391 70.7145 207.237 70.8708 207.14C71.0272 207.044 71.2152 207.012 71.3944 207.053C71.4841 207.075 71.5686 207.114 71.6432 207.168C71.7177 207.223 71.7808 207.291 71.8287 207.37C71.8767 207.449 71.9086 207.536 71.9227 207.628C71.9368 207.719 71.9327 207.812 71.9107 207.901L71.0502 211.515C72.178 212.133 73.369 212.628 74.6027 212.99L77.1595 208.823L77.6144 208.897C79.0998 209.143 80.6156 209.143 82.1011 208.897L82.5559 208.823L85.125 212.99C86.352 212.62 87.5382 212.126 88.6652 211.515L87.5343 206.77L87.9154 206.488C88.9488 205.745 89.8753 204.864 90.6689 203.869C90.7769 203.723 90.9383 203.626 91.1179 203.598C91.2975 203.57 91.4808 203.615 91.6277 203.722C91.7032 203.776 91.7672 203.844 91.8162 203.923C91.8651 204.001 91.898 204.089 91.9128 204.18C91.9277 204.272 91.9243 204.365 91.9028 204.455C91.8812 204.545 91.8421 204.63 91.7875 204.705C91.0044 205.691 90.1046 206.579 89.1078 207.348L90.337 212.265L89.8822 212.523C88.3659 213.407 86.7366 214.081 85.039 214.527L84.4735 214.613ZM68.4196 205.283L67.7804 204.509L62.8635 205.664L62.6053 205.222C61.7394 203.698 61.082 202.065 60.6508 200.366L60.5156 199.862L64.7811 197.244C64.5844 195.919 64.5844 194.573 64.7811 193.249L60.5156 190.631L60.6508 190.127C61.0964 188.429 61.7704 186.8 62.6545 185.283L62.9126 184.829L67.8296 186.058C68.6203 184.981 69.541 184.007 70.5708 183.157L69.6981 179.469C69.6762 179.38 69.6722 179.288 69.6865 179.198C69.7007 179.107 69.7327 179.021 69.7808 178.943C69.8289 178.865 69.892 178.797 69.9664 178.744C70.0408 178.691 70.1251 178.653 70.2143 178.633C70.3935 178.592 70.5816 178.624 70.7379 178.72C70.8943 178.817 71.0064 178.971 71.0502 179.149L72.1565 183.735L71.7632 184.017C70.545 184.891 69.4779 185.958 68.604 187.176L68.3213 187.557L63.5764 186.427C62.966 187.554 62.4718 188.74 62.1013 189.967L66.2685 192.524L66.1947 192.991C66.068 193.73 66.0022 194.478 65.998 195.228C66.0021 195.982 66.0679 196.734 66.1947 197.477L66.2685 197.932L62.1013 200.489C62.4694 201.721 62.9637 202.911 63.5764 204.042L68.3213 202.898L68.604 203.279C68.858 203.643 69.133 203.992 69.4276 204.324C69.5487 204.452 69.6161 204.621 69.6161 204.798C69.6161 204.974 69.5487 205.143 69.4276 205.271C69.364 205.341 69.2867 205.397 69.2005 205.436C69.1142 205.475 69.0209 205.495 68.9263 205.496C68.8317 205.498 68.7379 205.479 68.6508 205.443C68.5636 205.406 68.4849 205.352 68.4196 205.283ZM96.8028 205.664L95.0081 205.246C94.9184 205.225 94.8339 205.185 94.7593 205.131C94.6848 205.077 94.6218 205.008 94.5738 204.929C94.5258 204.851 94.4939 204.763 94.4798 204.672C94.4658 204.581 94.4698 204.488 94.4918 204.398C94.512 204.309 94.5498 204.225 94.603 204.15C94.6562 204.076 94.7236 204.013 94.8014 203.965C94.8793 203.916 94.9659 203.884 95.0562 203.87C95.1466 203.856 95.2389 203.86 95.3277 203.882L96.1021 204.066C96.7199 202.938 97.2145 201.747 97.5772 200.514L93.4101 197.957L93.4838 197.502C93.6107 196.759 93.6765 196.006 93.6805 195.252C93.6764 194.503 93.6106 193.754 93.4838 193.015L93.4101 192.548L97.5772 189.991C97.2122 188.762 96.7177 187.576 96.1021 186.451L91.3573 187.582L91.0745 187.201C90.2007 185.983 89.1336 184.916 87.9154 184.042L87.5343 183.759L88.6652 179.014C87.5407 178.399 86.3539 177.904 85.125 177.539L82.5559 181.706L82.1011 181.632C80.6156 181.387 79.0998 181.387 77.6144 181.632L77.1595 181.706L74.6027 177.539L74.1233 177.687C73.9521 177.741 73.7662 177.727 73.6054 177.647C73.4447 177.566 73.3217 177.426 73.2628 177.256C73.2297 177.17 73.2143 177.078 73.2175 176.986C73.2207 176.894 73.2425 176.803 73.2815 176.719C73.3205 176.635 73.3759 176.56 73.4445 176.498C73.5131 176.437 73.5935 176.389 73.6808 176.359L74.7379 176.039L75.2419 175.917L77.8602 180.182C79.1846 179.985 80.5308 179.985 81.8552 180.182L84.4735 175.917L84.9775 176.039C86.6738 176.495 88.3024 177.173 89.8207 178.055L90.2755 178.314L89.0463 183.231C90.1047 184.049 91.0548 184.999 91.8735 186.058L96.7905 184.829L97.0486 185.283C97.9327 186.8 98.6068 188.429 99.0523 190.127L99.1875 190.631L94.9221 193.249C95.1188 194.573 95.1188 195.919 94.9221 197.244L99.1875 199.862L99.0523 200.366C98.6046 202.063 97.9307 203.692 97.0486 205.209L96.8028 205.664ZM79.6672 202.062C77.9969 201.948 76.4273 201.222 75.2583 200.024C74.0892 198.825 73.4026 197.238 73.3297 195.565C73.2567 193.893 73.8024 192.252 74.8626 190.956C75.9228 189.66 77.4232 188.8 79.0772 188.541C79.1758 188.531 79.2754 188.541 79.3698 188.571C79.4641 188.602 79.5511 188.652 79.6251 188.718C79.6992 188.783 79.7586 188.864 79.7997 188.954C79.8408 189.045 79.8627 189.142 79.8639 189.241C79.8648 189.412 79.8025 189.577 79.689 189.704C79.5754 189.831 79.4187 189.912 79.2492 189.93C78.2124 190.048 77.232 190.464 76.4263 191.128C75.6206 191.791 75.024 192.673 74.7084 193.668C74.3928 194.663 74.3718 195.727 74.6478 196.734C74.9238 197.74 75.4851 198.645 76.2639 199.34C77.0428 200.035 78.0059 200.489 79.0373 200.649C80.0686 200.808 81.1241 200.666 82.0763 200.239C83.0286 199.812 83.8371 199.119 84.4042 198.243C84.9713 197.367 85.2729 196.345 85.2725 195.302C85.2749 194.192 84.9311 193.109 84.2891 192.204C84.1953 192.064 84.1548 191.896 84.1751 191.729C84.1954 191.562 84.2752 191.407 84.3998 191.294C84.4738 191.228 84.5612 191.178 84.656 191.148C84.7509 191.118 84.8511 191.108 84.95 191.12C85.0488 191.131 85.1441 191.164 85.2294 191.215C85.3147 191.266 85.388 191.335 85.4446 191.417C86.1636 192.452 86.5816 193.665 86.6522 194.923C86.7227 196.18 86.4431 197.433 85.8444 198.541C85.2457 199.649 84.3514 200.57 83.2609 201.2C82.1703 201.83 80.9263 202.146 79.6672 202.112V202.062Z" fill="#E6E6E6"/>
<path d="M398.102 111.652H358.078L329.806 435.249H369.83C375.447 435.141 380.831 432.981 384.966 429.177C389.1 425.373 391.7 420.187 392.276 414.598L416.971 132.291C417.258 129.661 416.981 126.999 416.159 124.484C415.337 121.969 413.988 119.659 412.203 117.706C410.417 115.753 408.236 114.203 405.805 113.159C403.374 112.115 400.748 111.601 398.102 111.652Z" fill="#555454"/>
<path d="M389.94 111.652H254.478C248.86 111.758 243.475 113.914 239.338 117.716C235.201 121.518 232.598 126.702 232.019 132.291L207.324 414.599C207.04 417.227 207.317 419.886 208.139 422.399C208.96 424.912 210.307 427.221 212.089 429.174C213.871 431.127 216.048 432.679 218.475 433.726C220.902 434.774 223.525 435.293 226.168 435.25H361.618C367.229 435.13 372.602 432.965 376.728 429.162C380.855 425.359 383.45 420.18 384.027 414.599L408.723 132.291C409.009 129.668 408.734 127.014 407.917 124.506C407.1 121.997 405.759 119.69 403.983 117.739C402.207 115.787 400.036 114.236 397.615 113.186C395.195 112.137 392.578 111.614 389.94 111.652Z" fill="#3CAF47"/>
<path d="M389.94 111.652H254.478C248.86 111.758 243.475 113.914 239.338 117.716C235.201 121.518 232.598 126.702 232.019 132.291L207.324 414.599C207.04 417.227 207.317 419.886 208.139 422.399C208.96 424.912 210.307 427.221 212.089 429.174C213.871 431.127 216.048 432.679 218.475 433.726C220.902 434.774 223.525 435.293 226.168 435.25H361.618C367.229 435.13 372.602 432.965 376.728 429.162C380.855 425.359 383.45 420.18 384.027 414.599L408.723 132.291C409.009 129.668 408.734 127.014 407.917 124.506C407.1 121.997 405.759 119.69 403.983 117.739C402.207 115.787 400.036 114.236 397.615 113.186C395.195 112.137 392.578 111.614 389.94 111.652Z" fill="#686868"/>
<path d="M389.362 118.265H353.64C352.575 118.274 351.537 118.602 350.661 119.207C349.784 119.812 349.109 120.665 348.723 121.658C347.314 125.304 344.851 128.447 341.648 130.687C338.445 132.927 334.647 134.161 330.739 134.233H309.67C305.99 134.307 302.399 133.096 299.516 130.807C296.632 128.518 294.638 125.296 293.875 121.695C293.671 120.72 293.133 119.848 292.354 119.228C291.575 118.609 290.604 118.281 289.609 118.302H253.9C250.082 118.37 246.421 119.834 243.61 122.419C240.798 125.003 239.032 128.529 238.645 132.328L213.937 414.635C213.739 416.423 213.925 418.232 214.482 419.942C215.038 421.652 215.953 423.223 217.165 424.552C218.378 425.88 219.859 426.935 221.511 427.646C223.163 428.356 224.948 428.707 226.746 428.673H362.208C366.027 428.602 369.688 427.135 372.499 424.549C375.31 421.962 377.076 418.435 377.463 414.635L402.158 132.328C402.36 130.539 402.177 128.729 401.623 127.016C401.069 125.304 400.155 123.73 398.944 122.399C397.733 121.068 396.252 120.011 394.599 119.298C392.947 118.585 391.161 118.233 389.362 118.265Z" fill="white"/>
<path d="M355.608 271.662H260.809C260.157 271.673 259.511 271.545 258.912 271.287C258.314 271.029 257.777 270.647 257.338 270.165C256.899 269.684 256.567 269.115 256.364 268.496C256.161 267.876 256.092 267.221 256.162 266.573L256.642 261.14C256.783 259.762 257.423 258.484 258.442 257.546C259.461 256.609 260.789 256.077 262.173 256.051H356.984C357.636 256.04 358.282 256.168 358.881 256.426C359.479 256.684 360.016 257.066 360.455 257.548C360.895 258.029 361.227 258.598 361.429 259.217C361.632 259.837 361.701 260.492 361.631 261.14L361.164 266.573C361.02 267.954 360.375 269.234 359.351 270.172C358.328 271.109 356.996 271.64 355.608 271.662Z" fill="#E6E6E6"/>
<path d="M353.566 295.018H258.755C258.104 295.029 257.458 294.901 256.86 294.643C256.262 294.384 255.726 294.002 255.288 293.52C254.849 293.039 254.518 292.47 254.317 291.85C254.116 291.231 254.049 290.576 254.121 289.929L254.588 284.495C254.731 283.119 255.373 281.842 256.391 280.905C257.41 279.968 258.736 279.435 260.119 279.406H354.931C355.582 279.396 356.229 279.524 356.827 279.782C357.425 280.04 357.962 280.422 358.401 280.903C358.841 281.384 359.173 281.954 359.375 282.573C359.578 283.192 359.647 283.848 359.577 284.495L359.098 289.929C358.954 291.305 358.313 292.582 357.294 293.519C356.276 294.456 354.95 294.989 353.566 295.018Z" fill="#E6E6E6"/>
<path opacity="0.1" d="M326.806 123.551C326.65 125.081 325.938 126.5 324.805 127.54C323.673 128.58 322.198 129.168 320.66 129.193C319.938 129.206 319.22 129.065 318.557 128.779C317.893 128.494 317.297 128.07 316.81 127.536C316.323 127.002 315.955 126.371 315.731 125.684C315.506 124.997 315.431 124.269 315.51 123.551C315.666 122.021 316.378 120.602 317.511 119.562C318.644 118.522 320.118 117.934 321.656 117.909C322.379 117.896 323.096 118.037 323.76 118.323C324.424 118.608 325.019 119.032 325.506 119.566C325.993 120.1 326.361 120.731 326.586 121.418C326.81 122.106 326.885 122.833 326.806 123.551Z" fill="black"/>
<path opacity="0.1" d="M324.25 123.551C324.164 124.386 323.775 125.161 323.156 125.729C322.538 126.297 321.734 126.62 320.895 126.636C320.499 126.644 320.107 126.567 319.744 126.411C319.38 126.255 319.055 126.023 318.788 125.731C318.522 125.439 318.321 125.094 318.199 124.718C318.076 124.342 318.036 123.944 318.08 123.551C318.164 122.715 318.552 121.939 319.171 121.37C319.789 120.801 320.595 120.479 321.435 120.466C321.83 120.46 322.222 120.538 322.584 120.695C322.946 120.852 323.271 121.083 323.537 121.375C323.803 121.667 324.004 122.011 324.127 122.387C324.25 122.762 324.292 123.159 324.25 123.551Z" fill="black"/>
<g opacity="0.8">
<path d="M372.682 132.967C372.469 132.97 372.259 132.928 372.064 132.844C371.87 132.759 371.695 132.634 371.552 132.478C371.409 132.321 371.301 132.135 371.235 131.934C371.169 131.732 371.147 131.519 371.17 131.308L371.44 128.284C371.485 127.837 371.693 127.422 372.024 127.118C372.355 126.815 372.786 126.643 373.235 126.636C373.446 126.634 373.655 126.676 373.849 126.759C374.043 126.843 374.216 126.966 374.359 127.122C374.502 127.277 374.61 127.461 374.677 127.661C374.744 127.862 374.768 128.074 374.747 128.284L374.476 131.308C374.431 131.756 374.224 132.172 373.893 132.477C373.563 132.783 373.132 132.957 372.682 132.967Z" fill="white"/>
<path d="M385.909 132.967C385.697 132.97 385.487 132.928 385.292 132.844C385.097 132.759 384.923 132.634 384.78 132.478C384.637 132.321 384.529 132.135 384.463 131.934C384.397 131.732 384.375 131.519 384.397 131.308L385.024 124.215C385.069 123.768 385.277 123.353 385.608 123.05C385.939 122.746 386.37 122.574 386.819 122.568C387.03 122.565 387.239 122.607 387.433 122.69C387.627 122.774 387.801 122.898 387.943 123.053C388.086 123.209 388.194 123.392 388.261 123.593C388.328 123.793 388.352 124.005 388.331 124.215L387.704 131.308C387.659 131.756 387.452 132.172 387.121 132.477C386.79 132.783 386.359 132.957 385.909 132.967Z" fill="white"/>
<path d="M379.295 132.967C379.083 132.97 378.872 132.928 378.678 132.843C378.483 132.759 378.308 132.634 378.166 132.478C378.023 132.321 377.915 132.135 377.849 131.934C377.783 131.732 377.76 131.519 377.783 131.308L378.225 126.255C378.271 125.805 378.48 125.387 378.813 125.081C379.146 124.776 379.58 124.603 380.032 124.596C380.244 124.593 380.454 124.635 380.648 124.719C380.842 124.804 381.016 124.929 381.158 125.086C381.3 125.243 381.407 125.429 381.472 125.63C381.536 125.832 381.557 126.045 381.532 126.255L381.09 131.308C381.045 131.756 380.837 132.172 380.507 132.477C380.176 132.783 379.745 132.957 379.295 132.967Z" fill="white"/>
</g>
<g opacity="0.8">
<path d="M259.432 132.967H251.123C251.003 132.97 250.884 132.946 250.774 132.899C250.664 132.852 250.566 132.782 250.486 132.693C250.405 132.605 250.345 132.5 250.308 132.386C250.272 132.272 250.26 132.152 250.274 132.033L250.655 127.571C250.682 127.317 250.801 127.083 250.989 126.911C251.177 126.738 251.421 126.641 251.676 126.636H259.985C260.105 126.634 260.224 126.657 260.334 126.704C260.444 126.751 260.542 126.822 260.622 126.91C260.703 126.999 260.763 127.104 260.8 127.218C260.836 127.331 260.848 127.452 260.834 127.571L260.44 132.033C260.419 132.286 260.304 132.522 260.117 132.695C259.931 132.868 259.686 132.965 259.432 132.967Z" fill="white"/>
<path d="M263.28 131.75C263.16 131.752 263.041 131.729 262.93 131.682C262.82 131.635 262.721 131.565 262.639 131.477C262.558 131.388 262.496 131.284 262.458 131.17C262.421 131.056 262.407 130.935 262.419 130.816L262.604 128.775C262.628 128.521 262.746 128.285 262.934 128.112C263.123 127.94 263.369 127.843 263.624 127.841C263.744 127.838 263.862 127.862 263.972 127.909C264.082 127.956 264.181 128.026 264.261 128.115C264.341 128.203 264.402 128.308 264.438 128.422C264.475 128.536 264.486 128.656 264.472 128.775L264.3 130.816C264.273 131.069 264.155 131.304 263.967 131.476C263.779 131.648 263.535 131.745 263.28 131.75Z" fill="white"/>
</g>
<path d="M339.987 235.929C356.528 220.094 358.178 194.973 343.672 179.819C329.165 164.666 303.996 165.218 287.455 181.053C270.913 196.888 269.264 222.009 283.77 237.163C298.276 252.316 323.446 251.764 339.987 235.929Z" fill="#F8F8F8"/>
<path d="M313.862 206.98C303.438 206.98 294.625 210.95 293.875 219.567L293.039 229.143H330.814L331.65 219.567C332.399 210.95 324.299 206.98 313.862 206.98Z" fill="#263238"/>
<path d="M314.206 203.034C319.049 203.034 321.287 199.112 321.704 194.269C322.122 189.426 320.586 185.505 315.743 185.505C310.899 185.505 308.675 189.438 308.244 194.269C307.814 199.1 309.363 203.034 314.206 203.034Z" fill="#263238"/>
<path d="M351.28 263.525C348.711 263.525 346.535 264.508 346.363 266.635L346.154 269.007H355.484L355.693 266.635C355.865 264.508 353.862 263.525 351.28 263.525Z" fill="#263238"/>
<path d="M351.366 262.554C352.595 262.554 353.111 261.582 353.222 260.39C353.333 259.198 352.939 258.227 351.747 258.227C350.555 258.227 350.002 259.198 349.891 260.39C349.78 261.582 350.174 262.554 351.366 262.554Z" fill="#263238"/>
<path d="M322.576 318.373H285.698C284.698 318.391 283.706 318.196 282.787 317.801C281.869 317.406 281.045 316.82 280.37 316.081C279.696 315.343 279.186 314.469 278.876 313.519C278.565 312.568 278.46 311.562 278.569 310.568C278.788 308.454 279.772 306.493 281.337 305.055C282.901 303.618 284.938 302.802 287.063 302.762H323.94C324.939 302.746 325.931 302.942 326.849 303.338C327.766 303.734 328.59 304.32 329.264 305.058C329.938 305.796 330.447 306.669 330.759 307.619C331.07 308.569 331.176 309.574 331.07 310.568C330.854 312.682 329.87 314.645 328.304 316.083C326.739 317.521 324.701 318.336 322.576 318.373Z" fill="url(#paint0_linear_1588_18879)"/>
<path d="M294.175 306.87H295.351V311.666H297.863V312.654H294.175V306.87ZM300.374 312.734C299.968 312.734 299.615 312.648 299.314 312.474C299.015 312.301 298.783 312.056 298.618 311.738C298.455 311.421 298.374 311.045 298.374 310.61C298.374 310.176 298.455 309.796 298.618 309.47C298.783 309.145 299.015 308.892 299.314 308.71C299.615 308.529 299.97 308.438 300.378 308.438C300.786 308.438 301.139 308.528 301.438 308.706C301.736 308.882 301.967 309.133 302.13 309.458C302.292 309.784 302.374 310.168 302.374 310.61C302.374 311.026 302.294 311.394 302.134 311.714C301.976 312.032 301.748 312.281 301.45 312.462C301.154 312.644 300.795 312.734 300.374 312.734ZM300.378 311.866C300.583 311.866 300.748 311.806 300.874 311.686C300.999 311.566 301.09 311.409 301.146 311.214C301.204 311.017 301.234 310.802 301.234 310.57C301.234 310.352 301.207 310.145 301.154 309.95C301.103 309.756 301.015 309.598 300.89 309.478C300.764 309.358 300.594 309.298 300.378 309.298C300.172 309.298 300.006 309.356 299.878 309.47C299.752 309.582 299.66 309.736 299.602 309.93C299.543 310.122 299.514 310.336 299.514 310.57C299.514 310.786 299.54 310.994 299.594 311.194C299.647 311.392 299.736 311.553 299.862 311.678C299.987 311.804 300.159 311.866 300.378 311.866ZM305.014 314.022C304.278 314.022 303.718 313.929 303.334 313.742C302.952 313.556 302.762 313.31 302.762 313.006C302.762 312.865 302.799 312.746 302.874 312.65C302.948 312.554 303.035 312.478 303.134 312.422C303.235 312.364 303.327 312.32 303.41 312.29C303.495 312.258 303.547 312.237 303.566 312.226C303.523 312.202 303.462 312.168 303.382 312.122C303.302 312.074 303.227 312.01 303.158 311.93C303.091 311.848 303.058 311.741 303.058 311.61C303.058 311.464 303.127 311.328 303.266 311.202C303.407 311.077 303.62 310.99 303.906 310.942C303.634 310.814 303.427 310.641 303.286 310.422C303.144 310.204 303.074 309.98 303.074 309.75C303.074 309.478 303.159 309.245 303.33 309.05C303.5 308.856 303.732 308.708 304.026 308.606C304.322 308.505 304.656 308.454 305.03 308.454C305.315 308.454 305.548 308.485 305.73 308.546C305.911 308.605 306.079 308.682 306.234 308.778C306.295 308.754 306.376 308.724 306.478 308.686C306.579 308.646 306.688 308.604 306.806 308.558C306.923 308.51 307.038 308.464 307.15 308.418C307.262 308.37 307.362 308.328 307.45 308.29L307.446 309.194L306.73 309.31C306.759 309.382 306.782 309.46 306.798 309.542C306.814 309.625 306.822 309.693 306.822 309.746C306.822 309.986 306.751 310.21 306.61 310.418C306.471 310.626 306.262 310.794 305.982 310.922C305.704 311.05 305.36 311.114 304.95 311.114C304.899 311.114 304.831 311.113 304.746 311.11C304.663 311.108 304.595 311.104 304.542 311.098C304.384 311.106 304.276 311.126 304.218 311.158C304.159 311.19 304.13 311.228 304.13 311.27C304.13 311.334 304.19 311.377 304.31 311.398C304.43 311.417 304.611 311.434 304.854 311.45C304.939 311.456 305.058 311.462 305.21 311.47C305.362 311.478 305.53 311.489 305.714 311.502C306.22 311.537 306.598 311.662 306.846 311.878C307.096 312.092 307.222 312.361 307.222 312.686C307.222 313.073 307.038 313.392 306.67 313.642C306.304 313.896 305.752 314.022 305.014 314.022ZM305.202 313.37C305.527 313.37 305.759 313.33 305.898 313.25C306.036 313.17 306.106 313.056 306.106 312.906C306.106 312.781 306.052 312.68 305.946 312.602C305.839 312.522 305.683 312.476 305.478 312.462L304.53 312.398C304.407 312.393 304.298 312.412 304.202 312.454C304.108 312.497 304.035 312.556 303.982 312.63C303.931 312.705 303.906 312.785 303.906 312.87C303.906 313.044 304.011 313.17 304.222 313.25C304.432 313.33 304.759 313.37 305.202 313.37ZM304.982 310.462C305.203 310.462 305.38 310.402 305.514 310.282C305.65 310.16 305.718 309.994 305.718 309.786C305.718 309.57 305.65 309.397 305.514 309.266C305.38 309.136 305.203 309.07 304.982 309.07C304.763 309.07 304.584 309.136 304.446 309.266C304.31 309.397 304.242 309.57 304.242 309.786C304.242 309.992 304.307 310.156 304.438 310.278C304.571 310.401 304.752 310.462 304.982 310.462ZM309.297 308.518V312.654H308.181V308.518H309.297ZM309.309 306.874V307.926H308.173V306.874H309.309ZM310.379 312.654V308.518H311.527V309.102C311.591 309.001 311.674 308.904 311.775 308.81C311.879 308.714 312.01 308.636 312.167 308.574C312.324 308.513 312.511 308.482 312.727 308.482C312.98 308.482 313.216 308.532 313.435 308.63C313.656 308.729 313.835 308.885 313.971 309.098C314.107 309.309 314.175 309.585 314.175 309.926V312.654H313.007V310.07C313.007 309.846 312.94 309.678 312.807 309.566C312.674 309.454 312.511 309.398 312.319 309.398C312.191 309.398 312.067 309.421 311.947 309.466C311.83 309.512 311.734 309.58 311.659 309.67C311.584 309.761 311.547 309.873 311.547 310.006V312.654H310.379Z" fill="white"/>
<path d="M351.907 285.344L352.067 283.955C352.1 283.633 352.064 283.307 351.963 283C351.861 282.693 351.696 282.41 351.478 282.171C351.26 281.932 350.994 281.742 350.697 281.613C350.4 281.484 350.08 281.419 349.756 281.422C349.067 281.437 348.408 281.702 347.901 282.168C347.394 282.634 347.074 283.27 347.002 283.955L346.88 285.319C346.604 285.327 346.341 285.435 346.14 285.622C345.938 285.81 345.812 286.065 345.786 286.339L345.466 290.027C345.45 290.156 345.462 290.287 345.501 290.41C345.541 290.534 345.607 290.648 345.694 290.744C345.782 290.84 345.889 290.915 346.009 290.966C346.129 291.016 346.258 291.04 346.388 291.035H351.452C351.727 291.03 351.989 290.925 352.191 290.739C352.393 290.553 352.519 290.3 352.546 290.027L352.866 286.339C352.876 286.209 352.859 286.078 352.815 285.955C352.771 285.832 352.702 285.719 352.611 285.625C352.52 285.531 352.411 285.457 352.289 285.409C352.168 285.36 352.038 285.338 351.907 285.344ZM349.608 282.074C349.852 282.071 350.094 282.119 350.318 282.216C350.542 282.313 350.743 282.456 350.907 282.636C351.072 282.816 351.197 283.029 351.274 283.26C351.351 283.491 351.378 283.736 351.354 283.979L351.231 285.344H347.42L347.543 283.979C347.597 283.465 347.836 282.988 348.216 282.637C348.597 282.286 349.091 282.086 349.608 282.074Z" fill="#263238"/>
<path d="M275.669 286.806L273.899 286.438C273.85 286.427 273.804 286.406 273.764 286.376C273.724 286.345 273.691 286.306 273.669 286.261C273.646 286.216 273.634 286.166 273.634 286.116C273.633 286.066 273.644 286.016 273.666 285.97L274.403 284.225C274.434 284.15 274.437 284.066 274.412 283.988C274.386 283.911 274.334 283.845 274.265 283.802C274.196 283.76 274.114 283.743 274.033 283.755C273.953 283.767 273.879 283.807 273.825 283.868L272.486 285.245C272.453 285.286 272.412 285.319 272.365 285.342C272.319 285.365 272.267 285.376 272.215 285.376C272.163 285.376 272.112 285.365 272.065 285.342C272.018 285.319 271.977 285.286 271.945 285.245L270.851 283.868C270.617 283.573 270.113 283.868 270.199 284.225L270.629 285.97C270.642 286.021 270.644 286.074 270.635 286.126C270.626 286.178 270.607 286.227 270.578 286.271C270.549 286.315 270.511 286.352 270.467 286.381C270.423 286.41 270.374 286.429 270.322 286.438L268.491 286.806C268.097 286.88 268.048 287.433 268.429 287.507L270.199 287.876C270.249 287.885 270.295 287.906 270.335 287.937C270.375 287.968 270.407 288.007 270.429 288.053C270.45 288.099 270.461 288.149 270.459 288.199C270.458 288.249 270.445 288.299 270.42 288.343L269.708 290.101C269.677 290.176 269.674 290.26 269.699 290.337C269.724 290.415 269.776 290.481 269.846 290.523C269.915 290.566 269.997 290.583 270.078 290.571C270.158 290.559 270.232 290.518 270.285 290.457L271.625 289.08C271.66 289.043 271.702 289.014 271.748 288.993C271.795 288.973 271.845 288.962 271.896 288.962C271.946 288.962 271.997 288.973 272.043 288.993C272.09 289.014 272.131 289.043 272.166 289.08L273.26 290.457C273.494 290.752 273.998 290.457 273.899 290.101L273.469 288.355C273.451 288.251 273.474 288.144 273.534 288.057C273.594 287.969 273.685 287.909 273.789 287.888L275.62 287.519C276.001 287.433 276.05 286.88 275.669 286.806Z" fill="#263238"/>
<path d="M287.298 286.806L285.528 286.438C285.479 286.427 285.433 286.406 285.393 286.376C285.353 286.345 285.32 286.306 285.298 286.261C285.275 286.216 285.263 286.166 285.263 286.116C285.262 286.066 285.273 286.016 285.295 285.97L286.032 284.225C286.063 284.15 286.066 284.066 286.04 283.988C286.015 283.911 285.963 283.845 285.894 283.802C285.825 283.76 285.743 283.743 285.662 283.755C285.582 283.767 285.508 283.807 285.454 283.868L284.115 285.245C284.082 285.286 284.041 285.319 283.994 285.342C283.948 285.365 283.896 285.376 283.844 285.376C283.792 285.376 283.741 285.365 283.694 285.342C283.647 285.319 283.606 285.286 283.574 285.245L282.48 283.868C282.246 283.573 281.742 283.868 281.84 284.225L282.271 285.97C282.281 286.022 282.281 286.076 282.271 286.127C282.261 286.179 282.24 286.228 282.21 286.272C282.18 286.315 282.142 286.353 282.097 286.381C282.053 286.41 282.003 286.429 281.951 286.438L280.119 286.806C279.726 286.88 279.677 287.433 280.058 287.507L281.828 287.876C281.877 287.886 281.924 287.907 281.964 287.938C282.004 287.968 282.036 288.008 282.059 288.053C282.081 288.097 282.093 288.147 282.094 288.197C282.094 288.248 282.083 288.297 282.062 288.343L281.324 290.088C281.293 290.164 281.29 290.248 281.316 290.325C281.341 290.402 281.393 290.468 281.462 290.511C281.531 290.554 281.614 290.571 281.694 290.558C281.775 290.546 281.848 290.506 281.902 290.445L283.242 289.068C283.276 289.031 283.318 289.001 283.365 288.981C283.411 288.961 283.461 288.95 283.512 288.95C283.563 288.95 283.613 288.961 283.66 288.981C283.706 289.001 283.748 289.031 283.783 289.068L284.877 290.445C285.11 290.74 285.614 290.445 285.528 290.088L285.098 288.343C285.087 288.292 285.087 288.24 285.096 288.188C285.106 288.137 285.126 288.089 285.154 288.045C285.183 288.002 285.22 287.964 285.263 287.935C285.306 287.906 285.354 287.886 285.405 287.876L287.237 287.507C287.63 287.433 287.679 286.88 287.298 286.806Z" fill="#263238"/>
<path d="M298.927 286.806L297.169 286.438C297.118 286.43 297.07 286.41 297.029 286.38C296.987 286.35 296.954 286.31 296.931 286.265C296.908 286.219 296.896 286.168 296.897 286.117C296.898 286.066 296.911 286.016 296.935 285.971L297.673 284.225C297.72 284.147 297.734 284.053 297.712 283.964C297.69 283.875 297.634 283.799 297.556 283.752C297.478 283.704 297.384 283.69 297.295 283.712C297.206 283.734 297.13 283.79 297.083 283.869L295.755 285.245C295.722 285.286 295.68 285.32 295.632 285.342C295.584 285.365 295.532 285.377 295.479 285.377C295.426 285.377 295.373 285.365 295.325 285.342C295.278 285.32 295.235 285.286 295.202 285.245L294.108 283.869C293.874 283.574 293.37 283.869 293.469 284.225L293.899 285.971C293.91 286.021 293.91 286.074 293.901 286.125C293.891 286.176 293.871 286.225 293.843 286.268C293.814 286.312 293.777 286.349 293.734 286.378C293.691 286.407 293.643 286.427 293.592 286.438L291.76 286.806C291.367 286.88 291.318 287.433 291.699 287.507L293.456 287.876C293.506 287.886 293.552 287.907 293.592 287.938C293.632 287.968 293.664 288.008 293.687 288.053C293.709 288.098 293.721 288.147 293.722 288.197C293.722 288.248 293.712 288.298 293.69 288.343L292.952 290.088C292.905 290.167 292.891 290.261 292.913 290.349C292.935 290.438 292.991 290.514 293.069 290.562C293.147 290.609 293.241 290.623 293.33 290.601C293.419 290.579 293.495 290.523 293.543 290.445L294.87 289.068C294.905 289.031 294.946 289.001 294.993 288.981C295.04 288.961 295.09 288.95 295.141 288.95C295.191 288.95 295.242 288.961 295.288 288.981C295.335 289.001 295.376 289.031 295.411 289.068L296.517 290.445C296.751 290.74 297.255 290.445 297.156 290.088L296.726 288.343C296.708 288.241 296.729 288.135 296.787 288.048C296.844 287.961 296.932 287.899 297.034 287.876L298.865 287.507C299.209 287.433 299.308 286.88 298.927 286.806Z" fill="#263238"/>
<path d="M310.568 286.806L308.798 286.438C308.748 286.427 308.702 286.406 308.662 286.376C308.622 286.345 308.59 286.306 308.567 286.261C308.545 286.216 308.533 286.166 308.532 286.116C308.532 286.066 308.542 286.016 308.564 285.97L309.302 284.225C309.332 284.15 309.335 284.066 309.31 283.988C309.285 283.911 309.233 283.845 309.164 283.802C309.094 283.76 309.012 283.743 308.932 283.755C308.851 283.767 308.777 283.807 308.724 283.868L307.384 285.245C307.352 285.286 307.311 285.319 307.264 285.342C307.217 285.365 307.166 285.376 307.114 285.376C307.061 285.376 307.01 285.365 306.963 285.342C306.916 285.319 306.875 285.286 306.843 285.245L305.749 283.868C305.516 283.573 305.012 283.868 305.098 284.225L305.528 285.97C305.54 286.021 305.542 286.074 305.533 286.126C305.524 286.178 305.505 286.227 305.476 286.271C305.447 286.315 305.41 286.352 305.366 286.381C305.322 286.41 305.272 286.429 305.221 286.438L303.389 286.806C302.996 286.88 302.946 287.433 303.389 287.507L305.159 287.876C305.209 287.885 305.255 287.906 305.295 287.937C305.335 287.968 305.367 288.007 305.389 288.053C305.41 288.099 305.421 288.149 305.419 288.199C305.418 288.249 305.404 288.299 305.38 288.343L304.655 290.088C304.624 290.164 304.621 290.248 304.647 290.325C304.672 290.402 304.724 290.468 304.793 290.511C304.862 290.554 304.945 290.571 305.025 290.558C305.106 290.546 305.179 290.506 305.233 290.445L306.573 289.068C306.607 289.031 306.649 289.001 306.696 288.981C306.742 288.961 306.792 288.95 306.843 288.95C306.894 288.95 306.944 288.961 306.991 288.981C307.037 289.001 307.079 289.031 307.114 289.068L308.208 290.445C308.441 290.74 308.945 290.445 308.847 290.088L308.417 288.343C308.398 288.239 308.422 288.132 308.481 288.044C308.541 287.957 308.632 287.897 308.736 287.876L310.568 287.507C310.9 287.433 310.949 286.88 310.568 286.806Z" fill="#263238"/>
<path d="M322.196 286.806L320.426 286.438C320.376 286.427 320.33 286.406 320.29 286.376C320.25 286.345 320.218 286.306 320.195 286.261C320.173 286.216 320.161 286.166 320.16 286.116C320.16 286.066 320.171 286.016 320.192 285.97L320.93 284.225C320.96 284.15 320.963 284.066 320.938 283.988C320.913 283.911 320.861 283.845 320.792 283.802C320.722 283.76 320.64 283.743 320.56 283.755C320.479 283.767 320.406 283.807 320.352 283.868L319.012 285.245C318.98 285.286 318.939 285.319 318.892 285.342C318.845 285.365 318.794 285.376 318.742 285.376C318.69 285.376 318.638 285.365 318.591 285.342C318.544 285.319 318.503 285.286 318.471 285.245L317.377 283.868C317.144 283.573 316.64 283.868 316.738 284.225L317.168 285.97C317.179 286.022 317.179 286.076 317.168 286.127C317.158 286.179 317.137 286.228 317.107 286.272C317.078 286.315 317.039 286.353 316.995 286.381C316.95 286.41 316.901 286.429 316.849 286.438L315.017 286.806C314.624 286.88 314.574 287.433 314.955 287.507L316.726 287.876C316.775 287.886 316.821 287.907 316.861 287.938C316.901 287.968 316.934 288.008 316.956 288.053C316.979 288.097 316.99 288.147 316.991 288.197C316.992 288.248 316.981 288.297 316.959 288.343L316.222 290.088C316.191 290.164 316.188 290.248 316.213 290.325C316.239 290.402 316.29 290.468 316.36 290.511C316.429 290.554 316.511 290.571 316.592 290.558C316.672 290.546 316.746 290.506 316.799 290.445L318.139 289.068C318.174 289.031 318.216 289.001 318.262 288.981C318.309 288.961 318.359 288.95 318.41 288.95C318.46 288.95 318.511 288.961 318.557 288.981C318.604 289.001 318.646 289.031 318.68 289.068L319.774 290.445C320.008 290.74 320.512 290.445 320.426 290.088L319.995 288.343C319.985 288.292 319.984 288.24 319.994 288.188C320.003 288.137 320.023 288.089 320.052 288.045C320.08 288.002 320.117 287.964 320.16 287.935C320.203 287.906 320.252 287.886 320.303 287.876L322.134 287.507C322.564 287.433 322.565 286.88 322.196 286.806Z" fill="#263238"/>
<path d="M333.825 286.806L332.055 286.438C332.005 286.428 331.959 286.407 331.919 286.377C331.879 286.346 331.847 286.306 331.825 286.26C331.804 286.215 331.793 286.165 331.795 286.115C331.796 286.064 331.81 286.015 331.834 285.971L332.571 284.225C332.595 284.186 332.61 284.143 332.617 284.099C332.624 284.054 332.622 284.008 332.611 283.964C332.6 283.92 332.581 283.879 332.554 283.842C332.527 283.806 332.493 283.775 332.454 283.752C332.416 283.728 332.373 283.713 332.328 283.706C332.283 283.699 332.238 283.701 332.194 283.712C332.15 283.723 332.108 283.742 332.072 283.769C332.035 283.796 332.005 283.83 331.981 283.869L330.654 285.245C330.62 285.286 330.578 285.32 330.53 285.342C330.482 285.365 330.43 285.377 330.377 285.377C330.324 285.377 330.272 285.365 330.224 285.342C330.176 285.32 330.134 285.286 330.1 285.245L329.006 283.869C328.773 283.574 328.269 283.869 328.367 284.225L328.797 285.971C328.808 286.021 328.809 286.074 328.799 286.125C328.789 286.176 328.77 286.225 328.741 286.268C328.713 286.312 328.676 286.349 328.633 286.378C328.59 286.407 328.541 286.427 328.49 286.438L326.659 286.806C326.265 286.88 326.216 287.433 326.597 287.507L328.355 287.876C328.404 287.886 328.451 287.907 328.49 287.938C328.53 287.968 328.563 288.008 328.585 288.053C328.608 288.098 328.62 288.147 328.62 288.197C328.621 288.248 328.61 288.298 328.588 288.343L327.851 290.089C327.804 290.167 327.789 290.261 327.811 290.349C327.833 290.438 327.889 290.515 327.968 290.562C328.046 290.609 328.14 290.623 328.229 290.601C328.317 290.58 328.394 290.523 328.441 290.445L329.769 289.068C329.803 289.031 329.845 289.001 329.891 288.981C329.938 288.961 329.988 288.95 330.039 288.95C330.09 288.95 330.14 288.961 330.186 288.981C330.233 289.001 330.275 289.031 330.309 289.068L331.403 290.445C331.461 290.509 331.538 290.552 331.623 290.567C331.708 290.582 331.795 290.567 331.871 290.526C331.947 290.485 332.006 290.419 332.039 290.339C332.073 290.26 332.078 290.172 332.055 290.089L331.625 288.343C331.606 288.241 331.628 288.135 331.685 288.048C331.742 287.961 331.831 287.899 331.932 287.876L333.764 287.507C334.157 287.433 334.206 286.88 333.825 286.806Z" fill="#263238"/>
<path d="M305.787 261.349H283.955C283.285 261.36 282.643 261.617 282.149 262.07C281.655 262.523 281.344 263.141 281.275 263.807C281.24 264.121 281.273 264.438 281.37 264.739C281.468 265.039 281.629 265.315 281.842 265.547C282.055 265.78 282.315 265.965 282.606 266.089C282.896 266.213 283.209 266.273 283.525 266.266H305.356C306.026 266.254 306.669 265.998 307.163 265.545C307.656 265.092 307.967 264.474 308.036 263.807C308.069 263.494 308.035 263.177 307.937 262.878C307.838 262.579 307.678 262.304 307.465 262.071C307.252 261.839 306.993 261.654 306.703 261.53C306.414 261.405 306.102 261.344 305.787 261.349Z" fill="#263238"/>
<path d="M327.962 261.349H315.289C314.62 261.361 313.979 261.617 313.487 262.071C312.996 262.524 312.687 263.142 312.621 263.807C312.586 264.12 312.618 264.436 312.715 264.736C312.812 265.035 312.972 265.31 313.184 265.543C313.395 265.775 313.654 265.96 313.943 266.085C314.232 266.21 314.544 266.271 314.858 266.266H327.483C328.151 266.254 328.792 265.997 329.284 265.544C329.776 265.091 330.084 264.473 330.15 263.807C330.185 263.499 330.154 263.187 330.06 262.891C329.966 262.595 329.81 262.322 329.604 262.09C329.398 261.859 329.145 261.673 328.862 261.545C328.579 261.417 328.272 261.35 327.962 261.349Z" fill="#263238"/>
<path opacity="0.2" d="M234.846 130.754C233.28 133.49 232.316 136.528 232.019 139.666L213.716 348.908H270.359L281.742 305.282L277.993 261.644L289.376 218.018L285.688 174.392L297.071 130.754H234.846Z" fill="black"/>
<path d="M280.708 162.1L292.091 118.462H148.848L137.477 162.1L141.214 205.726L129.844 249.351L133.58 292.989L122.21 336.615H265.441L276.824 292.989L273.075 249.351L284.457 205.726L280.708 162.1Z" fill="#3CAF47"/>
<path d="M280.708 162.1L292.091 118.462H148.848L137.477 162.1L141.214 205.726L129.844 249.351L133.58 292.989L122.21 336.615H265.441L276.824 292.989L273.075 249.351L284.457 205.726L280.708 162.1Z" fill="#3CAF47"/>
<path opacity="0.7" d="M280.709 162.1H137.478L148.848 118.462H292.091L280.709 162.1Z" fill="#F8D227"/>
<path opacity="0.7" d="M273.076 249.351H129.845L141.215 205.726H284.459L273.076 249.351Z" fill="#F8D227"/>
<path opacity="0.5" d="M265.442 336.615H122.198L133.581 292.989H276.824L265.442 336.615Z" fill="#F8D227"/>
<path opacity="0.2" d="M261.545 180.329C260.076 180.754 258.552 180.961 257.022 180.944C254.948 181.036 252.883 180.614 251.011 179.715C250.672 179.514 250.286 179.408 249.892 179.408C249.531 179.413 249.177 179.505 248.86 179.678H248.786C248.237 179.986 247.65 180.222 247.04 180.379C245.665 180.742 244.247 180.92 242.824 180.907C242.394 180.907 241.976 180.907 241.595 180.907C240.491 180.836 239.398 180.643 238.337 180.329C238.181 180.283 238.021 180.254 237.858 180.243C237.588 180.221 237.316 180.256 237.059 180.344C236.803 180.432 236.567 180.572 236.367 180.756C236.168 180.939 236.008 181.162 235.899 181.41C235.789 181.658 235.732 181.927 235.731 182.198V183.526H179.973C178.949 183.526 177.934 183.727 176.988 184.12C176.042 184.512 175.182 185.087 174.458 185.812C173.734 186.537 173.16 187.398 172.769 188.345C172.378 189.292 172.178 190.307 172.18 191.331V199.186C172.176 200.212 172.376 201.228 172.766 202.176C173.156 203.124 173.73 203.986 174.454 204.713C175.178 205.439 176.038 206.015 176.985 206.408C177.932 206.802 178.948 207.004 179.973 207.004H243.316H243.734C244.41 207.569 245.123 208.135 245.885 208.713C246.647 209.29 247.729 210.089 248.725 210.802C249.064 211.048 249.473 211.181 249.892 211.181C250.312 211.181 250.72 211.048 251.06 210.802C259.026 205.025 264.139 201.042 264.139 190.102V182.235C264.143 181.92 264.072 181.609 263.931 181.328C263.791 181.046 263.585 180.802 263.332 180.616C263.078 180.429 262.784 180.306 262.473 180.256C262.163 180.207 261.845 180.232 261.545 180.329Z" fill="black"/>
<path d="M240.727 179.654H169.328C164.467 179.654 160.527 183.08 160.527 187.305V195.004C160.527 199.229 164.467 202.654 169.328 202.654H240.727C245.587 202.654 249.527 199.229 249.527 195.004V187.305C249.527 183.08 245.587 179.654 240.727 179.654Z" fill="white"/>
<path d="M255.805 176.617C253.731 176.706 251.666 176.284 249.794 175.388C249.461 175.184 249.078 175.075 248.687 175.075C248.297 175.075 247.914 175.184 247.581 175.388C245.704 176.285 243.636 176.707 241.558 176.617C240.028 176.633 238.504 176.426 237.034 176.003C236.738 175.903 236.422 175.875 236.113 175.922C235.805 175.969 235.511 176.088 235.258 176.271C235.004 176.454 234.798 176.694 234.656 176.972C234.514 177.25 234.44 177.559 234.44 177.871V185.738C234.44 196.691 239.554 200.673 247.52 206.451C247.859 206.697 248.268 206.829 248.687 206.829C249.107 206.829 249.515 206.697 249.855 206.451C257.821 200.673 262.934 196.691 262.934 185.738V177.871C262.933 177.558 262.857 177.25 262.714 176.972C262.57 176.694 262.363 176.454 262.108 176.271C261.854 176.089 261.56 175.97 261.251 175.923C260.941 175.876 260.625 175.903 260.328 176.003C258.858 176.427 257.334 176.634 255.805 176.617Z" fill="#3CAF47"/>
<path d="M255.805 176.617C253.731 176.706 251.666 176.284 249.794 175.388C249.461 175.184 249.078 175.075 248.687 175.075C248.297 175.075 247.914 175.184 247.581 175.388C245.704 176.285 243.636 176.707 241.558 176.617C240.028 176.633 238.504 176.426 237.034 176.003C236.738 175.903 236.422 175.875 236.113 175.922C235.805 175.969 235.511 176.088 235.258 176.271C235.004 176.454 234.798 176.694 234.656 176.972C234.514 177.25 234.44 177.559 234.44 177.871V185.738C234.44 196.691 239.554 200.673 247.52 206.451C247.859 206.697 248.268 206.829 248.687 206.829C249.107 206.829 249.515 206.697 249.855 206.451C257.821 200.673 262.934 196.691 262.934 185.738V177.871C262.933 177.558 262.857 177.25 262.714 176.972C262.57 176.694 262.363 176.454 262.108 176.271C261.854 176.089 261.56 175.97 261.251 175.923C260.941 175.876 260.625 175.903 260.328 176.003C258.858 176.427 257.334 176.634 255.805 176.617Z" fill="#263238"/>
<path opacity="0.2" d="M247.581 175.363C245.704 176.261 243.636 176.683 241.558 176.593C240.028 176.608 238.504 176.401 237.034 175.978C236.738 175.878 236.422 175.851 236.113 175.897C235.805 175.944 235.511 176.064 235.258 176.246C235.004 176.429 234.798 176.669 234.656 176.948C234.514 177.226 234.44 177.534 234.44 177.846V185.714C234.44 196.666 239.554 200.649 247.52 206.426C247.876 206.685 248.308 206.819 248.749 206.807V175.044C248.337 175.036 247.931 175.147 247.581 175.363Z" fill="white"/>
<path d="M260.108 183.599C255.316 185.477 251.048 188.483 247.668 192.364C245.31 190.626 242.547 189.521 239.641 189.155H239.26V191.036L239.469 191.11C242.701 192.276 245.486 194.426 247.434 197.256L247.742 197.699L248 197.219C250.826 191.968 255.129 187.66 260.378 184.829L260.563 184.742V183.513L260.108 183.599Z" fill="white"/>
<path d="M289.561 130.742H284.128C283.429 130.755 282.735 130.619 282.093 130.342C281.45 130.066 280.875 129.656 280.403 129.139C279.932 128.623 279.577 128.012 279.36 127.347C279.144 126.682 279.072 125.979 279.149 125.284L279.628 119.851C279.776 118.373 280.461 117.001 281.553 115.995C282.645 114.989 284.069 114.419 285.553 114.393H290.987C291.687 114.378 292.382 114.513 293.025 114.789C293.669 115.064 294.247 115.474 294.719 115.991C295.192 116.508 295.548 117.119 295.765 117.785C295.982 118.451 296.055 119.155 295.977 119.851L295.498 125.284C295.333 126.757 294.641 128.12 293.55 129.123C292.459 130.126 291.042 130.701 289.561 130.742Z" fill="#3CAF47"/>
<path d="M291.821 119.839L290.641 118.536L287.667 121.264L285.183 118.536L283.77 119.839L286.265 122.567L283.303 125.296L284.483 126.587L287.445 123.858L289.941 126.587L291.342 125.296L288.847 122.567L291.821 119.839Z" fill="white"/>
<path d="M166.775 194.654L169.106 188.147H170.492L172.818 194.654H171.509L170.978 193.147H168.638L168.093 194.654H166.775ZM168.93 191.999H170.663L169.803 189.416L168.93 191.999ZM175.238 194.744C175.022 194.744 174.809 194.711 174.599 194.645C174.392 194.579 174.203 194.482 174.032 194.353C173.861 194.224 173.723 194.065 173.618 193.876C173.516 193.687 173.465 193.468 173.465 193.219V190.001H174.779V193.052C174.779 193.268 174.849 193.445 174.99 193.583C175.131 193.721 175.338 193.79 175.611 193.79C175.869 193.79 176.073 193.724 176.223 193.592C176.376 193.457 176.453 193.27 176.453 193.03V190.001H177.753V194.654H176.763L176.61 193.732C176.556 194.005 176.454 194.215 176.304 194.362C176.157 194.506 175.988 194.605 175.796 194.659C175.607 194.716 175.421 194.744 175.238 194.744ZM181.658 190.915H180.623L180.632 193.394C180.632 193.508 180.646 193.594 180.673 193.651C180.703 193.705 180.748 193.741 180.808 193.759C180.871 193.774 180.95 193.781 181.046 193.781H181.672V194.591C181.612 194.618 181.517 194.644 181.388 194.668C181.262 194.692 181.085 194.704 180.857 194.704C180.449 194.704 180.133 194.651 179.908 194.546C179.686 194.441 179.531 194.294 179.444 194.105C179.357 193.916 179.314 193.697 179.314 193.448V190.915H178.558V190.001H179.359L179.687 188.597H180.623V189.997H181.658V190.915ZM182.629 194.654V187.967H183.934V190.672C184.009 190.564 184.103 190.457 184.217 190.352C184.331 190.244 184.474 190.154 184.645 190.082C184.816 190.01 185.024 189.974 185.27 189.974C185.567 189.974 185.837 190.033 186.08 190.15C186.326 190.264 186.523 190.43 186.67 190.649C186.82 190.868 186.895 191.135 186.895 191.45V194.654H185.576V191.644C185.576 191.434 185.5 191.273 185.347 191.162C185.197 191.048 185.014 190.991 184.798 190.991C184.657 190.991 184.52 191.017 184.388 191.068C184.256 191.119 184.148 191.197 184.064 191.302C183.983 191.404 183.943 191.531 183.943 191.684V194.654H182.629ZM189.044 192.629C189.041 192.866 189.078 193.073 189.156 193.25C189.234 193.424 189.347 193.559 189.494 193.655C189.644 193.748 189.824 193.795 190.034 193.795C190.259 193.795 190.455 193.747 190.623 193.651C190.794 193.555 190.913 193.397 190.979 193.178H192.162C192.111 193.508 191.979 193.79 191.766 194.024C191.556 194.258 191.301 194.437 191.001 194.56C190.701 194.683 190.389 194.744 190.065 194.744C189.606 194.744 189.201 194.648 188.85 194.456C188.502 194.261 188.231 193.987 188.036 193.633C187.841 193.279 187.743 192.862 187.743 192.382C187.743 191.917 187.832 191.498 188.009 191.126C188.186 190.751 188.442 190.456 188.778 190.24C189.117 190.021 189.524 189.911 189.998 189.911C190.472 189.911 190.869 190.012 191.19 190.213C191.514 190.411 191.757 190.688 191.919 191.045C192.084 191.399 192.167 191.809 192.167 192.274V192.629H189.044ZM189.039 191.846H190.938C190.938 191.66 190.904 191.489 190.835 191.333C190.766 191.177 190.661 191.054 190.52 190.964C190.382 190.874 190.208 190.829 189.998 190.829C189.794 190.829 189.62 190.879 189.476 190.978C189.335 191.074 189.227 191.2 189.152 191.356C189.077 191.512 189.039 191.675 189.039 191.846ZM193.079 194.654V190.001H194.371V190.658C194.443 190.544 194.536 190.435 194.65 190.33C194.767 190.222 194.914 190.133 195.091 190.064C195.268 189.995 195.478 189.961 195.721 189.961C196.006 189.961 196.271 190.016 196.517 190.127C196.766 190.238 196.967 190.414 197.12 190.654C197.273 190.891 197.35 191.201 197.35 191.585V194.654H196.036V191.747C196.036 191.495 195.961 191.306 195.811 191.18C195.661 191.054 195.478 190.991 195.262 190.991C195.118 190.991 194.978 191.017 194.843 191.068C194.711 191.119 194.603 191.195 194.519 191.297C194.435 191.399 194.393 191.525 194.393 191.675V194.654H193.079ZM201.047 190.915H200.012L200.021 193.394C200.021 193.508 200.034 193.594 200.061 193.651C200.091 193.705 200.136 193.741 200.196 193.759C200.259 193.774 200.339 193.781 200.435 193.781H201.06V194.591C201 194.618 200.906 194.644 200.777 194.668C200.651 194.692 200.474 194.704 200.246 194.704C199.838 194.704 199.521 194.651 199.296 194.546C199.074 194.441 198.92 194.294 198.833 194.105C198.746 193.916 198.702 193.697 198.702 193.448V190.915H197.946V190.001H198.747L199.076 188.597H200.012V189.997H201.047V190.915ZM203.341 190.001V194.654H202.085V190.001H203.341ZM203.354 188.152V189.335H202.076V188.152H203.354ZM206.525 189.911C206.915 189.911 207.251 189.991 207.533 190.15C207.818 190.309 208.041 190.523 208.203 190.793C208.368 191.063 208.463 191.365 208.487 191.698H207.393C207.372 191.575 207.329 191.453 207.263 191.333C207.197 191.21 207.104 191.11 206.984 191.032C206.864 190.951 206.714 190.91 206.534 190.91C206.228 190.91 205.979 191.029 205.787 191.266C205.598 191.5 205.503 191.857 205.503 192.337C205.503 192.79 205.596 193.15 205.782 193.417C205.968 193.681 206.228 193.813 206.561 193.813C206.738 193.813 206.885 193.769 207.002 193.682C207.122 193.595 207.215 193.492 207.281 193.372C207.347 193.249 207.389 193.135 207.407 193.03H208.473C208.452 193.351 208.359 193.642 208.194 193.903C208.029 194.161 207.804 194.366 207.519 194.519C207.237 194.669 206.906 194.744 206.525 194.744C206.093 194.744 205.707 194.648 205.368 194.456C205.029 194.264 204.762 193.99 204.567 193.633C204.375 193.273 204.279 192.844 204.279 192.346C204.279 191.866 204.372 191.443 204.558 191.077C204.744 190.711 205.005 190.426 205.341 190.222C205.68 190.015 206.075 189.911 206.525 189.911ZM210.715 194.744C210.418 194.744 210.151 194.689 209.914 194.578C209.677 194.467 209.49 194.306 209.352 194.096C209.214 193.883 209.145 193.625 209.145 193.322C209.145 192.812 209.335 192.425 209.716 192.161C210.097 191.894 210.699 191.756 211.521 191.747L212.101 191.738V191.459C212.101 191.246 212.038 191.083 211.912 190.969C211.789 190.852 211.597 190.795 211.336 190.798C211.144 190.801 210.961 190.846 210.787 190.933C210.616 191.02 210.499 191.171 210.436 191.387H209.343C209.361 191.051 209.458 190.775 209.635 190.559C209.812 190.34 210.052 190.178 210.355 190.073C210.661 189.965 211.008 189.911 211.395 189.911C211.872 189.911 212.254 189.971 212.542 190.091C212.83 190.208 213.039 190.378 213.168 190.6C213.297 190.819 213.361 191.08 213.361 191.383V194.654H212.263L212.155 193.853C211.996 194.189 211.797 194.422 211.557 194.551C211.32 194.68 211.039 194.744 210.715 194.744ZM211.156 193.88C211.276 193.88 211.392 193.859 211.503 193.817C211.617 193.772 211.717 193.714 211.804 193.642C211.894 193.567 211.966 193.483 212.02 193.39C212.074 193.297 212.101 193.201 212.101 193.102V192.413L211.629 192.422C211.41 192.425 211.206 192.452 211.017 192.503C210.828 192.551 210.675 192.631 210.558 192.742C210.444 192.853 210.387 193.003 210.387 193.192C210.387 193.408 210.462 193.577 210.612 193.7C210.762 193.82 210.943 193.88 211.156 193.88ZM217.157 190.915H216.122L216.131 193.394C216.131 193.508 216.145 193.594 216.172 193.651C216.202 193.705 216.247 193.741 216.307 193.759C216.37 193.774 216.449 193.781 216.545 193.781H217.171V194.591C217.111 194.618 217.016 194.644 216.887 194.668C216.761 194.692 216.584 194.704 216.356 194.704C215.948 194.704 215.632 194.651 215.407 194.546C215.185 194.441 215.03 194.294 214.943 194.105C214.856 193.916 214.813 193.697 214.813 193.448V190.915H214.057V190.001H214.858L215.186 188.597H216.122V189.997H217.157V190.915ZM219.059 192.629C219.056 192.866 219.093 193.073 219.171 193.25C219.249 193.424 219.362 193.559 219.509 193.655C219.659 193.748 219.839 193.795 220.049 193.795C220.274 193.795 220.47 193.747 220.638 193.651C220.809 193.555 220.928 193.397 220.994 193.178H222.177C222.126 193.508 221.994 193.79 221.781 194.024C221.571 194.258 221.316 194.437 221.016 194.56C220.716 194.683 220.404 194.744 220.08 194.744C219.621 194.744 219.216 194.648 218.865 194.456C218.517 194.261 218.246 193.987 218.051 193.633C217.856 193.279 217.758 192.862 217.758 192.382C217.758 191.917 217.847 191.498 218.024 191.126C218.201 190.751 218.457 190.456 218.793 190.24C219.132 190.021 219.539 189.911 220.013 189.911C220.487 189.911 220.884 190.012 221.205 190.213C221.529 190.411 221.772 190.688 221.934 191.045C222.099 191.399 222.182 191.809 222.182 192.274V192.629H219.059ZM219.054 191.846H220.953C220.953 191.66 220.919 191.489 220.85 191.333C220.781 191.177 220.676 191.054 220.535 190.964C220.397 190.874 220.223 190.829 220.013 190.829C219.809 190.829 219.635 190.879 219.491 190.978C219.35 191.074 219.242 191.2 219.167 191.356C219.092 191.512 219.054 191.675 219.054 191.846ZM224.822 194.744C224.198 194.744 223.712 194.53 223.364 194.101C223.016 193.669 222.842 193.069 222.842 192.301C222.842 191.815 222.912 191.393 223.053 191.036C223.194 190.679 223.403 190.403 223.679 190.208C223.955 190.01 224.292 189.911 224.691 189.911C224.859 189.911 225.015 189.931 225.159 189.97C225.306 190.006 225.44 190.057 225.56 190.123C225.68 190.189 225.785 190.265 225.875 190.352C225.965 190.439 226.038 190.532 226.095 190.631V187.967H227.414V194.654H226.46L226.311 193.7C226.269 193.829 226.211 193.955 226.136 194.078C226.061 194.201 225.965 194.314 225.848 194.416C225.731 194.515 225.587 194.594 225.416 194.654C225.248 194.714 225.05 194.744 224.822 194.744ZM225.11 193.799C225.44 193.799 225.686 193.684 225.848 193.453C226.013 193.222 226.095 192.832 226.095 192.283C226.092 191.965 226.055 191.701 225.983 191.491C225.911 191.281 225.803 191.125 225.659 191.023C225.518 190.918 225.338 190.865 225.119 190.865C224.834 190.865 224.597 190.975 224.408 191.194C224.219 191.41 224.124 191.773 224.124 192.283C224.124 192.802 224.213 193.184 224.39 193.43C224.567 193.676 224.807 193.799 225.11 193.799Z" fill="#202020"/>
<path d="M414.405 427.441L383.905 503.27C372.304 530.414 329.685 513.496 339.707 485.863L381.4 363.77L414.433 427.441H414.405Z" fill="#EEBFAC"/>
<path d="M414.868 325.774C414.868 325.774 365.169 329.011 363.181 402.011L397.276 409.871L414.868 325.774Z" fill="#3CAF47"/>
<path d="M380.364 477.513L296.298 378.892L277.943 396.598L341.095 504.684L380.364 477.513Z" fill="#EEBFAC"/>
<path d="M295.918 385.501C295.918 385.501 298.723 370.624 289.872 355.257C284.262 345.52 282.955 341.658 282.764 337.197C282.655 334.967 280.858 333.227 278.652 333.227C276.365 333.227 274.513 335.076 274.513 337.361V357.351C274.513 357.351 255.369 356.263 233.909 340.244C232.384 339.101 230.287 338.938 228.681 339.945C224.541 342.528 218.605 349.029 227.945 362.709C227.945 362.709 220.021 367.36 234.454 378.049C248.887 388.738 270.782 400.379 287.094 400.379L295.945 385.501H295.918Z" fill="#EEBFAC"/>
<path d="M353.377 445.827L373.257 469.653" stroke="black" stroke-width="0.48" stroke-linecap="round" stroke-linejoin="round"/>
<path d="M592.75 416.807L622.025 493.125C632.019 520.894 589.237 537.458 577.772 510.396L525.186 392.573L592.75 416.834V416.807Z" fill="#EEBFAC"/>
<path d="M539.211 325.774C585.751 336.246 602.118 404.051 613.038 433.914L535.317 462.989C527.474 439.572 456.288 338.313 539.211 325.774Z" fill="#3CAF47"/>
<path d="M536.324 325.475C480.797 315.276 449.861 314.596 408.359 327.107C368.218 339.21 395.669 467.749 406.752 516.026H522.79L560.017 372.446C554.924 360.969 553.699 326.536 536.324 325.475Z" fill="#3CAF47"/>
<path d="M535.29 462.989L551.711 399.672" stroke="black" stroke-width="0.48" stroke-linecap="round" stroke-linejoin="round"/>
<path d="M388.343 407.804C388.343 407.804 385.783 381.884 386.682 371.658" stroke="black" stroke-width="0.48" stroke-linecap="round" stroke-linejoin="round"/>
<path d="M511.951 321.232C511.951 321.232 492.371 318.839 481.206 318.023L446.43 319.274C446.43 319.274 434.066 320.824 428.62 322.13L451.495 350.688L511.979 321.232H511.951Z" fill="#EEBFAC"/>
<path d="M606.991 479.335L477.474 455.7L466.826 478.846L589.998 522.689L606.991 479.335Z" fill="#EEBFAC"/>
<path d="M464.292 435.002L455.659 409.654C455.033 407.831 453.399 406.553 451.466 406.39L414.647 403.534C413.204 403.425 411.761 403.915 410.699 404.921L408.438 407.042C406.968 408.43 406.423 410.551 407.077 412.482L432.539 486.189C432.947 487.386 434.037 488.229 435.317 488.365L477.01 492.146C479.297 492.363 481.094 490.16 480.414 487.957L464.319 435.002H464.292Z" fill="#1E0B02"/>
<path d="M483.9 472.917C483.9 472.917 487.141 446.099 464.293 435.029C464.293 435.029 470.202 452.518 458.111 451.675L418.76 447.296C418.76 447.296 412.17 449.88 415.737 455.945C419.304 462.01 420.04 478.329 454.298 484.177C488.557 490.024 483.927 472.944 483.927 472.944L483.9 472.917Z" fill="#EEBFAC"/>
<path d="M560.234 470.795L591.088 476.425" stroke="black" stroke-width="0.48" stroke-linecap="round" stroke-linejoin="round"/>
<path d="M522.791 515.998L529.109 537.186C529.109 537.186 471.731 565.363 396.869 544.774L406.754 515.998H522.791Z" fill="#1E0B02"/>
<path d="M504.899 252.992C510.046 271.922 529.571 283.1 548.498 277.96C567.452 272.819 578.644 253.318 573.497 234.415C568.35 215.486 548.825 204.307 529.898 209.448C510.944 214.588 499.752 234.089 504.899 252.992Z" fill="#DE8778"/>
<path d="M472.33 227.317C475.87 240.345 489.295 248.015 502.34 244.479C515.384 240.943 523.064 227.534 519.523 214.506C515.983 201.478 502.558 193.809 489.513 197.344C476.469 200.88 468.789 214.289 472.33 227.317Z" fill="white"/>
<path d="M398.228 183.609C398.228 183.609 404.382 196.664 424.316 190.708L414.867 171.588C414.867 171.588 402.422 173.736 398.228 183.609Z" fill="#DE8778"/>
<path d="M519.684 202.675C519.439 234.062 490.164 259.302 458.738 259.03C427.312 258.785 405.635 233.137 405.907 201.75C406.179 170.364 431.832 145.151 463.259 145.396C494.685 145.641 519.957 171.288 519.684 202.675Z" fill="#DE8778"/>
<path d="M393.409 235.476C393.872 244.533 402.859 252.475 413.425 253.237C424.018 253.971 432.215 247.253 431.725 238.196C431.262 229.139 422.276 221.197 411.709 220.436C401.116 219.701 392.919 226.419 393.409 235.476Z" fill="#DDA08E"/>
<path d="M446.24 270.317L446.43 328.44L490.574 326.427L477.475 242.194L446.24 270.317Z" fill="#EEBFAC"/>
<path d="M446.241 302.819L477.177 262.076L446.241 275.267V302.819Z" fill="#DDA08E"/>
<path d="M435.482 154.806C420.096 159.212 404.927 177.136 402.368 192.258C399.426 209.692 396.131 236.836 401.142 250.68C406.561 265.666 417.128 276.845 432.95 280.516C448.363 284.079 464.24 278.694 474.643 267.76C481.532 260.499 487.878 249.184 495.802 231.995C525.84 166.746 470.04 144.933 435.482 154.806Z" fill="#EEBFAC"/>
<path d="M409.476 226.963C408.932 228.921 406.835 230.091 404.765 229.574C402.695 229.057 401.47 227.072 402.014 225.114C402.559 223.155 404.656 221.986 406.726 222.503C408.795 223.019 410.021 225.005 409.476 226.963Z" fill="#221915"/>
<path d="M443.353 227.48C442.808 229.438 440.712 230.608 438.642 230.091C436.572 229.574 435.347 227.589 435.891 225.63C436.436 223.672 438.533 222.503 440.603 223.019C442.672 223.536 443.898 225.522 443.353 227.48Z" fill="#221915"/>
<path d="M415.44 229.71L412.553 241.378L419.307 243.337" stroke="black" stroke-width="0.47" stroke-linecap="round" stroke-linejoin="round"/>
<path d="M443.381 202.267C443.381 202.267 451.66 204.144 455.527 206.973C457.923 208.713 457.651 211.46 454.546 212.113C451.714 212.711 445.805 211.542 442.292 210.807C433.686 208.985 428.185 205.341 428.92 202.838C429.901 199.602 438.86 201.043 443.354 202.294L443.381 202.267Z" fill="black"/>
<path d="M404.274 201.397C404.274 201.397 400.081 201.75 396.867 203.654C394.879 204.824 394.716 207.136 396.867 208.006C398.855 208.822 401.224 208.795 403.893 208.55C410.429 207.979 413.452 205.803 413.261 203.654C412.989 200.88 407.733 200.853 404.274 201.37V201.397Z" fill="black"/>
<path d="M434.993 249.157C434.993 249.157 430.936 257.017 419.307 252.856" stroke="black" stroke-width="0.47" stroke-linecap="round" stroke-linejoin="round"/>
<path d="M479.354 188.94L478.946 241.052L511.271 224.624L511.57 188.94H479.354Z" fill="#DE8778"/>
<path d="M506.697 233.001C508.63 241.324 502.83 250.49 493.734 253.454C484.638 256.419 475.679 252.067 473.745 243.717C471.812 235.395 477.612 226.229 486.708 223.264C495.804 220.3 504.763 224.651 506.697 233.001Z" fill="#EEBFAC"/>
<path d="M466.527 145.423C466.527 145.423 405.962 142.975 398.228 183.609C398.228 183.609 424.317 175.423 437.661 152.549L466.527 145.423Z" fill="#DE8778"/>
<path d="M415.931 158.369C415.931 158.369 398.556 196.501 504.681 201.669L507.677 173.655L466.066 147.191C464.268 146.049 462.09 145.722 460.047 146.293L415.931 158.397V158.369Z" fill="#DE8778"/>
<defs>
<linearGradient id="paint0_linear_1588_18879" x1="280.092" y1="310.568" x2="329.232" y2="310.568" gradientUnits="userSpaceOnUse">
<stop stop-color="#FFD426"/>
<stop offset="1" stop-color="#3CAF47"/>
</linearGradient>
</defs>
</svg>
