<svg width="150" height="35" viewBox="0 0 150 35" fill="none" xmlns="http://www.w3.org/2000/svg">
<path d="M95.3307 21.5091C92.7189 21.5091 90.5936 19.3838 90.5936 16.7719C90.5936 14.1601 92.7189 12.0348 95.3307 12.0348C97.9426 12.0348 100.068 14.1601 100.068 16.7719C100.068 19.4093 97.9169 21.5091 95.3307 21.5091ZM95.3307 9.21817C91.157 9.21817 87.777 12.5982 87.777 16.7719C87.777 20.9457 91.157 24.3257 95.3307 24.3257C99.5045 24.3257 102.884 20.9457 102.884 16.7719C102.884 12.6238 99.5045 9.21817 95.3307 9.21817ZM86.0869 21.8931H86.7015V24.7354H86.0869C82.835 24.7354 80.172 22.0724 80.172 18.8204V5.83825H83.0142V9.62795H86.6759V12.4702H83.0142V18.8461C83.0142 20.5105 84.397 21.8932 86.087 21.8932M120.706 21.5091C118.094 21.5091 115.969 19.3838 115.969 16.7719C115.969 14.1601 118.094 12.0348 120.706 12.0348C123.318 12.0348 125.443 14.1601 125.443 16.7719C125.418 19.4093 123.292 21.5091 120.706 21.5091ZM120.706 9.21817C116.533 9.21817 113.152 12.5982 113.152 16.7719C113.152 20.9457 116.533 24.3257 120.706 24.3257C124.88 24.3257 128.26 20.9457 128.26 16.7719C128.26 12.6238 124.88 9.21817 120.706 9.21817ZM142.446 21.5091C139.834 21.5091 137.709 19.3838 137.709 16.7719C137.709 14.1601 139.834 12.0348 142.446 12.0348C145.058 12.0348 147.183 14.1601 147.183 16.7719C147.183 19.4093 145.032 21.5091 142.446 21.5091ZM142.446 9.21817C138.272 9.21817 134.892 12.5982 134.892 16.7719C134.892 20.9457 138.272 24.3257 142.446 24.3257C144.289 24.3257 145.979 23.66 147.285 22.5589V24.0441H150V16.7719C150 12.6238 146.62 9.21817 142.446 9.21817ZM110.694 9.21817H112.051V12.0604H110.694C109.004 12.0604 107.622 13.4432 107.622 15.1332V24.1465H104.779V15.1332C104.779 11.8812 107.442 9.21817 110.694 9.21817M130.155 5.4541H132.997V24.0953H130.155V5.4541ZM61.2747 15.5173V24.505H58.4325V15.5173C58.4325 13.8273 57.0497 12.4445 55.3597 12.4445C53.6697 12.4445 52.287 13.8273 52.287 15.5173V24.505H49.4447V15.5173C49.4447 13.8273 48.062 12.4445 46.372 12.4445C44.682 12.4445 43.2993 13.8273 43.2993 15.5173V24.505H40.457V15.5173C40.457 12.2653 43.1201 9.60227 46.3464 9.60227C48.1644 9.60227 49.752 10.396 50.8531 11.6764C51.9541 10.396 53.5417 9.60227 55.3597 9.60227C58.6117 9.60227 61.2747 12.2653 61.2747 15.5173ZM70.7489 21.8931C68.1371 21.8931 66.0118 19.7679 66.0118 17.156C66.0118 14.5442 68.1371 12.4189 70.749 12.4189C73.3608 12.4189 75.486 14.5442 75.486 17.156C75.486 19.7679 73.3351 21.8931 70.749 21.8931M70.749 9.60227C66.5495 9.60227 63.1696 12.9823 63.1696 17.156C63.1696 21.3298 66.5496 24.7098 70.7233 24.7098C74.8971 24.7098 78.2771 21.3298 78.2771 17.156C78.3027 13.0079 74.9227 9.60227 70.749 9.60227Z" fill="black"/>
<path d="M17.1816 0C7.68178 0 0 7.68178 0 17.1816C0 26.6814 7.68178 34.3633 17.1816 34.3633C26.6814 34.3633 34.3633 26.6814 34.3633 17.1816C34.3633 7.73303 26.7839 0 17.1816 0Z" fill="black"/>
<path d="M22.303 4.2251L17.2074 21.1251L17.1817 21.1507L17.1305 21.1251L12.035 4.2251L5.4541 25.8622H6.6832C6.6832 25.8622 7.50259 22.0981 8.8597 19.8448C9.60232 18.6157 10.729 17.617 12.2397 17.6427C13.3152 17.6683 14.237 18.2572 15.3893 19.8704C15.6453 20.2288 15.9526 20.8178 16.2599 21.3811C16.7464 22.3286 17.1561 23.3016 17.1561 23.3016C17.1561 23.3016 18.2316 20.8434 18.9229 19.8704C20.0751 18.2572 20.997 17.6682 22.0724 17.6427C23.5832 17.617 24.7355 18.6157 25.4525 19.8448C26.8095 22.0981 27.6289 25.8622 27.6289 25.8622H28.858L22.303 4.2251Z" fill="white"/>
</svg>
