<svg width="150" height="26" viewBox="0 0 150 26" fill="none" xmlns="http://www.w3.org/2000/svg">
<path d="M7.2225 24.9712H0V0.40875H12.4913L26.8219 18.7462V0.40875H34.0444V24.9712H21.8063L7.2225 6.32062V24.9712ZM68.6006 17.3756C68.6006 20.79 67.9969 21.9675 66.9975 23.0962C65.4656 24.7762 63.2363 25.2825 58.9406 25.2825H46.6087C42.3131 25.2825 40.08 24.7762 38.55 23.0962C37.5506 21.9675 36.9469 20.79 36.9469 17.3756V7.90687C36.9469 4.49437 37.5506 3.31875 38.55 2.18812C40.0819 0.50625 42.3131 0 46.6087 0H58.9406C63.2363 0 65.4656 0.50625 66.9975 2.18812C67.9969 3.31875 68.6006 4.49437 68.6006 7.90687V17.3756ZM58.6369 19.0594C60.2869 19.0594 60.8681 18.9619 61.2637 18.6019C61.6331 18.2662 61.7962 17.8331 61.7962 16.3894V8.89312C61.7962 7.44937 61.6331 7.02 61.2637 6.6825C60.8681 6.32062 60.2869 6.225 58.6369 6.225H46.9106C45.2606 6.225 44.6794 6.32062 44.2856 6.6825C43.9144 7.02 43.7513 7.44937 43.7513 8.89312V16.3894C43.7513 17.8331 43.9144 18.2662 44.2856 18.6019C44.6794 18.9619 45.2606 19.0594 46.9106 19.0594H58.6369ZM79.0969 0.40875V24.9712H71.55V0.40875H79.0969ZM91.8469 0.40875H101.811L88.3631 11.8969L103.53 24.9712H92.8687L79.0969 12.1612L91.8469 0.40875ZM104.921 0.40875H112.47V24.9712H104.921M141.246 24.9712L139.013 20.6925H124.408L122.201 24.9694H113.863L127.241 0.40875H136.624L150 24.9712H141.246ZM127.031 15.3581H136.416L131.723 6.465L127.031 15.3581Z" fill="#1C4598"/>
</svg>
