<svg width="150" height="24" viewBox="0 0 150 24" fill="none" xmlns="http://www.w3.org/2000/svg">
<path fill-rule="evenodd" clip-rule="evenodd" d="M15.5056 14.7663C12.2443 14.7663 3.88146 13.4558 3.88146 8.46337C3.88146 4.97611 9.08727 2.16086 15.5056 2.16086C21.924 2.16086 27.1235 4.97611 27.1235 8.46337C27.1235 11.9399 21.924 14.7663 15.5056 14.7663ZM17.2552 0C7.72369 0 0 3.84926 0 8.59069C0 13.3424 7.72369 17.1873 17.2551 17.1873C26.778 17.1873 34.5041 13.3424 34.5041 8.59069C34.5041 3.84926 26.778 0 17.2551 0H17.2552Z" fill="#008B56"/>
<path fill-rule="evenodd" clip-rule="evenodd" d="M131.002 14.7663C127.741 14.7663 119.377 13.4562 119.377 8.46337C119.377 4.97611 124.583 2.16086 131.002 2.16086C137.42 2.16086 142.619 4.97611 142.619 8.46337C142.619 11.9399 137.42 14.7663 131.002 14.7663ZM132.75 0C123.22 0 115.496 3.84926 115.496 8.59069C115.496 13.3424 123.22 17.1873 132.75 17.1873C142.275 17.1873 150 13.3424 150 8.59069C150 3.84926 142.274 0 132.75 0H132.75Z" fill="#008B56"/>
<path fill-rule="evenodd" clip-rule="evenodd" d="M56.1571 0C53.2876 0 50.5851 0.350992 48.2043 0.967362V3.13295C50.0005 2.51825 52.1272 2.16086 54.4076 2.16086C60.8255 2.16086 66.0252 4.97614 66.0252 8.4634C66.0252 11.9399 60.8255 14.7663 54.4076 14.7663C49.9885 14.7663 46.1444 13.4257 44.1783 11.4568V0.508895H38.0859V23.3721H44.1783V14.777C47.2818 16.2684 51.5021 17.1873 56.1571 17.1873C65.6801 17.1873 73.4059 13.3424 73.4059 8.59072C73.4059 3.84929 65.6801 0 56.1571 0Z" fill="#008B56"/>
<path fill-rule="evenodd" clip-rule="evenodd" d="M95.0573 0C92.1878 0 89.4857 0.350992 87.1055 0.967362V3.13295C88.9005 2.51825 91.0271 2.16086 93.3082 2.16086C99.7265 2.16086 104.926 4.97614 104.926 8.4634C104.926 11.9399 99.7264 14.7663 93.3082 14.7663C88.8897 14.7663 85.0449 13.4257 83.0786 11.4568V0.508895H76.9868V23.3721H83.0786V14.777C86.1817 16.2684 90.403 17.1873 95.0573 17.1873C104.581 17.1873 112.306 13.3424 112.306 8.59072C112.307 3.84929 104.581 0 95.0573 0Z" fill="#008B56"/>
</svg>
