<svg width="17" height="14" viewBox="0 0 17 14" fill="none" xmlns="http://www.w3.org/2000/svg">
<path d="M9.75 0.25C7.95979 0.25 6.2429 0.961159 4.97703 2.22703C3.71116 3.4929 3 5.20979 3 7H0.75L3.75 10L6.75 7H4.5C4.5 4.105 6.855 1.75 9.75 1.75C12.645 1.75 15 4.105 15 7C15 9.895 12.645 12.25 9.75 12.25C8.325 12.25 7.035 11.68 6.09 10.7575L5.025 11.815C6.28508 13.055 7.98211 13.75 9.75 13.75C11.5402 13.75 13.2571 13.0388 14.523 11.773C15.7888 10.5071 16.5 8.79021 16.5 7C16.5 5.20979 15.7888 3.4929 14.523 2.22703C13.2571 0.961159 11.5402 0.25 9.75 0.25Z" fill="#FF4930"/>
</svg>
