<svg width="150" height="23" viewBox="0 0 150 23" fill="none" xmlns="http://www.w3.org/2000/svg">
<path d="M9.95638 16.1122C10.1628 16.6306 10.0973 17.2951 9.99664 17.6978C9.82047 18.4125 9.33725 19.1424 7.90772 19.1424C6.56879 19.1424 5.75336 18.3672 5.75336 17.1994V15.1206H0V16.7716C0 21.5535 3.76007 22.9981 7.79195 22.9981C11.6678 22.9981 14.8591 21.6793 15.3674 18.1004C15.6292 16.2481 15.4379 15.035 15.3473 14.587C14.4413 10.0971 6.30705 8.75816 5.69799 6.24641C5.61341 5.87601 5.60655 5.49209 5.67785 5.1189C5.82886 4.4293 6.29698 3.6793 7.63591 3.6793C8.89429 3.6793 9.62416 4.45447 9.62416 5.62225V6.95111H14.9748V5.44105C14.9748 0.769905 10.7819 0.0400391 7.75168 0.0400391C3.93624 0.0400391 0.82047 1.30346 0.251678 4.80178C0.100671 5.75816 0.0755034 6.61386 0.302013 7.69105C1.23322 12.0702 8.84899 13.3387 9.95638 16.1122Z" fill="#034EA2"/>
<path d="M22.9531 0.72476L18.9766 22.1627H24.7702L27.7048 2.70798H27.8256L30.6796 22.1627H36.443L32.4917 0.719727L22.9531 0.72476ZM55.344 0.72476L52.7014 17.114H52.5756L49.938 0.72476H41.1947L40.7215 22.1627H46.0873L46.2182 2.88919H46.339L49.9178 22.1627H55.3591L58.943 2.89422H59.0588L59.1947 22.1627H64.5554L64.0823 0.719727L55.344 0.72476Z" fill="#034EA2"/>
<path d="M79.6561 16.0721C79.8625 16.5906 79.797 17.255 79.6964 17.6577C79.5202 18.3725 79.037 19.1023 77.6074 19.1023C76.2685 19.1023 75.4531 18.3272 75.4531 17.1594V15.0805H69.6997V16.7315C69.6997 21.5134 73.4598 22.9581 77.4917 22.9581C81.3675 22.9581 84.5588 21.6393 85.0672 18.0604C85.3289 16.2081 85.1376 14.995 85.047 14.547C84.141 10.057 76.0068 8.71812 75.3977 6.20638C75.3131 5.83597 75.3063 5.45205 75.3776 5.07886C75.5286 4.38926 75.9967 3.63926 77.3356 3.63926C78.594 3.63926 79.3239 4.41443 79.3239 5.58221V6.91107H84.6745V5.40101C84.6745 0.729866 80.4816 0 77.4514 0C73.6359 0 70.5202 1.26342 69.9514 4.76174C69.8004 5.71812 69.7752 6.57383 70.0017 7.65101C70.9329 12.0302 78.5487 13.2987 79.6561 16.0721Z" fill="#034EA2"/>
<path d="M97.6509 18.9515C99.1408 18.9515 99.5989 17.9247 99.7046 17.4012C99.7499 17.1696 99.7549 16.8576 99.7549 16.5807V0.725006H105.181V16.0925C105.182 16.5627 105.165 17.0329 105.131 17.5019C104.753 21.5035 101.592 22.8022 97.6509 22.8022C93.7046 22.8022 90.5435 21.5035 90.166 17.5019C90.1509 17.2904 90.1106 16.4851 90.1157 16.0925V0.719972H95.5418V16.5757C95.5368 16.8576 95.5469 17.1696 95.5922 17.4012C95.6929 17.9247 96.1559 18.9515 97.6509 18.9515ZM123.866 0.725006L124.158 17.5522H124.042L119.109 0.725006H111.156V21.9364H116.426L116.134 4.52534H116.25L121.54 21.9364H129.176V0.725006H123.866ZM142.364 18.73C143.914 18.73 144.458 17.7485 144.554 17.1696C144.599 16.9331 144.604 16.631 144.604 16.3643V13.2435H142.404V10.1227H150V15.871C150 16.2737 149.99 16.5656 149.924 17.2804C149.572 21.1864 146.184 22.5807 142.384 22.5807C138.584 22.5807 135.201 21.1864 134.844 17.2804C134.783 16.5656 134.768 16.2737 134.768 15.871V6.85085C134.768 6.4683 134.819 5.7938 134.859 5.44145C135.337 1.4297 138.584 0.141113 142.384 0.141113C146.184 0.141113 149.517 1.41964 149.909 5.43642C149.98 6.12098 149.96 6.84581 149.96 6.84581V7.56561H144.554V6.36259C144.554 6.36259 144.554 5.85923 144.488 5.54715C144.387 5.074 143.985 3.98675 142.344 3.98675C140.783 3.98675 140.325 5.01863 140.21 5.54715C140.144 5.82903 140.119 6.21158 140.119 6.5589V16.3592C140.119 16.631 140.129 16.9331 140.169 17.1747C140.27 17.7485 140.814 18.73 142.364 18.73Z" fill="#034EA2"/>
</svg>
