<svg width="222" height="57" viewBox="0 0 222 57" fill="none" xmlns="http://www.w3.org/2000/svg">
<path d="M63.0223 29.3C61.9523 29.3 60.9023 29.165 59.8723 28.895C58.8423 28.625 57.9023 28.22 57.0523 27.68C56.2023 27.14 55.4973 26.465 54.9373 25.655C54.3873 24.845 54.0573 23.895 53.9473 22.805H58.4323C58.5823 23.465 58.8673 24.02 59.2873 24.47C59.7073 24.92 60.2373 25.265 60.8773 25.505C61.5173 25.745 62.2273 25.865 63.0073 25.865C63.8073 25.865 64.5373 25.765 65.1973 25.565C65.8573 25.365 66.3873 25.065 66.7873 24.665C67.1873 24.255 67.3873 23.745 67.3873 23.135C67.3873 22.585 67.2223 22.135 66.8923 21.785C66.5723 21.435 66.1373 21.15 65.5873 20.93C65.0373 20.71 64.4123 20.53 63.7123 20.39L59.9623 19.625C58.3223 19.315 57.0223 18.665 56.0623 17.675C55.1023 16.675 54.6073 15.345 54.5773 13.685C54.5673 12.325 54.9273 11.15 55.6573 10.16C56.3973 9.16 57.3973 8.39 58.6573 7.85C59.9273 7.31 61.3473 7.04 62.9173 7.04C64.7873 7.04 66.3573 7.335 67.6273 7.925C68.9073 8.505 69.8773 9.295 70.5373 10.295C71.2073 11.285 71.5523 12.39 71.5723 13.61H67.1773C67.0973 12.85 66.8673 12.245 66.4873 11.795C66.1073 11.345 65.6173 11.02 65.0173 10.82C64.4273 10.62 63.7523 10.52 62.9923 10.52C62.4123 10.52 61.8823 10.585 61.4023 10.715C60.9323 10.845 60.5323 11.03 60.2023 11.27C59.8723 11.5 59.6173 11.775 59.4373 12.095C59.2573 12.415 59.1673 12.775 59.1673 13.175C59.1673 13.805 59.3773 14.315 59.7973 14.705C60.2173 15.095 61.0023 15.415 62.1523 15.665L65.8723 16.43C67.2023 16.69 68.2573 17.075 69.0373 17.585C69.8273 18.095 70.4173 18.67 70.8073 19.31C71.2073 19.95 71.4673 20.605 71.5873 21.275C71.7173 21.935 71.7823 22.545 71.7823 23.105C71.7823 24.275 71.4123 25.33 70.6723 26.27C69.9423 27.2 68.9223 27.94 67.6123 28.49C66.3023 29.03 64.7723 29.3 63.0223 29.3ZM78.5473 22.25C78.5373 23.04 78.6623 23.73 78.9223 24.32C79.1823 24.9 79.5573 25.35 80.0473 25.67C80.5473 25.98 81.1473 26.135 81.8473 26.135C82.5973 26.135 83.2523 25.975 83.8123 25.655C84.3823 25.335 84.7773 24.81 84.9973 24.08H88.9423C88.7723 25.18 88.3323 26.12 87.6223 26.9C86.9223 27.68 86.0723 28.275 85.0723 28.685C84.0723 29.095 83.0323 29.3 81.9523 29.3C80.4223 29.3 79.0723 28.98 77.9023 28.34C76.7423 27.69 75.8373 26.775 75.1873 25.595C74.5373 24.415 74.2123 23.025 74.2123 21.425C74.2123 19.875 74.5073 18.48 75.0973 17.24C75.6873 15.99 76.5423 15.005 77.6623 14.285C78.7923 13.555 80.1473 13.19 81.7273 13.19C83.3073 13.19 84.6323 13.525 85.7023 14.195C86.7823 14.855 87.5923 15.78 88.1323 16.97C88.6823 18.15 88.9573 19.515 88.9573 21.065V22.25H78.5473ZM78.5323 19.64H84.8623C84.8623 19.02 84.7473 18.45 84.5173 17.93C84.2873 17.41 83.9373 17 83.4673 16.7C83.0073 16.4 82.4273 16.25 81.7273 16.25C81.0473 16.25 80.4673 16.415 79.9873 16.745C79.5173 17.065 79.1573 17.485 78.9073 18.005C78.6573 18.525 78.5323 19.07 78.5323 19.64ZM96.948 29.27C95.808 29.27 94.903 29.135 94.233 28.865C93.563 28.595 93.068 28.24 92.748 27.8C92.428 27.35 92.223 26.855 92.133 26.315C92.043 25.765 91.998 25.21 91.998 24.65V6.71H96.288V24.11C96.288 24.68 96.408 25.145 96.648 25.505C96.898 25.855 97.363 26.07 98.043 26.15L98.778 26.195V28.895C98.478 28.995 98.173 29.08 97.863 29.15C97.553 29.23 97.248 29.27 96.948 29.27ZM106.264 29.27C105.124 29.27 104.219 29.135 103.549 28.865C102.879 28.595 102.384 28.24 102.064 27.8C101.744 27.35 101.539 26.855 101.449 26.315C101.359 25.765 101.314 25.21 101.314 24.65V6.71H105.604V24.11C105.604 24.68 105.724 25.145 105.964 25.505C106.214 25.855 106.679 26.07 107.359 26.15L108.094 26.195V28.895C107.794 28.995 107.489 29.08 107.179 29.15C106.869 29.23 106.564 29.27 106.264 29.27ZM117.983 29V7.31H125.963C127.543 7.31 128.958 7.585 130.208 8.135C131.458 8.675 132.443 9.475 133.163 10.535C133.893 11.595 134.258 12.89 134.258 14.42C134.258 15.86 133.938 17.09 133.298 18.11C132.658 19.13 131.758 19.91 130.598 20.45C129.448 20.99 128.093 21.26 126.533 21.26H122.393V29H117.983ZM122.348 17.87H126.413C127.513 17.87 128.413 17.52 129.113 16.82C129.813 16.11 130.163 15.235 130.163 14.195C130.163 13.115 129.793 12.26 129.053 11.63C128.313 10.99 127.413 10.67 126.353 10.67H122.348V17.87ZM136.998 29V6.71H141.348V15.725C141.598 15.365 141.913 15.01 142.293 14.66C142.673 14.3 143.148 14 143.718 13.76C144.288 13.52 144.983 13.4 145.803 13.4C146.793 13.4 147.693 13.595 148.503 13.985C149.323 14.365 149.978 14.92 150.468 15.65C150.968 16.38 151.218 17.27 151.218 18.32V29H146.823V18.965C146.823 18.265 146.568 17.73 146.058 17.36C145.558 16.98 144.948 16.79 144.228 16.79C143.758 16.79 143.303 16.875 142.863 17.045C142.423 17.215 142.063 17.475 141.783 17.825C141.513 18.165 141.378 18.59 141.378 19.1V29H136.998ZM161.441 29.3C159.921 29.3 158.596 28.975 157.466 28.325C156.346 27.675 155.476 26.755 154.856 25.565C154.246 24.375 153.941 22.965 153.941 21.335C153.941 19.705 154.246 18.28 154.856 17.06C155.476 15.84 156.346 14.89 157.466 14.21C158.596 13.53 159.926 13.19 161.456 13.19C162.986 13.19 164.311 13.525 165.431 14.195C166.551 14.855 167.416 15.795 168.026 17.015C168.636 18.235 168.941 19.675 168.941 21.335C168.941 22.895 168.641 24.275 168.041 25.475C167.451 26.665 166.596 27.6 165.476 28.28C164.366 28.96 163.021 29.3 161.441 29.3ZM161.456 26.045C162.226 26.045 162.846 25.82 163.316 25.37C163.786 24.92 164.126 24.33 164.336 23.6C164.556 22.86 164.666 22.055 164.666 21.185C164.666 20.365 164.566 19.59 164.366 18.86C164.176 18.13 163.846 17.54 163.376 17.09C162.906 16.64 162.266 16.415 161.456 16.415C160.686 16.415 160.061 16.63 159.581 17.06C159.111 17.48 158.766 18.055 158.546 18.785C158.326 19.505 158.216 20.305 158.216 21.185C158.216 21.995 158.316 22.775 158.516 23.525C158.716 24.265 159.051 24.87 159.521 25.34C159.991 25.81 160.636 26.045 161.456 26.045ZM171.861 29V13.49H176.166V15.68C176.406 15.3 176.716 14.935 177.096 14.585C177.486 14.225 177.976 13.93 178.566 13.7C179.156 13.47 179.856 13.355 180.666 13.355C181.616 13.355 182.501 13.54 183.321 13.91C184.151 14.28 184.821 14.865 185.331 15.665C185.841 16.455 186.096 17.49 186.096 18.77V29H181.716V19.31C181.716 18.47 181.466 17.84 180.966 17.42C180.466 17 179.856 16.79 179.136 16.79C178.656 16.79 178.191 16.875 177.741 17.045C177.301 17.215 176.941 17.47 176.661 17.81C176.381 18.15 176.241 18.57 176.241 19.07V29H171.861ZM193.245 22.25C193.235 23.04 193.36 23.73 193.62 24.32C193.88 24.9 194.255 25.35 194.745 25.67C195.245 25.98 195.845 26.135 196.545 26.135C197.295 26.135 197.95 25.975 198.51 25.655C199.08 25.335 199.475 24.81 199.695 24.08H203.64C203.47 25.18 203.03 26.12 202.32 26.9C201.62 27.68 200.77 28.275 199.77 28.685C198.77 29.095 197.73 29.3 196.65 29.3C195.12 29.3 193.77 28.98 192.6 28.34C191.44 27.69 190.535 26.775 189.885 25.595C189.235 24.415 188.91 23.025 188.91 21.425C188.91 19.875 189.205 18.48 189.795 17.24C190.385 15.99 191.24 15.005 192.36 14.285C193.49 13.555 194.845 13.19 196.425 13.19C198.005 13.19 199.33 13.525 200.4 14.195C201.48 14.855 202.29 15.78 202.83 16.97C203.38 18.15 203.655 19.515 203.655 21.065V22.25H193.245ZM193.23 19.64H199.56C199.56 19.02 199.445 18.45 199.215 17.93C198.985 17.41 198.635 17 198.165 16.7C197.705 16.4 197.125 16.25 196.425 16.25C195.745 16.25 195.165 16.415 194.685 16.745C194.215 17.065 193.855 17.485 193.605 18.005C193.355 18.525 193.23 19.07 193.23 19.64Z" fill="#212B36"/>
<g clip-path="url(#clip0_1506_17243)">
<path d="M13.5503 10.5807V4.3047C13.5503 4.3047 13.5503 2.42376 16.6018 3.05695C19.6533 3.69014 31.8956 8.69978 31.8956 8.69978C31.8956 8.69978 33.1126 8.69978 33.1126 11.2139V43.0037C33.1126 43.9535 32.6766 44.8474 31.9319 45.4061C29.8249 47.0077 24.9752 50.304 17.8188 52.5946C17.8188 52.5946 13.5321 54.4756 13.5321 51.3469C13.5321 48.2182 13.5321 25.6469 13.5321 25.6469L9.24552 23.1327V51.738C9.24552 54.4011 11.4797 56.5055 14.0589 56.2262C14.6401 56.1517 15.2759 56.0027 15.9842 55.742C20.4343 54.0286 30.9874 48.1437 32.8401 47.1194C33.1126 46.9704 33.3669 46.7656 33.603 46.5421C34.1479 45.9834 34.9471 44.866 34.9471 43.2085C34.9471 40.6944 34.9471 10.5993 34.9471 10.5993C34.9471 10.5993 34.9471 8.08521 30.6605 6.20427C27.2457 4.67717 20.3072 1.97681 17.6553 0.952531C16.7471 0.59869 15.8208 0.393835 14.8581 0.337965C12.9509 0.207603 10.0629 0.375212 9.28185 2.42376V8.06659H5.61279L13.5503 10.5807Z" fill="url(#paint0_linear_1506_17243)"/>
<path d="M0.109162 9.33298L22.7411 16.2236C22.7411 16.2236 24.5756 16.2236 24.5756 19.9854C24.5756 23.7473 24.5756 26.2615 24.5756 26.2615C24.5756 26.2615 17.2375 28.7756 16.6199 23.7473C16.6199 23.7473 8.66424 23.1141 9.28181 17.4713C9.28181 17.4713 -1.12597 16.2236 0.109162 9.33298Z" fill="url(#paint1_linear_1506_17243)"/>
<path d="M22.1236 47.5664L27.6272 45.0522C27.6272 45.0522 29.4617 45.6854 27.6272 46.9332C25.7927 48.1809 22.7412 48.8141 22.7412 48.8141C22.7412 48.8141 21.506 48.8328 22.1236 47.5664Z" fill="url(#paint2_linear_1506_17243)"/>
</g>
<path d="M61.6953 45.9297H55.4553V51.2657H53.9753V39.6977H55.4553V44.6257H61.6953V39.6977H63.1753V51.2657H61.6953V45.9297ZM68.9613 51.4257C68.5293 51.4204 68.1213 51.3591 67.7373 51.2417C67.3586 51.1191 67.0226 50.9404 66.7293 50.7057C66.4359 50.4711 66.2039 50.1804 66.0333 49.8337C65.8679 49.4817 65.7853 49.0737 65.7853 48.6097V42.9937H67.2653V48.4577C67.2653 48.9964 67.4306 49.4337 67.7613 49.7697C68.0973 50.1057 68.6013 50.2737 69.2733 50.2737C69.8813 50.2737 70.3693 50.1164 70.7373 49.8017C71.1106 49.4817 71.2973 49.0071 71.2973 48.3777V42.9937H72.7693V51.2657H71.5933L71.4413 49.6817C71.3399 50.0977 71.1666 50.4337 70.9213 50.6897C70.6813 50.9457 70.3906 51.1351 70.0493 51.2577C69.7133 51.3751 69.3506 51.4311 68.9613 51.4257ZM79.2593 51.4257C78.7739 51.4257 78.3633 51.3617 78.0273 51.2337C77.6966 51.1057 77.4246 50.9431 77.2113 50.7457C76.9979 50.5431 76.8326 50.3377 76.7153 50.1297C76.5979 49.9164 76.5126 49.7297 76.4593 49.5697L76.2993 51.2657H75.1713V39.3777H76.6593V44.3057C76.7286 44.1671 76.8326 44.0151 76.9713 43.8497C77.1153 43.6844 77.2993 43.5244 77.5233 43.3697C77.7473 43.2151 78.0113 43.0871 78.3153 42.9857C78.6246 42.8844 78.9766 42.8337 79.3713 42.8337C80.4059 42.8337 81.2273 43.1937 81.8353 43.9137C82.4486 44.6337 82.7553 45.6951 82.7553 47.0977C82.7553 47.9671 82.6246 48.7271 82.3633 49.3777C82.1019 50.0231 81.7126 50.5271 81.1953 50.8897C80.6779 51.2471 80.0326 51.4257 79.2593 51.4257ZM78.9953 50.2897C79.6673 50.2897 80.2139 50.0311 80.6353 49.5137C81.0566 48.9911 81.2673 48.1617 81.2673 47.0257C81.2673 46.0604 81.0699 45.3137 80.6753 44.7857C80.2859 44.2524 79.7153 43.9857 78.9633 43.9857C78.4139 43.9857 77.9713 44.1057 77.6353 44.3457C77.3046 44.5804 77.0593 44.9244 76.8993 45.3777C76.7446 45.8311 76.6646 46.3804 76.6593 47.0257C76.6593 48.1831 76.8379 49.0177 77.1953 49.5297C77.5579 50.0364 78.1579 50.2897 78.9953 50.2897ZM91.3655 51.4257C90.6028 51.4257 89.9362 51.2631 89.3655 50.9377C88.7948 50.6071 88.3522 50.1244 88.0375 49.4897C87.7228 48.8551 87.5655 48.0791 87.5655 47.1617C87.5655 46.2977 87.7122 45.5404 88.0055 44.8897C88.2988 44.2391 88.7282 43.7351 89.2935 43.3777C89.8642 43.0151 90.5548 42.8337 91.3655 42.8337C92.1282 42.8337 92.7895 43.0017 93.3495 43.3377C93.9148 43.6684 94.3522 44.1564 94.6615 44.8017C94.9708 45.4471 95.1255 46.2337 95.1255 47.1617C95.1255 48.0044 94.9815 48.7457 94.6935 49.3857C94.4108 50.0257 93.9895 50.5271 93.4295 50.8897C92.8748 51.2471 92.1868 51.4257 91.3655 51.4257ZM91.3655 50.2577C91.8615 50.2577 92.2802 50.1324 92.6215 49.8817C92.9628 49.6311 93.2215 49.2711 93.3975 48.8017C93.5735 48.3324 93.6615 47.7751 93.6615 47.1297C93.6615 46.5377 93.5842 46.0071 93.4295 45.5377C93.2748 45.0631 93.0268 44.6871 92.6855 44.4097C92.3495 44.1324 91.9095 43.9937 91.3655 43.9937C90.8642 43.9937 90.4402 44.1191 90.0935 44.3697C89.7468 44.6151 89.4828 44.9724 89.3015 45.4417C89.1255 45.9111 89.0375 46.4737 89.0375 47.1297C89.0375 47.7111 89.1175 48.2391 89.2775 48.7137C89.4375 49.1884 89.6882 49.5644 90.0295 49.8417C90.3708 50.1191 90.8162 50.2577 91.3655 50.2577ZM101.406 42.9937V44.0737H99.3978V51.2657H97.9098V44.0737H96.1658V42.9937H97.9098V41.7137C97.9098 41.0577 98.0778 40.5591 98.4138 40.2177C98.7498 39.8711 99.2511 39.6977 99.9178 39.6977H101.478L101.486 40.7457H100.246C99.9098 40.7457 99.6804 40.8364 99.5578 41.0177C99.4351 41.1991 99.3738 41.4737 99.3738 41.8417V42.9937H101.406ZM107.225 51.2657V39.6977H111.137C111.964 39.6977 112.7 39.8364 113.345 40.1137C113.991 40.3911 114.497 40.8017 114.865 41.3457C115.239 41.8897 115.425 42.5591 115.425 43.3537C115.425 44.1217 115.252 44.7777 114.905 45.3217C114.564 45.8657 114.087 46.2791 113.473 46.5617C112.86 46.8444 112.148 46.9857 111.337 46.9857H108.745V51.2657H107.225ZM108.737 45.7377H111.305C112.1 45.7377 112.745 45.5164 113.241 45.0737C113.737 44.6311 113.985 44.0284 113.985 43.2657C113.985 42.4977 113.729 41.9164 113.217 41.5217C112.705 41.1271 112.044 40.9297 111.233 40.9297H108.737V45.7377ZM117.109 51.2657V39.3777H118.549V44.2097C118.687 43.9804 118.874 43.7671 119.109 43.5697C119.343 43.3671 119.629 43.2044 119.965 43.0817C120.301 42.9537 120.69 42.8897 121.133 42.8897C121.671 42.8897 122.159 42.9911 122.597 43.1937C123.034 43.3911 123.381 43.6737 123.637 44.0417C123.893 44.4097 124.021 44.8471 124.021 45.3537V51.2657H122.541V45.6497C122.541 45.1537 122.37 44.7724 122.029 44.5057C121.693 44.2337 121.253 44.0977 120.709 44.0977C120.341 44.0977 119.994 44.1591 119.669 44.2817C119.343 44.3991 119.079 44.5804 118.877 44.8257C118.679 45.0657 118.581 45.3724 118.581 45.7457V51.2657H117.109ZM129.616 51.4257C128.853 51.4257 128.186 51.2631 127.616 50.9377C127.045 50.6071 126.602 50.1244 126.288 49.4897C125.973 48.8551 125.816 48.0791 125.816 47.1617C125.816 46.2977 125.962 45.5404 126.256 44.8897C126.549 44.2391 126.978 43.7351 127.544 43.3777C128.114 43.0151 128.805 42.8337 129.616 42.8337C130.378 42.8337 131.04 43.0017 131.6 43.3377C132.165 43.6684 132.602 44.1564 132.912 44.8017C133.221 45.4471 133.376 46.2337 133.376 47.1617C133.376 48.0044 133.232 48.7457 132.944 49.3857C132.661 50.0257 132.24 50.5271 131.68 50.8897C131.125 51.2471 130.437 51.4257 129.616 51.4257ZM129.616 50.2577C130.112 50.2577 130.53 50.1324 130.872 49.8817C131.213 49.6311 131.472 49.2711 131.648 48.8017C131.824 48.3324 131.912 47.7751 131.912 47.1297C131.912 46.5377 131.834 46.0071 131.68 45.5377C131.525 45.0631 131.277 44.6871 130.936 44.4097C130.6 44.1324 130.16 43.9937 129.616 43.9937C129.114 43.9937 128.69 44.1191 128.344 44.3697C127.997 44.6151 127.733 44.9724 127.552 45.4417C127.376 45.9111 127.288 46.4737 127.288 47.1297C127.288 47.7111 127.368 48.2391 127.528 48.7137C127.688 49.1884 127.938 49.5644 128.28 49.8417C128.621 50.1191 129.066 50.2577 129.616 50.2577ZM135.312 51.2657V42.9937H136.744V44.1937C136.877 43.9644 137.061 43.7484 137.296 43.5457C137.536 43.3431 137.824 43.1804 138.16 43.0577C138.501 42.9351 138.893 42.8737 139.336 42.8737C139.859 42.8737 140.339 42.9777 140.776 43.1857C141.219 43.3937 141.571 43.7191 141.832 44.1617C142.099 44.5991 142.232 45.1644 142.232 45.8577V51.2657H140.752V46.0017C140.752 45.3564 140.581 44.8791 140.24 44.5697C139.904 44.2551 139.467 44.0977 138.928 44.0977C138.555 44.0977 138.205 44.1591 137.88 44.2817C137.555 44.3991 137.291 44.5804 137.088 44.8257C136.885 45.0657 136.784 45.3697 136.784 45.7377V51.2657H135.312ZM145.602 47.4737C145.602 47.9964 145.688 48.4711 145.858 48.8977C146.034 49.3191 146.298 49.6551 146.65 49.9057C147.008 50.1564 147.453 50.2817 147.986 50.2817C148.514 50.2817 148.968 50.1591 149.346 49.9137C149.73 49.6684 149.976 49.3137 150.082 48.8497H151.482C151.381 49.4097 151.157 49.8817 150.81 50.2657C150.464 50.6497 150.045 50.9404 149.554 51.1377C149.064 51.3297 148.552 51.4257 148.018 51.4257C147.245 51.4257 146.565 51.2577 145.978 50.9217C145.392 50.5857 144.933 50.1031 144.602 49.4737C144.272 48.8444 144.106 48.0897 144.106 47.2097C144.106 46.3404 144.256 45.5777 144.554 44.9217C144.853 44.2657 145.285 43.7537 145.85 43.3857C146.421 43.0177 147.106 42.8337 147.906 42.8337C148.685 42.8337 149.344 43.0017 149.882 43.3377C150.421 43.6737 150.829 44.1484 151.106 44.7617C151.389 45.3697 151.53 46.0924 151.53 46.9297V47.4737H145.602ZM145.61 46.4737H150.106C150.106 45.9991 150.026 45.5724 149.866 45.1937C149.706 44.8097 149.461 44.5084 149.13 44.2897C148.805 44.0657 148.394 43.9537 147.898 43.9537C147.381 43.9537 146.952 44.0791 146.61 44.3297C146.274 44.5751 146.021 44.8924 145.85 45.2817C145.685 45.6657 145.605 46.0631 145.61 46.4737ZM157.46 39.6977C157.497 39.6977 157.609 39.7004 157.796 39.7057C157.988 39.7057 158.22 39.7057 158.492 39.7057C158.764 39.7004 159.046 39.7004 159.34 39.7057C159.633 39.7057 159.902 39.7084 160.148 39.7137C161.566 39.7351 162.716 39.9671 163.596 40.4097C164.481 40.8471 165.129 41.4844 165.54 42.3217C165.956 43.1591 166.164 44.1884 166.164 45.4097C166.164 46.6897 165.94 47.7644 165.492 48.6337C165.049 49.5031 164.372 50.1591 163.46 50.6017C162.553 51.0444 161.398 51.2657 159.996 51.2657H157.46V39.6977ZM158.98 40.9697V49.9937H159.996C160.95 49.9937 161.772 49.8471 162.46 49.5537C163.148 49.2551 163.676 48.7724 164.044 48.1057C164.417 47.4391 164.604 46.5484 164.604 45.4337C164.604 44.3191 164.422 43.4364 164.06 42.7857C163.702 42.1351 163.185 41.6711 162.508 41.3937C161.83 41.1111 161.014 40.9697 160.06 40.9697H158.98ZM169.305 47.4737C169.305 47.9964 169.391 48.4711 169.561 48.8977C169.737 49.3191 170.001 49.6551 170.353 49.9057C170.711 50.1564 171.156 50.2817 171.689 50.2817C172.217 50.2817 172.671 50.1591 173.049 49.9137C173.433 49.6684 173.679 49.3137 173.785 48.8497H175.185C175.084 49.4097 174.86 49.8817 174.513 50.2657C174.167 50.6497 173.748 50.9404 173.257 51.1377C172.767 51.3297 172.255 51.4257 171.721 51.4257C170.948 51.4257 170.268 51.2577 169.681 50.9217C169.095 50.5857 168.636 50.1031 168.305 49.4737C167.975 48.8444 167.809 48.0897 167.809 47.2097C167.809 46.3404 167.959 45.5777 168.257 44.9217C168.556 44.2657 168.988 43.7537 169.553 43.3857C170.124 43.0177 170.809 42.8337 171.609 42.8337C172.388 42.8337 173.047 43.0017 173.585 43.3377C174.124 43.6737 174.532 44.1484 174.809 44.7617C175.092 45.3697 175.233 46.0924 175.233 46.9297V47.4737H169.305ZM169.313 46.4737H173.809C173.809 45.9991 173.729 45.5724 173.569 45.1937C173.409 44.8097 173.164 44.5084 172.833 44.2897C172.508 44.0657 172.097 43.9537 171.601 43.9537C171.084 43.9537 170.655 44.0791 170.313 44.3297C169.977 44.5751 169.724 44.8924 169.553 45.2817C169.388 45.6657 169.308 46.0631 169.313 46.4737ZM179.459 51.4257C178.926 51.4257 178.454 51.3324 178.043 51.1457C177.633 50.9537 177.31 50.6791 177.075 50.3217C176.846 49.9644 176.731 49.5324 176.731 49.0257C176.731 48.1084 177.051 47.4257 177.691 46.9777C178.331 46.5297 179.358 46.2897 180.771 46.2577L182.251 46.2177V45.5697C182.251 45.0631 182.099 44.6631 181.795 44.3697C181.491 44.0711 181.019 43.9217 180.379 43.9217C179.905 43.9271 179.486 44.0391 179.123 44.2577C178.766 44.4764 178.534 44.8337 178.427 45.3297H177.123C177.155 44.7911 177.307 44.3377 177.579 43.9697C177.851 43.5964 178.23 43.3137 178.715 43.1217C179.206 42.9297 179.785 42.8337 180.451 42.8337C181.171 42.8337 181.769 42.9351 182.243 43.1377C182.723 43.3404 183.081 43.6391 183.315 44.0337C183.555 44.4284 183.675 44.9137 183.675 45.4897V51.2657H182.411L182.307 49.7137C181.987 50.3591 181.579 50.8071 181.083 51.0577C180.593 51.3031 180.051 51.4257 179.459 51.4257ZM179.907 50.3617C180.185 50.3617 180.459 50.3111 180.731 50.2097C181.009 50.1084 181.262 49.9724 181.491 49.8017C181.721 49.6257 181.902 49.4311 182.035 49.2177C182.174 48.9991 182.246 48.7751 182.251 48.5457V47.1297L181.019 47.1537C180.39 47.1644 179.862 47.2284 179.435 47.3457C179.014 47.4631 178.697 47.6471 178.483 47.8977C178.275 48.1484 178.171 48.4764 178.171 48.8817C178.171 49.3457 178.331 49.7084 178.651 49.9697C178.977 50.2311 179.395 50.3617 179.907 50.3617ZM188.291 51.3697C187.843 51.3697 187.48 51.3084 187.203 51.1857C186.931 51.0631 186.72 50.8977 186.571 50.6897C186.427 50.4817 186.328 50.2444 186.275 49.9777C186.227 49.7057 186.203 49.4257 186.203 49.1377V39.3777H187.659V48.9937C187.659 49.4097 187.739 49.7217 187.899 49.9297C188.064 50.1377 188.293 50.2524 188.587 50.2737L189.035 50.2817V51.2417C188.912 51.2791 188.784 51.3084 188.651 51.3297C188.517 51.3564 188.397 51.3697 188.291 51.3697ZM192.537 42.9937V51.2657H191.105V42.9937H192.537ZM192.569 39.7057V41.2417H191.057V39.7057H192.569ZM195.234 51.2657V42.9937H196.666V44.1937C196.799 43.9644 196.983 43.7484 197.218 43.5457C197.458 43.3431 197.746 43.1804 198.082 43.0577C198.423 42.9351 198.815 42.8737 199.258 42.8737C199.78 42.8737 200.26 42.9777 200.698 43.1857C201.14 43.3937 201.492 43.7191 201.754 44.1617C202.02 44.5991 202.154 45.1644 202.154 45.8577V51.2657H200.674V46.0017C200.674 45.3564 200.503 44.8791 200.162 44.5697C199.826 44.2551 199.388 44.0977 198.85 44.0977C198.476 44.0977 198.127 44.1591 197.802 44.2817C197.476 44.3991 197.212 44.5804 197.01 44.8257C196.807 45.0657 196.706 45.3697 196.706 45.7377V51.2657H195.234ZM207.956 54.0017C206.655 54.0017 205.641 53.8124 204.916 53.4337C204.196 53.0604 203.836 52.5244 203.836 51.8257C203.836 51.5271 203.905 51.2737 204.044 51.0657C204.183 50.8524 204.348 50.6764 204.54 50.5377C204.732 50.3991 204.911 50.2897 205.076 50.2097C205.241 50.1244 205.348 50.0631 205.396 50.0257C205.305 49.9724 205.191 49.9057 205.052 49.8257C204.919 49.7457 204.801 49.6391 204.7 49.5057C204.599 49.3724 204.548 49.1991 204.548 48.9857C204.548 48.7244 204.671 48.4844 204.916 48.2657C205.161 48.0471 205.524 47.8844 206.004 47.7777C205.519 47.5324 205.14 47.2071 204.868 46.8017C204.596 46.3964 204.46 45.9564 204.46 45.4817C204.46 44.9484 204.604 44.4844 204.892 44.0897C205.185 43.6951 205.601 43.3937 206.14 43.1857C206.679 42.9724 207.319 42.8657 208.06 42.8657C208.599 42.8657 209.052 42.9297 209.42 43.0577C209.788 43.1804 210.129 43.3564 210.444 43.5857C210.529 43.5484 210.663 43.4924 210.844 43.4177C211.031 43.3377 211.236 43.2524 211.46 43.1617C211.684 43.0711 211.892 42.9857 212.084 42.9057C212.281 42.8204 212.439 42.7564 212.556 42.7137L212.548 44.0817L211.1 44.3537C211.18 44.5244 211.244 44.7111 211.292 44.9137C211.345 45.1164 211.372 45.3057 211.372 45.4817C211.372 45.9671 211.244 46.4071 210.988 46.8017C210.737 47.1964 210.356 47.5111 209.844 47.7457C209.332 47.9804 208.692 48.0977 207.924 48.0977C207.86 48.0977 207.777 48.0977 207.676 48.0977C207.58 48.0924 207.497 48.0871 207.428 48.0817C206.863 48.0977 206.473 48.1617 206.26 48.2737C206.047 48.3804 205.94 48.5004 205.94 48.6337C205.94 48.7884 206.06 48.8951 206.3 48.9537C206.54 49.0124 206.948 49.0631 207.524 49.1057C207.732 49.1164 207.988 49.1297 208.292 49.1457C208.601 49.1617 208.943 49.1831 209.316 49.2097C210.185 49.2631 210.855 49.4844 211.324 49.8737C211.793 50.2631 212.028 50.7884 212.028 51.4497C212.028 52.2017 211.692 52.8151 211.02 53.2897C210.348 53.7644 209.327 54.0017 207.956 54.0017ZM208.22 53.0497C208.983 53.0497 209.567 52.9351 209.972 52.7057C210.377 52.4764 210.58 52.1297 210.58 51.6657C210.58 51.3351 210.455 51.0657 210.204 50.8577C209.959 50.6444 209.583 50.5217 209.076 50.4897L206.756 50.3377C206.548 50.3271 206.332 50.3804 206.108 50.4977C205.884 50.6097 205.692 50.7671 205.532 50.9697C205.377 51.1724 205.3 51.4017 205.3 51.6577C205.3 52.0951 205.537 52.4364 206.012 52.6817C206.492 52.9271 207.228 53.0497 208.22 53.0497ZM207.964 47.1457C208.561 47.1457 209.041 47.0071 209.404 46.7297C209.772 46.4524 209.956 46.0417 209.956 45.4977C209.956 44.9377 209.772 44.5111 209.404 44.2177C209.041 43.9244 208.561 43.7777 207.964 43.7777C207.361 43.7777 206.873 43.9271 206.5 44.2257C206.132 44.5191 205.948 44.9431 205.948 45.4977C205.948 46.0204 206.124 46.4257 206.476 46.7137C206.828 47.0017 207.324 47.1457 207.964 47.1457ZM217.045 51.4257C216.469 51.4257 215.933 51.3377 215.437 51.1617C214.946 50.9804 214.538 50.7004 214.213 50.3217C213.887 49.9377 213.682 49.4497 213.597 48.8577H214.941C215.015 49.1831 215.149 49.4551 215.341 49.6737C215.538 49.8871 215.783 50.0497 216.077 50.1617C216.37 50.2684 216.69 50.3217 217.037 50.3217C217.591 50.3217 218.039 50.2177 218.381 50.0097C218.722 49.8017 218.893 49.4817 218.893 49.0497C218.893 48.7457 218.802 48.5031 218.621 48.3217C218.445 48.1351 218.17 47.9991 217.797 47.9137L216.085 47.4897C215.418 47.3297 214.885 47.0791 214.485 46.7377C214.085 46.3964 213.885 45.9191 213.885 45.3057C213.879 44.8204 213.994 44.3937 214.229 44.0257C214.463 43.6577 214.815 43.3671 215.285 43.1537C215.754 42.9404 216.338 42.8337 217.037 42.8337C217.933 42.8337 218.655 43.0364 219.205 43.4417C219.759 43.8417 220.047 44.4311 220.069 45.2097H218.765C218.711 44.8151 218.533 44.5031 218.229 44.2737C217.93 44.0391 217.527 43.9217 217.021 43.9217C216.493 43.9217 216.063 44.0284 215.733 44.2417C215.402 44.4497 215.237 44.7751 215.237 45.2177C215.237 45.5111 215.354 45.7431 215.589 45.9137C215.823 46.0791 216.17 46.2177 216.629 46.3297L218.285 46.7457C218.669 46.8471 218.983 46.9804 219.229 47.1457C219.479 47.3111 219.677 47.4951 219.821 47.6977C219.97 47.9004 220.074 48.1137 220.133 48.3377C220.197 48.5564 220.229 48.7671 220.229 48.9697C220.229 49.4764 220.101 49.9137 219.845 50.2817C219.594 50.6444 219.231 50.9271 218.757 51.1297C218.287 51.3271 217.717 51.4257 217.045 51.4257Z" fill="#464646"/>
<defs>
<linearGradient id="paint0_linear_1506_17243" x1="5.60415" y1="28.271" x2="34.9582" y2="28.271" gradientUnits="userSpaceOnUse">
<stop stop-color="#FFD426"/>
<stop offset="1" stop-color="#3CAF47"/>
</linearGradient>
<linearGradient id="paint1_linear_1506_17243" x1="0.00017991" y1="18.1049" x2="24.5619" y2="18.1049" gradientUnits="userSpaceOnUse">
<stop stop-color="#FFD426"/>
<stop offset="1" stop-color="#3CAF47"/>
</linearGradient>
<linearGradient id="paint2_linear_1506_17243" x1="21.9446" y1="46.9475" x2="28.4351" y2="46.9475" gradientUnits="userSpaceOnUse">
<stop stop-color="#FFD426"/>
<stop offset="1" stop-color="#3CAF47"/>
</linearGradient>
<clipPath id="clip0_1506_17243">
<rect width="34.965" height="55.9441" fill="white" transform="translate(0 0.30072)"/>
</clipPath>
</defs>
</svg>
