<svg width="20" height="20" viewBox="0 0 20 20" fill="none" xmlns="http://www.w3.org/2000/svg">
<path d="M7.94721 10.3556C7.45324 10.1086 6.85256 10.3088 6.60557 10.8028C6.35858 11.2968 6.55881 11.8974 7.05279 12.1444L7.94721 10.3556ZM12.0528 14.6444C12.5468 14.8914 13.1474 14.6912 13.3944 14.1972C13.6414 13.7032 13.4412 13.1026 12.9472 12.8556L12.0528 14.6444ZM12.9472 7.14443C13.4412 6.89744 13.6414 6.29676 13.3944 5.80279C13.1474 5.30881 12.5468 5.10858 12.0528 5.35557L12.9472 7.14443ZM7.05279 7.85557C6.55881 8.10256 6.35858 8.70324 6.60557 9.19721C6.85256 9.69119 7.45324 9.89142 7.94721 9.64443L7.05279 7.85557ZM15 16.5C14.1716 16.5 13.5 15.8284 13.5 15H11.5C11.5 16.933 13.067 18.5 15 18.5V16.5ZM13.5 15C13.5 14.1716 14.1716 13.5 15 13.5V11.5C13.067 11.5 11.5 13.067 11.5 15H13.5ZM15 13.5C15.8284 13.5 16.5 14.1716 16.5 15H18.5C18.5 13.067 16.933 11.5 15 11.5V13.5ZM16.5 15C16.5 15.8284 15.8284 16.5 15 16.5V18.5C16.933 18.5 18.5 16.933 18.5 15H16.5ZM7.05279 12.1444L12.0528 14.6444L12.9472 12.8556L7.94721 10.3556L7.05279 12.1444ZM5 11.5C4.17157 11.5 3.5 10.8284 3.5 10H1.5C1.5 11.933 3.067 13.5 5 13.5V11.5ZM3.5 10C3.5 9.17157 4.17157 8.5 5 8.5V6.5C3.067 6.5 1.5 8.067 1.5 10H3.5ZM5 8.5C5.82843 8.5 6.5 9.17157 6.5 10H8.5C8.5 8.067 6.933 6.5 5 6.5V8.5ZM6.5 10C6.5 10.8284 5.82843 11.5 5 11.5V13.5C6.933 13.5 8.5 11.933 8.5 10H6.5ZM12.0528 5.35557L7.05279 7.85557L7.94721 9.64443L12.9472 7.14443L12.0528 5.35557ZM15 6.5C14.1716 6.5 13.5 5.82843 13.5 5H11.5C11.5 6.933 13.067 8.5 15 8.5V6.5ZM13.5 5C13.5 4.17157 14.1716 3.5 15 3.5V1.5C13.067 1.5 11.5 3.067 11.5 5H13.5ZM15 3.5C15.8284 3.5 16.5 4.17157 16.5 5H18.5C18.5 3.067 16.933 1.5 15 1.5V3.5ZM16.5 5C16.5 5.82843 15.8284 6.5 15 6.5V8.5C16.933 8.5 18.5 6.933 18.5 5H16.5Z" fill="black"/>
</svg>
