<svg width="520" height="473" viewBox="0 0 520 473" fill="none" xmlns="http://www.w3.org/2000/svg">
<path d="M211.965 287.422C211.965 287.422 180.996 342.312 159.46 394.073C152.468 410.866 163.616 429.865 181.161 434.805C195.837 438.953 211.371 432.17 218.33 418.637L274.561 309.187L211.965 287.422Z" fill="#E6AB8D"/>
<path d="M269.911 232.203C269.911 232.203 225.124 217.024 192.012 310.175L271.758 357.623C271.758 357.623 325.747 264.208 269.878 232.203H269.911Z" fill="#3CAF47"/>
<path d="M351.042 195.522L454.238 238.426C462.12 241.62 464.362 255.614 461.955 263.747L430.327 468.39H261.93L238.909 258.084C236.601 249.72 238.118 237.965 246.297 235.068L351.009 195.489L351.042 195.522Z" fill="#3CAF47"/>
<path d="M406.614 218.637C406.614 218.637 306.618 281.792 292.898 217.518L352.56 194.929L406.614 218.67V218.637Z" fill="#E6AB8D"/>
<path d="M242.307 283.142L248.276 343.662" stroke="black" stroke-width="0.47" stroke-linecap="round" stroke-linejoin="round"/>
<path d="M496.287 304.215C496.287 304.215 515.35 384.985 519.901 440.863C521.385 458.973 504.928 473.626 486.723 472.967C471.486 472.407 458.756 461.212 456.315 446.197L429.997 305.729L496.287 304.215Z" fill="#E6AB8D"/>
<path d="M441.507 236.121C441.507 236.121 501.432 235.759 515.284 340.83L427.161 353.803C427.161 353.803 379.9 254.857 441.507 236.121Z" fill="#3CAF47"/>
<path d="M437.616 352.256L425.743 353.046C425.743 353.046 418.916 317.551 415.552 300.297" stroke="black" stroke-width="0.47" stroke-linecap="round" stroke-linejoin="round"/>
<path d="M486.724 472.967L338.016 470.465L329.045 438.229C329.045 438.229 413.145 427.165 468.552 413.435L486.724 473V472.967Z" fill="#E6AB8D"/>
<path d="M335.245 439.414L273.704 415.41C268.328 413.303 262.293 413.928 257.445 417.057L201.576 453.211C200.125 454.166 199.234 455.779 199.234 457.491C199.234 460.323 201.51 462.595 204.346 462.595H253.289C258.335 462.595 263.348 461.541 267.965 459.5L285.082 461.805C285.082 461.805 295.702 477.544 337.982 470.465L335.212 439.414H335.245Z" fill="#E6AB8D"/>
<path d="M450.939 417.485L471.849 413.402" stroke="black" stroke-width="0.47" stroke-linecap="round" stroke-linejoin="round"/>
<path d="M280.959 112.776C279.211 123.082 269.416 130.03 259.093 128.317C248.77 126.572 241.811 116.793 243.526 106.487C245.274 96.1805 255.069 89.2328 265.392 90.9451C275.715 92.6902 282.674 102.47 280.959 112.776Z" fill="#CB8365"/>
<path d="M312.191 150.05L317.996 227.593L373.7 220.053L349.987 96.6746L312.191 150.05Z" fill="#E6AB8D"/>
<path d="M315.588 193.547L343.555 151.202L312.686 154.034L315.588 193.547Z" fill="#CB8365"/>
<path d="M278.947 24.4651C259.951 28.0871 251.739 48.8313 250.848 67.1059C249.826 88.1465 249.661 120.679 257.048 136.187C268.46 160.191 290.655 173.395 322.481 162.858C322.481 162.858 356.814 156.536 359.155 99.2759C361.563 40.4349 320.733 16.5297 278.947 24.4651Z" fill="#E6AB8D"/>
<path d="M263.48 93.3488C263.183 95.7196 261.006 97.3988 258.599 97.0696C256.191 96.7403 254.542 94.6 254.872 92.1963C255.169 89.8256 257.346 88.1463 259.753 88.4756C262.128 88.7719 263.81 90.9451 263.48 93.3488Z" fill="#1E0B02"/>
<path d="M300.055 92.8879C299.759 95.2586 297.582 96.9379 295.174 96.6086C292.8 96.3123 291.118 94.1391 291.448 91.7354C291.744 89.3647 293.921 87.6854 296.329 88.0146C298.703 88.311 300.385 90.4842 300.055 92.8879Z" fill="#1E0B02"/>
<path d="M297.417 67.2375C297.417 67.2375 307.047 67.468 312.027 69.9376C315.094 71.4522 315.457 74.8766 312.192 76.4572C309.191 77.906 302.364 77.9389 298.274 77.906C288.314 77.8401 281.289 74.7449 281.52 71.5181C281.817 67.3363 292.107 66.8753 297.384 67.2704L297.417 67.2375Z" fill="black"/>
<path d="M254.905 69.9046C254.905 69.9046 250.65 70.4315 247.352 72.901C245.341 74.4157 245.11 77.2145 247.352 78.2682C249.364 79.2231 251.772 79.0914 254.476 78.7292C261.138 77.873 264.238 75.1072 264.073 72.473C263.843 69.0815 258.467 69.1803 254.938 69.9376L254.905 69.9046Z" fill="black"/>
<path d="M270.208 100.79L265.723 114.126L274.363 115.476" stroke="black" stroke-width="0.48" stroke-linecap="round" stroke-linejoin="round"/>
<path d="M286.763 142.904C286.763 142.904 275.154 133.849 264.864 141.785L270.768 154.989L282.41 153.639L286.796 142.872L286.763 142.904Z" fill="#583323"/>
<path d="M292.667 129.7C292.667 129.7 287.819 135.529 276.309 135.199C264.799 134.87 263.216 127.461 263.216 127.461C263.216 127.461 272.219 118.11 292.667 129.7Z" fill="white"/>
<path d="M316.083 141.686C316.083 141.686 284.653 117.122 254.212 135.529L253.85 126.573C253.85 126.573 281.652 106.059 323.009 133.158L316.083 141.686Z" fill="#583323"/>
<path d="M261.006 3.32575C280.332 -8.03415 344.116 11.6893 375.316 33.553C380.329 37.0762 384.022 45.6044 381.78 54.2971L363.608 113.369C344.875 105.828 339.598 87.422 338.411 68.7193L330.462 59.8948C326.142 55.0545 323.537 51.202 324.064 45.6702L324.691 38.8213L261.105 35.6933C261.105 35.6933 239.932 15.6735 260.94 3.32575H261.006Z" fill="#583323"/>
<path d="M384.517 112.809C382.736 123.444 372.644 130.589 361.992 128.811C351.339 127.033 344.182 116.958 345.963 106.322C347.744 95.6866 357.836 88.5414 368.489 90.3195C379.141 92.0975 386.298 102.173 384.517 112.809Z" fill="#E6AB8D"/>
<path d="M338.477 68.7192C338.477 68.7192 349.855 138.196 283.499 143.299C278.849 143.662 274.099 143.299 269.68 141.884C263.612 139.941 256.323 135.693 253.849 126.605C253.849 126.605 246.264 176.326 290.425 175.173C352.23 173.56 355.396 135.331 348.239 82.5158L338.477 68.7522V68.7192Z" fill="#583323"/>
<path d="M270.438 471.452L222.584 340.073C219.945 333.158 213.283 328.581 205.896 328.581H8.04708C2.40745 328.581 -1.48422 334.245 0.527576 339.48L44.7871 461.475C47.0957 467.468 52.8343 471.419 59.2655 471.419H270.438V471.452Z" fill="#241A14"/>
<path d="M333.134 457.656H259.126V471.452H346.985C346.985 463.813 340.785 457.656 333.167 457.656H333.134Z" fill="#241A14"/>
<path d="M129.942 398.354C133.801 406.816 131.657 416.102 125.094 419.098C118.531 422.094 110.088 417.649 106.229 409.154C102.37 400.692 104.514 391.406 111.077 388.41C117.64 385.413 126.083 389.859 129.942 398.354Z" fill="#3D3734"/>
</svg>
