<svg width="150" height="40" viewBox="0 0 150 40" fill="none" xmlns="http://www.w3.org/2000/svg">
<path d="M135.057 32.7181H122.157C114.907 32.7181 114.262 26.7417 114.262 24.9161C114.262 23.0904 114.907 17.114 122.157 17.114H135.057C142.308 17.114 142.953 23.0904 142.953 24.9161C142.953 26.7417 142.308 32.7181 135.057 32.7181ZM135.337 10.5704H122.381C108.916 10.5704 107.718 21.5587 107.718 24.9161C107.718 28.2734 108.916 39.2617 122.381 39.2617H135.337C148.803 39.2617 150 28.2734 150 24.9161C150 21.5587 148.803 10.5704 135.337 10.5704ZM105.128 11.5771H100.928C99.1289 11.5771 98.7584 11.8796 98.0648 12.8954C97.3702 13.9107 85.3561 32.0038 85.3561 32.0038C84.9725 32.56 84.5658 32.785 84.0604 32.785C83.5546 32.785 83.1484 32.56 82.7653 32.0038C82.7653 32.0038 70.7503 13.9107 70.0561 12.8954C69.3625 11.8791 68.992 11.5771 67.193 11.5771H62.9925C62.0261 11.5771 61.5831 12.3226 62.1912 13.2332L76.5409 34.7254C78.7672 37.956 80.4011 39.2617 84.0604 39.2617C87.7199 39.2617 89.3538 37.956 91.5806 34.7254L105.93 13.2332C106.538 12.3226 106.096 11.5771 105.128 11.5771ZM49.8323 13.3323C49.8323 12.075 50.3231 11.5771 51.5618 11.5771H54.6469C55.8851 11.5771 56.3759 12.0755 56.3759 13.3323V37.506C56.3759 38.7633 55.8851 39.2617 54.6469 39.2617H51.5618C50.3236 39.2617 49.8323 38.7633 49.8323 37.506L49.8323 13.3323ZM49.5746 5.67277C48.5759 4.67462 48.5759 3.88283 49.5746 2.88419L51.7093 0.749447C52.708 -0.249733 53.4998 -0.249733 54.4984 0.748949L56.6341 2.88369C57.6323 3.88287 57.6323 4.67462 56.6341 5.67327L54.4984 7.80801C53.4998 8.80665 52.708 8.80665 51.7098 7.80801L49.5746 5.67327V5.67277ZM43.193 11.5771H38.9971C37.2001 11.5771 36.8296 11.8801 36.137 12.8954C35.4434 13.9107 23.4414 32.0033 23.4414 32.0033C23.0588 32.5595 22.6526 32.7845 22.1477 32.7845C21.6419 32.7845 21.2362 32.5595 20.8531 32.0033C20.8531 32.0033 8.8511 13.9102 8.1585 12.8949C7.4659 11.8801 7.09541 11.5771 5.29846 11.5771H1.10248C0.0243116 11.5771 -0.305425 12.3226 0.302134 13.2332C0.908697 14.1442 14.6357 34.7249 14.6357 34.7249C16.86 37.956 18.4929 39.2617 22.1478 39.2617C25.8022 39.2617 27.4355 37.956 29.6594 34.7249L43.9934 13.2332C44.6005 12.3226 44.2713 11.5771 43.1931 11.5771" fill="#415FFF"/>
</svg>
